<?xml version="1.0" encoding="UTF-8" standalone="no"?>
<svg
   width="869.13525"
   height="1002.1414"
   viewBox="0 0 869.13527 1002.1414"
   fill="none"
   version="1.1"
   id="svg184"
   sodipodi:docname="bgrid.svg"
   inkscape:version="1.2.2 (b0a84865, 2022-12-01)"
   xmlns:inkscape="http://www.inkscape.org/namespaces/inkscape"
   xmlns:sodipodi="http://sodipodi.sourceforge.net/DTD/sodipodi-0.dtd"
   xmlns:xlink="http://www.w3.org/1999/xlink"
   xmlns="http://www.w3.org/2000/svg"
   xmlns:svg="http://www.w3.org/2000/svg">
  <defs
     id="defs188">
    <linearGradient
       inkscape:collect="always"
       id="linearGradient32528">
      <stop
         style="stop-color:#646cc1;stop-opacity:1;"
         offset="0"
         id="stop32524" />
      <stop
         style="stop-color:#646cc1;stop-opacity:0;"
         offset="1"
         id="stop32526" />
    </linearGradient>
    <linearGradient
       inkscape:collect="always"
       xlink:href="#linearGradient32528"
       id="linearGradient32530"
       x1="380.06989"
       y1="247.48738"
       x2="380.06989"
       y2="609.87958"
       gradientUnits="userSpaceOnUse"
       gradientTransform="scale(1.152471)" />
  </defs>
  <sodipodi:namedview
     id="namedview186"
     pagecolor="#ffffff"
     bordercolor="#000000"
     borderopacity="0.25"
     inkscape:showpageshadow="2"
     inkscape:pageopacity="0.0"
     inkscape:pagecheckerboard="0"
     inkscape:deskcolor="#d1d1d1"
     showgrid="false"
     inkscape:zoom="0.22627417"
     inkscape:cx="475.08737"
     inkscape:cy="658.49319"
     inkscape:window-width="1440"
     inkscape:window-height="757"
     inkscape:window-x="0"
     inkscape:window-y="25"
     inkscape:window-maximized="0"
     inkscape:current-layer="svg184" />
  <path
     id="path84850"
     style="fill:url(#linearGradient32530);fill-opacity:1;fill-rule:nonzero;stroke:none;stroke-width:2.38007"
     d="M 52.975302,0 V 54.048021 H 0 v 1.463523 H 52.975302 V 109.55253 H 0 v 1.47238 h 52.975302 v 54.0481 H 0 v 1.45404 h 52.975302 v 54.03862 H 0 v 1.47238 h 52.975302 v 54.0481 H 0 v 1.46589 h 52.975302 v 54.03861 H 0 v 1.46291 h 52.975302 v 54.04802 H 0 v 1.4636 h 52.975302 v 54.04803 H 0 v 1.46352 h 52.975302 v 54.04809 H 0 v 1.46526 h 52.975302 v 54.04801 H 0 v 1.45415 h 52.975302 v 54.0481 H 0 v 1.4629 h 52.975302 v 54.04802 H 0 v 1.46595 h 52.975302 v 54.04801 H 0 v 1.45406 h 52.975302 v 54.04809 H 0 v 1.46291 h 52.975302 v 54.04811 H 0 v 1.4635 h 52.975302 v 54.04803 H 0 v 1.46533 h 52.975302 v 54.04803 H 0 v 1.45413 h 52.975302 v 54.04801 H 0 v 1.46299 h 52.975302 v 2.97299 h 1.447019 v -2.97299 h 52.958229 v 2.97299 h 1.44528 v -2.97299 h 52.97765 v 2.97299 h 1.42815 v -2.97299 h 52.9753 v 2.97299 h 1.43762 v -2.97299 h 52.97764 v 2.97299 h 1.43527 v -2.97299 h 52.96825 v 2.97299 h 1.44466 v -2.97299 h 52.95879 v 2.97299 h 1.44701 v -2.97299 h 52.96591 v 2.97299 h 1.44702 v -2.97299 h 52.96825 v 2.97299 h 1.43519 v -2.97299 h 52.97765 v 2.97299 h 1.42824 v -2.97299 h 52.97529 v 2.97299 h 1.43754 v -2.97299 h 52.96826 v 2.97299 h 0.73561 v -2.97299 h 52.92994 v 2.97299 h 1.43754 v -2.97299 h 52.96766 v 2.97299 h 1.43587 v -2.97299 h 52.97704 v 2.97299 h 1.43823 v -2.97299 h 52.96523 v 2.97299 h 0.76864 V 0 h -0.76864 V 54.048021 H 815.40141 V 0 h -1.43823 V 54.048021 H 760.98614 V 0 h -1.43587 V 54.048021 H 706.58261 V 0 h -1.43754 V 54.048021 H 652.21513 V 0 h -0.73561 V 54.048021 H 598.51126 V 0 h -1.43754 V 54.048021 H 544.09843 V 0 h -1.42824 V 54.048021 H 489.69254 V 0 h -1.43519 V 54.048021 H 435.2891 V 0 h -1.44702 V 54.048021 H 380.87617 V 0 h -1.44701 V 54.048021 H 326.47037 V 0 h -1.44466 V 54.048021 H 272.05746 V 0 h -1.43527 V 54.048021 H 217.64455 V 0 h -1.43762 v 54.048021 h -52.9753 V 0 h -1.42815 V 54.048021 H 108.82583 V 0 h -1.44528 V 54.048021 H 54.422321 V 0 Z m 1.447019,55.511544 H 107.38055 V 109.55253 H 54.422321 Z m 54.403509,0 h 52.97765 v 54.040986 h -52.97765 z m 54.4058,0 h 52.9753 v 54.040986 h -52.9753 z m 54.41292,0 h 52.97764 v 54.040986 h -52.97764 z m 54.41291,0 h 52.96825 v 54.040986 h -52.96825 z m 54.41291,0 h 52.95879 v 54.040986 h -52.95879 z m 54.4058,0 h 52.96591 v 54.040986 h -52.96591 z m 54.41293,0 h 52.96825 V 109.55253 H 435.2891 Z m 54.40344,0 h 52.97765 v 54.040986 h -52.97765 z m 54.40589,0 h 52.97529 v 54.040986 h -52.97529 z m 54.41283,0 h 52.96826 v 54.040986 h -52.96826 z m 53.70387,0 h 52.92994 v 54.040986 h -52.92994 z m 54.36748,0 h 52.96766 v 54.040986 h -52.96766 z m 54.40353,0 h 52.97704 v 54.040986 h -52.97704 z m 54.41527,0 h 52.96523 V 109.55253 H 815.40141 Z M 54.422321,111.02491 h 52.958229 v 54.0481 H 54.422321 Z m 54.403509,0 h 52.97765 v 54.0481 h -52.97765 z m 54.4058,0 h 52.9753 v 54.0481 h -52.9753 z m 54.41292,0 h 52.97764 v 54.0481 h -52.97764 z m 54.41291,0 h 52.96825 v 54.0481 h -52.96825 z m 54.41291,0 h 52.95879 v 54.0481 h -52.95879 z m 54.4058,0 h 52.96591 v 54.0481 h -52.96591 z m 54.41293,0 h 52.96825 v 54.0481 H 435.2891 Z m 54.40344,0 h 52.97765 v 54.0481 h -52.97765 z m 54.40589,0 h 52.97529 v 54.0481 h -52.97529 z m 54.41283,0 h 52.96826 v 54.0481 h -52.96826 z m 53.70387,0 h 52.92994 v 54.0481 h -52.92994 z m 54.36748,0 h 52.96766 v 54.0481 h -52.96766 z m 54.40353,0 h 52.97704 v 54.0481 h -52.97704 z m 54.41527,0 h 52.96523 v 54.0481 H 815.40141 Z M 54.422321,166.52705 h 52.958229 v 54.03862 H 54.422321 Z m 54.403509,0 h 52.97765 v 54.03862 h -52.97765 z m 54.4058,0 h 52.9753 v 54.03862 h -52.9753 z m 54.41292,0 h 52.97764 v 54.03862 h -52.97764 z m 54.41291,0 h 52.96825 v 54.03862 h -52.96825 z m 54.41291,0 h 52.95879 v 54.03862 h -52.95879 z m 54.4058,0 h 52.96591 v 54.03862 h -52.96591 z m 54.41293,0 h 52.96825 v 54.03862 H 435.2891 Z m 54.40344,0 h 52.97765 v 54.03862 h -52.97765 z m 54.40589,0 h 52.97529 v 54.03862 h -52.97529 z m 54.41283,0 h 52.96826 v 54.03862 h -52.96826 z m 53.70387,0 h 52.92994 v 54.03862 h -52.92994 z m 54.36748,0 h 52.96766 v 54.03862 h -52.96766 z m 54.40353,0 h 52.97704 v 54.03862 h -52.97704 z m 54.41527,0 h 52.96523 v 54.03862 h -52.96523 z m -760.979089,55.511 h 52.958229 v 54.0481 H 54.422321 Z m 54.403509,6.2e-4 h 52.97765 v 54.04801 h -52.97765 z m 54.4058,0 h 52.9753 v 54.04801 h -52.9753 z m 54.41292,0 h 52.97764 v 54.04748 h -52.97764 z m 54.41291,0 h 52.96825 v 54.04801 h -52.96825 z m 54.41291,0 h 52.95879 v 54.04801 h -52.95879 z m 54.4058,0 h 52.96591 v 54.04801 h -52.96591 z m 54.41293,0 h 52.96825 v 54.04748 H 435.2891 Z m 54.40344,0 h 52.97765 v 54.04801 h -52.97765 z m 54.40589,0 h 52.97529 v 54.04801 h -52.97529 z m 54.41283,0 h 52.96826 v 54.04801 h -52.96826 z m 53.70387,0 h 52.92994 v 54.04801 h -52.92994 z m 54.36748,0 h 52.96766 v 54.04748 h -52.96766 z m 54.40353,0 h 52.97704 v 54.04801 h -52.97704 z m 54.41527,0 h 52.96523 v 54.04801 H 815.40141 Z M 54.422321,277.55204 h 52.958229 v 54.03861 H 54.422321 Z m 54.403509,0 h 52.97765 v 54.03861 h -52.97765 z m 54.4058,0 h 52.9753 v 54.03861 h -52.9753 z m 54.41292,0 h 52.97764 v 54.03861 h -52.97764 z m 54.41291,0 h 52.96825 v 54.03861 h -52.96825 z m 54.41291,0 h 52.95879 v 54.03861 h -52.95879 z m 54.4058,0 h 52.96591 v 54.03861 h -52.96591 z m 54.41293,0 h 52.96825 v 54.03861 H 435.2891 Z m 54.40344,0 h 52.97765 v 54.03861 h -52.97765 z m 54.40589,0 h 52.97529 v 54.03861 h -52.97529 z m 54.41283,0 h 52.96826 v 54.03861 h -52.96826 z m 53.70387,0 h 52.92994 v 54.03861 h -52.92994 z m 54.36748,0 h 52.96766 v 54.03861 h -52.96766 z m 54.40353,0 h 52.97704 v 54.03861 h -52.97704 z m 54.41527,0 h 52.96523 v 54.03861 H 815.40141 Z M 54.422321,333.05356 h 52.958229 v 54.04802 H 54.422321 Z m 380.866779,0 h 52.96825 v 54.04865 H 435.2891 Z m -326.46327,6.1e-4 h 52.97765 v 54.04804 h -52.97765 z m 54.4058,0 h 52.9753 v 54.04804 h -52.9753 z m 54.41292,0 h 52.97764 v 54.04804 h -52.97764 z m 54.41291,0 h 52.96825 v 54.04804 h -52.96825 z m 54.41291,0 h 52.95879 v 54.04804 h -52.95879 z m 54.4058,0 h 52.96591 v 54.04804 h -52.96591 z m 108.81637,0 h 52.97765 v 54.04804 h -52.97765 z m 54.40589,0 h 52.97529 v 54.04804 h -52.97529 z m 54.41283,0 h 52.96826 v 54.04804 h -52.96826 z m 53.70387,0 h 52.92994 v 54.04804 h -52.92994 z m 54.36748,0 h 52.96766 v 54.04804 h -52.96766 z m 54.40353,0 h 52.97704 v 54.04804 h -52.97704 z m 54.41527,0 h 52.96523 v 54.04804 H 815.40141 Z M 54.422321,388.56518 h 52.958229 v 54.04803 H 54.422321 Z m 54.403509,0 h 52.97765 v 54.04803 h -52.97765 z m 54.4058,0 h 52.9753 v 54.04803 h -52.9753 z m 54.41292,0 h 52.97764 v 54.04803 h -52.97764 z m 54.41291,0 h 52.96825 v 54.04803 h -52.96825 z m 54.41291,0 h 52.95879 v 54.04803 h -52.95879 z m 54.4058,0 h 52.96591 v 54.04803 h -52.96591 z m 54.41293,0 h 52.96825 v 54.04803 H 435.2891 Z m 54.40344,0 h 52.97765 v 54.04803 h -52.97765 z m 54.40589,0 h 52.97529 v 54.04803 h -52.97529 z m 54.41283,0 h 52.96826 v 54.04803 h -52.96826 z m 53.70387,0 h 52.92994 v 54.04803 h -52.92994 z m 54.36748,0 h 52.96766 v 54.04803 h -52.96766 z m 54.40353,0 h 52.97704 v 54.04803 h -52.97704 z m 54.41527,0 h 52.96523 v 54.04803 H 815.40141 Z M 54.422321,444.07673 h 52.958229 v 54.04809 H 54.422321 Z m 54.403509,0 h 52.97765 v 54.04809 h -52.97765 z m 54.4058,0 h 52.9753 v 54.04809 h -52.9753 z m 54.41292,0 h 52.97764 v 54.04809 h -52.97764 z m 54.41291,0 h 52.96825 v 54.04809 h -52.96825 z m 54.41291,0 h 52.95879 v 54.04809 h -52.95879 z m 54.4058,0 h 52.96591 v 54.04809 h -52.96591 z m 54.41293,0 h 52.96825 v 54.04809 H 435.2891 Z m 54.40344,0 h 52.97765 v 54.04809 h -52.97765 z m 54.40589,0 h 52.97529 v 54.04809 h -52.97529 z m 54.41283,0 h 52.96826 v 54.04809 h -52.96826 z m 53.70387,0 h 52.92994 v 54.04809 h -52.92994 z m 54.36748,0 h 52.96766 v 54.04809 h -52.96766 z m 54.40353,0 h 52.97704 v 54.04809 h -52.97704 z m 54.41527,0 h 52.96523 v 54.04809 H 815.40141 Z M 54.422321,499.59008 h 52.958229 v 54.04801 H 54.422321 Z m 54.403509,0 h 52.97765 v 54.04801 h -52.97765 z m 54.4058,0 h 52.9753 v 54.04801 h -52.9753 z m 54.41292,0 h 52.97764 v 54.04801 h -52.97764 z m 54.41291,0 h 52.96825 v 54.04801 h -52.96825 z m 54.41291,0 h 52.95879 v 54.04801 h -52.95879 z m 54.4058,0 h 52.96591 v 54.04801 h -52.96591 z m 54.41293,0 h 52.96825 v 54.04801 H 435.2891 Z m 54.40344,0 h 52.97765 v 54.04801 h -52.97765 z m 54.40589,0 h 52.97529 v 54.04801 h -52.97529 z m 54.41283,0 h 52.96826 v 54.04801 h -52.96826 z m 53.70387,0 h 52.92994 v 54.04801 h -52.92994 z m 54.36748,0 h 52.96766 v 54.04801 h -52.96766 z m 54.40353,0 h 52.97704 v 54.04801 h -52.97704 z m 54.41527,0 h 52.96523 v 54.04801 H 815.40141 Z M 54.422321,555.09224 h 52.958229 v 54.0481 H 54.422321 Z m 54.403509,0 h 52.97765 v 54.0481 h -52.97765 z m 54.4058,0 h 52.9753 v 54.0481 h -52.9753 z m 54.41292,0 h 52.97764 v 54.0481 h -52.97764 z m 54.41291,0 h 52.96825 v 54.0481 h -52.96825 z m 54.41291,0 h 52.95879 v 54.0481 h -52.95879 z m 54.4058,0 h 52.96591 v 54.0481 h -52.96591 z m 54.41293,0 h 52.96825 v 54.0481 H 435.2891 Z m 54.40344,0 h 52.97765 v 54.0481 h -52.97765 z m 54.40589,0 h 52.97529 v 54.0481 h -52.97529 z m 54.41283,0 h 52.96826 v 54.0481 h -52.96826 z m 53.70387,0 h 52.92994 v 54.0481 h -52.92994 z m 54.36748,0 h 52.96766 v 54.0481 h -52.96766 z m 54.40353,0 h 52.97704 v 54.0481 h -52.97704 z m 54.41527,0 h 52.96523 v 54.0481 h -52.96523 z m -760.979089,55.511 h 52.958229 v 54.04802 H 54.422321 Z m 54.403509,0 h 52.97765 v 54.04802 h -52.97765 z m 54.4058,0 h 52.9753 v 54.04802 h -52.9753 z m 54.41292,0 h 52.97764 v 54.04802 h -52.97764 z m 54.41291,0 h 52.96825 v 54.04802 h -52.96825 z m 54.41291,0 h 52.95879 v 54.04802 h -52.95879 z m 54.4058,0 h 52.96591 v 54.04802 h -52.96591 z m 54.41293,0 h 52.96825 v 54.04802 H 435.2891 Z m 54.40344,0 h 52.97765 v 54.04802 h -52.97765 z m 54.40589,0 h 52.97529 v 54.04802 h -52.97529 z m 54.41283,0 h 52.96826 v 54.04802 h -52.96826 z m 53.70387,0 h 52.92994 v 54.04802 h -52.92994 z m 54.36748,0 h 52.96766 v 54.04802 h -52.96766 z m 54.40353,0 h 52.97704 v 54.04802 h -52.97704 z m 54.41527,0 h 52.96523 v 54.04802 H 815.40141 Z M 54.422321,666.11721 h 52.958229 v 54.04801 H 54.422321 Z m 54.403509,0 h 52.97765 v 54.04801 h -52.97765 z m 54.4058,0 h 52.9753 v 54.04801 h -52.9753 z m 54.41292,0 h 52.97764 v 54.04801 h -52.97764 z m 54.41291,0 h 52.96825 v 54.04801 h -52.96825 z m 54.41291,0 h 52.95879 v 54.04801 h -52.95879 z m 54.4058,0 h 52.96591 v 54.04801 h -52.96591 z m 54.41293,0 h 52.96825 v 54.04801 H 435.2891 Z m 54.40344,0 h 52.97765 v 54.04801 h -52.97765 z m 54.40589,0 h 52.97529 v 54.04801 h -52.97529 z m 54.41283,0 h 52.96826 v 54.04801 h -52.96826 z m 53.70387,0 h 52.92994 v 54.04801 h -52.92994 z m 54.36748,0 h 52.96766 v 54.04801 h -52.96766 z m 54.40353,0 h 52.97704 v 54.04801 h -52.97704 z m 54.41527,0 h 52.96523 v 54.04801 H 815.40141 Z M 54.422321,721.61928 h 52.958229 v 54.04809 H 54.422321 Z m 54.403509,0 h 52.97765 v 54.04809 h -52.97765 z m 54.4058,0 h 52.9753 v 54.04809 h -52.9753 z m 54.41292,0 h 52.97764 v 54.04809 h -52.97764 z m 54.41291,0 h 52.96825 v 54.04809 h -52.96825 z m 54.41291,0 h 52.95879 v 54.04809 h -52.95879 z m 54.4058,0 h 52.96591 v 54.04809 h -52.96591 z m 54.41293,0 h 52.96825 v 54.04809 H 435.2891 Z m 54.40344,0 h 52.97765 v 54.04809 h -52.97765 z m 54.40589,0 h 52.97529 v 54.04809 h -52.97529 z m 54.41283,0 h 52.96826 v 54.04809 h -52.96826 z m 53.70387,0 h 52.92994 v 54.04809 h -52.92994 z m 54.36748,0 h 52.96766 v 54.04809 h -52.96766 z m 54.40353,0 h 52.97704 v 54.04809 h -52.97704 z m 54.41527,0 h 52.96523 v 54.04809 h -52.96523 z m -760.979089,55.511 h 52.958229 v 54.04811 H 54.422321 Z m 54.403509,0 h 52.97765 v 54.04811 h -52.97765 z m 54.4058,0 h 52.9753 v 54.04811 h -52.9753 z m 54.41292,0 h 52.97764 v 54.04811 h -52.97764 z m 54.41291,0 h 52.96825 v 54.04811 h -52.96825 z m 54.41291,0 h 52.95879 v 54.04811 h -52.95879 z m 54.4058,0 h 52.96591 v 54.04811 h -52.96591 z m 54.41293,0 h 52.96825 v 54.04811 H 435.2891 Z m 54.40344,0 h 52.97765 v 54.04811 h -52.97765 z m 54.40589,0 h 52.97529 v 54.04811 h -52.97529 z m 54.41283,0 h 52.96826 v 54.04811 h -52.96826 z m 53.70387,0 h 52.92994 v 54.04811 h -52.92994 z m 54.36748,0 h 52.96766 v 54.04811 h -52.96766 z m 54.40353,0 h 52.97704 v 54.04811 h -52.97704 z m 54.41527,0 h 52.96523 v 54.04811 H 815.40141 Z M 54.422321,832.64189 h 52.958229 v 54.04803 H 54.422321 Z m 54.403509,0 h 52.97765 v 54.04803 h -52.97765 z m 54.4058,0 h 52.9753 v 54.04803 h -52.9753 z m 54.41292,0 h 52.97764 v 54.04803 h -52.97764 z m 54.41291,0 h 52.96825 v 54.04803 h -52.96825 z m 54.41291,0 h 52.95879 v 54.04803 h -52.95879 z m 54.4058,0 h 52.96591 v 54.04803 h -52.96591 z m 54.41293,0 h 52.96825 v 54.04803 H 435.2891 Z m 54.40344,0 h 52.97765 v 54.04803 h -52.97765 z m 54.40589,0 h 52.97529 v 54.04803 h -52.97529 z m 54.41283,0 h 52.96826 v 54.04803 h -52.96826 z m 53.70387,0 h 52.92994 v 54.04803 h -52.92994 z m 54.36748,0 h 52.96766 v 54.04803 h -52.96766 z m 54.40353,0 h 52.97704 v 54.04803 h -52.97704 z m 54.41527,0 h 52.96523 v 54.04803 H 815.40141 Z M 54.422321,888.15525 h 52.958229 v 54.04803 H 54.422321 Z m 54.403509,0 h 52.97765 v 54.04803 h -52.97765 z m 54.4058,0 h 52.9753 v 54.04803 h -52.9753 z m 54.41292,0 h 52.97764 v 54.04803 h -52.97764 z m 54.41291,0 h 52.96825 v 54.04803 h -52.96825 z m 54.41291,0 h 52.95879 v 54.04803 h -52.95879 z m 54.4058,0 h 52.96591 v 54.04803 h -52.96591 z m 54.41293,0 h 52.96825 v 54.04803 H 435.2891 Z m 54.40344,0 h 52.97765 v 54.04803 h -52.97765 z m 54.40589,0 h 52.97529 v 54.04803 h -52.97529 z m 54.41283,0 h 52.96826 v 54.04803 h -52.96826 z m 53.70387,0 h 52.92994 v 54.04803 h -52.92994 z m 54.36748,0 h 52.96766 v 54.04803 h -52.96766 z m 54.40353,0 h 52.97704 v 54.04803 h -52.97704 z m 54.41527,0 h 52.96523 v 54.04803 H 815.40141 Z M 54.422321,943.65741 h 52.958229 v 54.04801 H 54.422321 Z m 54.403509,0 h 52.97765 v 54.04801 h -52.97765 z m 54.4058,0 h 52.9753 v 54.04801 h -52.9753 z m 54.41292,0 h 52.97764 v 54.04801 h -52.97764 z m 54.41291,0 h 52.96825 v 54.04801 h -52.96825 z m 54.41291,0 h 52.95879 v 54.04801 h -52.95879 z m 54.4058,0 h 52.96591 v 54.04801 h -52.96591 z m 54.41293,0 h 52.96825 v 54.04801 H 435.2891 Z m 54.40344,0 h 52.97765 v 54.04801 h -52.97765 z m 54.40589,0 h 52.97529 v 54.04801 h -52.97529 z m 54.41283,0 h 52.96826 v 54.04801 h -52.96826 z m 53.70387,0 h 52.92994 v 54.04801 h -52.92994 z m 54.36748,0 h 52.96766 v 54.04801 h -52.96766 z m 54.40353,0 h 52.97704 v 54.04801 h -52.97704 z m 54.41527,0 h 52.96523 v 54.04801 h -52.96523 z" />
</svg>
