<svg width="193" height="69" viewBox="0 0 193 69" fill="none" xmlns="http://www.w3.org/2000/svg">
<path d="M192.803 68.2845H0C0.942331 63.0284 4.51137 57.2419 9.35991 54.9033C14.207 52.5647 20.1823 52.6659 24.9459 55.1685C32.2035 46.259 37.516 35.9835 43.9236 26.4566C50.3326 16.9312 58.2099 7.86623 68.7167 3.08495C79.2221 -1.69775 92.8196 -1.23145 101.162 6.69123C109.348 14.4642 110.55 26.7903 111.251 37.9956C120.28 30.301 133.32 26.7761 144.572 30.6575C155.823 34.5376 164.136 46.5827 162.025 58.1887C166.891 54.4598 173.56 53.1536 179.494 54.7692C185.429 56.3834 190.547 62.6177 192.803 68.2845Z" fill="white"/>
</svg>
