<?xml version="1.0" encoding="UTF-8" standalone="no"?>
<svg
   width="225.67168"
   height="80.042503"
   viewBox="0 0 225.67168 80.042503"
   fill="none"
   version="1.1"
   id="svg184"
   sodipodi:docname="cloud.svg"
   inkscape:version="1.2.2 (b0a84865, 2022-12-01)"
   xmlns:inkscape="http://www.inkscape.org/namespaces/inkscape"
   xmlns:sodipodi="http://sodipodi.sourceforge.net/DTD/sodipodi-0.dtd"
   xmlns="http://www.w3.org/2000/svg"
   xmlns:svg="http://www.w3.org/2000/svg">
  <defs
     id="defs188" />
  <sodipodi:namedview
     id="namedview186"
     pagecolor="#ffffff"
     bordercolor="#000000"
     borderopacity="0.25"
     inkscape:showpageshadow="2"
     inkscape:pageopacity="0.0"
     inkscape:pagecheckerboard="0"
     inkscape:deskcolor="#d1d1d1"
     showgrid="false"
     inkscape:zoom="1.7101449"
     inkscape:cx="131.27543"
     inkscape:cy="71.92373"
     inkscape:window-width="1440"
     inkscape:window-height="757"
     inkscape:window-x="0"
     inkscape:window-y="25"
     inkscape:window-maximized="0"
     inkscape:current-layer="svg184" />
  <path
     d="m 175.69813,41.571798 c 11.60768,-25.442946 38.29457,-7.578521 30.93537,20.178574 7.78403,-5.507198 19.03673,2.930291 19.03673,18.292103 H 0 C 0,60.215463 30.439257,49.750147 45.518432,61.427807 43.289455,39.290271 63.196204,27.449514 74.945008,50.971553 73.677777,19.486812 104.13592,10.797432 113.17704,37.27513 c 12.35405,-49.133519 58.81241,-35.0782823 62.52109,4.296668"
     style="fill:#636ed8;fill-opacity:1;fill-rule:evenodd;stroke:none;stroke-width:1.62377"
     id="path576224" />
  <path
     d="m 170.39482,70.370908 c 0,1.786806 -1.41278,3.236545 -3.15578,3.236545 h -10e-4 c -1.74306,0 -3.15579,-1.449739 -3.15579,-3.236545 0,-1.78862 1.41422,-3.236545 3.15727,-3.236545 1.74301,0 3.15579,1.449739 3.15579,3.236545 m -79.6363,-3.88168 c 1.743052,0 3.15583,1.449739 3.15583,3.236545 -0.0015,1.78862 -1.414221,3.236545 -3.157273,3.236545 h -0.0014 c -1.743052,0 -3.157274,-1.44974 -3.15583,-3.236545 0,-1.788618 1.412778,-3.236545 3.157274,-3.236545 z m 48.20285,-2.44825 c 0,3.430451 -2.7135,6.212137 -6.06136,6.21395 -3.34785,0 -6.0614,-2.783499 -6.0614,-6.21395 v -0.0017 c 0,-3.432259 2.71355,-6.213949 6.0614,-6.212137 3.34786,0 6.06136,2.78169 6.06136,6.21395 m 13.56461,-15.001186 c 1.74301,0 3.15579,1.449737 3.15579,3.236545 -0.001,1.786805 -1.41422,3.236545 -3.15727,3.236545 -1.74301,-0.0017 -3.15724,-1.44974 -3.15724,-3.236545 0,-1.786808 1.41423,-3.236545 3.15724,-3.236545 z m -19.92716,2.252534 C 124.18385,30.031879 105.12674,40.941175 106.73011,60.797184 98.636171,42.370984 76.030442,43.739175 73.5279,68.161867 69.295421,51.627577 51.990157,52.863479 48.915822,72.032673 36.414786,62.410019 24.116007,63.595183 8.7836409,71.737302 7.4770634,73.119996 3.743625,70.771415 4.714114,67.475066 1.795431,70.996123 4.1e-5,75.242053 4.1e-5,80.042506 H 225.67168 c 0,-15.361813 -11.2541,-23.799301 -19.03813,-18.292103 -1.99769,1.286644 -5.29898,3.557301 -7.07985,5.112147 -2.01369,-20.827334 -23.77551,-26.573743 -31.47953,-6.498462 2.62037,-18.045644 -7.73459,-30.174533 -18.04298,-30.306823 -7.52214,-0.09786 -15.0181,6.194015 -17.43188,21.235075"
     style="fill:#515cc3;fill-opacity:1;fill-rule:evenodd;stroke:none;stroke-width:1.62377"
     id="path576226" />
  <path
     d="m 25.991668,55.621256 c -0.804274,0 -2.319584,-4.398598 -2.889102,-4.96664 -0.568161,-0.569527 -4.966697,-2.084797 -4.966697,-2.889275 0,-0.804473 4.398536,-2.319748 4.966697,-2.887789 0.569518,-0.569527 2.084828,-4.968125 2.889102,-4.968125 0.804717,0 2.320027,4.398598 2.889501,4.968125 0.567749,0.568041 4.966724,2.083316 4.966724,2.887789 0,0.804478 -4.398975,2.319748 -4.966724,2.889275 -0.569474,0.568042 -2.084784,4.96664 -2.889501,4.96664"
     style="fill:#ffffff;fill-opacity:1;fill-rule:nonzero;stroke:none;stroke-width:1.48702"
     id="path75488" />
  <path
     d="m 208.6186,15.711829 c -0.80427,0 -2.31958,-4.398598 -2.8891,-4.96664 -0.56816,-0.569526 -4.9667,-2.0847966 -4.9667,-2.8892753 0,-0.8044729 4.39854,-2.3197473 4.9667,-2.887788 C 206.29902,4.3985982 207.81433,0 208.6186,0 c 0.80472,0 2.32002,4.3985982 2.88949,4.9681257 0.56776,0.5680407 4.96673,2.0833151 4.96673,2.887788 0,0.8044787 -4.39897,2.3197493 -4.96673,2.8892753 -0.56947,0.568042 -2.08477,4.96664 -2.88949,4.96664"
     style="fill:#ffffff;fill-opacity:1;fill-rule:nonzero;stroke:none;stroke-width:1.48702"
     id="path7462" />
</svg>
