<?xml version="1.0" encoding="UTF-8" standalone="no"?>
<svg
   width="48"
   height="48"
   viewBox="0 0 48 48"
   fill="none"
   version="1.1"
   id="svg235388"
   sodipodi:docname="penduduk.svg"
   xml:space="preserve"
   inkscape:version="1.2.2 (b0a84865, 2022-12-01)"
   xmlns:inkscape="http://www.inkscape.org/namespaces/inkscape"
   xmlns:sodipodi="http://sodipodi.sourceforge.net/DTD/sodipodi-0.dtd"
   xmlns="http://www.w3.org/2000/svg"
   xmlns:svg="http://www.w3.org/2000/svg"><defs
     id="defs235392" /><sodipodi:namedview
     id="namedview235390"
     pagecolor="#ffffff"
     bordercolor="#000000"
     borderopacity="0.25"
     inkscape:showpageshadow="2"
     inkscape:pageopacity="0.0"
     inkscape:pagecheckerboard="0"
     inkscape:deskcolor="#d1d1d1"
     showgrid="false"
     inkscape:zoom="3.4766083"
     inkscape:cx="9.0605548"
     inkscape:cy="14.957106"
     inkscape:window-width="1246"
     inkscape:window-height="417"
     inkscape:window-x="0"
     inkscape:window-y="25"
     inkscape:window-maximized="0"
     inkscape:current-layer="svg235388" /><rect
     x="0"
     width="48"
     height="48"
     rx="7.6799998"
     fill="#F365B1"
     id="rect235380"
     style="fill:#f46f65;fill-opacity:1"
     y="0" /><g
     id="path235523"
     transform="translate(-0.160156,-0.28763666)"><path
       style="color:#000000;fill:#000000;stroke-width:1.529;-inkscape-stroke:none"
       d="m 13.135466,35.249884 c -0.06329,-0.0334 -0.14682,-0.115711 -0.195799,-0.192943 -0.08422,-0.132795 -0.08541,-0.140467 -0.08483,-0.542376 0.0016,-1.071892 0.217173,-2.304935 0.597707,-3.418246 0.545581,-1.596178 1.416332,-3.007424 2.605749,-4.223196 1.108071,-1.132623 2.249672,-1.91869 3.688885,-2.540036 l 0.322767,-0.139347 -0.427029,-0.424292 c -0.573148,-0.569473 -0.90206,-1.011079 -1.228543,-1.649484 -0.489309,-0.956789 -0.715901,-1.898692 -0.715901,-2.975869 0,-1.022533 0.203285,-1.902686 0.651029,-2.81872 0.658208,-1.346618 1.690474,-2.369238 3.04741,-3.01893 0.459103,-0.219817 0.698501,-0.306956 1.189301,-0.432898 0.587984,-0.15088 1.047737,-0.198288 1.753229,-0.180789 0.632441,0.01569 0.907303,0.05255 1.473575,0.197596 2.195786,0.56245 4.007872,2.35502 4.60136,4.551804 0.170919,0.632654 0.205126,0.914675 0.205821,1.696932 5.59e-4,0.628553 -0.0081,0.773498 -0.06492,1.087776 -0.255193,1.411441 -0.849501,2.539646 -1.868165,3.54644 -0.347686,0.343635 -0.422858,0.431657 -0.380819,0.44592 0.111973,0.03799 0.731203,0.313967 0.951607,0.424114 0.752163,0.375886 1.503413,0.875325 2.248072,1.494541 0.31411,0.261196 1.032357,0.986258 1.335526,1.348199 1.647774,1.967205 2.614836,4.51224 2.622146,6.900737 l 0.0019,0.599004 -0.08775,0.108618 c -0.167077,0.20682 -0.207879,0.216252 -0.935239,0.216252 -0.714967,0 -0.767158,-0.01008 -0.925978,-0.177838 -0.181235,-0.191497 -0.204507,-0.414941 -0.068,-0.652938 0.123454,-0.215243 0.2526,-0.271504 0.623262,-0.271504 h 0.284903 l -0.01976,-0.253813 c -0.04131,-0.530924 -0.220374,-1.56064 -0.336697,-1.936243 -0.140465,-0.453551 -0.228043,-0.710972 -0.325667,-0.957243 -0.942102,-2.376608 -2.680809,-4.286028 -4.929416,-5.413404 -0.60127,-0.301458 -1.094334,-0.494748 -1.798823,-0.705174 -0.285169,-0.08518 -0.398408,-0.16576 -0.485367,-0.345395 -0.07871,-0.162582 -0.07574,-0.289315 0.01114,-0.475912 0.05484,-0.11778 0.101843,-0.170214 0.208047,-0.232058 1.025149,-0.596969 1.72248,-1.304564 2.237026,-2.269954 0.443952,-0.832942 0.663369,-1.902638 0.58631,-2.858355 -0.135828,-1.684606 -1.002628,-3.157157 -2.401057,-4.079004 -1.455867,-0.95971 -3.297623,-1.148346 -4.907952,-0.502683 -0.429117,0.172055 -0.612557,0.269382 -1.005081,0.533261 -2.468854,1.659713 -3.116071,4.966569 -1.455432,7.436295 0.454502,0.675941 0.998613,1.182603 1.760464,1.639296 0.304829,0.182732 0.398981,0.29443 0.428265,0.508078 0.04126,0.301049 -0.134689,0.52807 -0.489599,0.631703 -0.419205,0.122407 -0.59452,0.182143 -0.993406,0.338491 -1.943429,0.761743 -3.609164,2.108692 -4.762827,3.851321 -0.7793,1.177148 -1.299869,2.463618 -1.543523,3.81447 -0.06401,0.354901 -0.14779,1.02485 -0.14779,1.181871 v 0.09446 h 0.280915 c 0.223248,0 0.30595,0.01206 0.402866,0.05904 0.315188,0.15258 0.403111,0.613726 0.163275,0.856361 -0.18333,0.185467 -0.189815,0.186776 -0.919575,0.185494 -0.610748,-0.0011 -0.676503,-0.0061 -0.777545,-0.05943 z"
       id="path235890" /><path
       style="color:#000000;fill:#ffffff;-inkscape-stroke:none"
       d="m 24.359375,11.927734 c -0.747939,-0.01855 -1.319319,0.03993 -1.962891,0.205079 -0.51506,0.132167 -0.848588,0.253839 -1.330078,0.484375 -1.502552,0.719412 -2.674663,1.8803 -3.404297,3.373046 -0.492495,1.00759 -0.728515,2.030441 -0.728515,3.154297 0,1.184388 0.262426,2.271527 0.800781,3.324219 0.298808,0.584289 0.689039,1.051322 1.148437,1.546875 -1.239448,0.614136 -2.369475,1.298454 -3.371093,2.322266 -1.265796,1.293843 -2.201709,2.810471 -2.783203,4.511718 -0.40783,1.193168 -0.636921,2.490546 -0.638672,3.664063 -2.91e-4,0.201716 -0.009,0.308093 0.01953,0.490234 0.02848,0.182142 0.140743,0.392245 0.185547,0.462891 0.127947,0.201752 0.208123,0.313198 0.484375,0.458984 l 0.166016,0.08789 h 0.158203 c 0.06465,0.01492 0.116414,0.04264 0.171875,0.04687 0.160035,0.01223 0.329308,0.01312 0.636718,0.01367 0.365341,6.42e-4 0.546698,0.01534 0.816407,-0.03906 0.269708,-0.05441 0.554236,-0.277748 0.648437,-0.373047 0.645963,-0.653501 0.433751,-1.690521 -0.375,-2.082031 -0.05152,-0.02497 -0.125965,-0.01771 -0.185547,-0.03516 0.0236,-0.17443 0.04933,-0.360225 0.07031,-0.476563 0.224939,-1.247095 0.703456,-2.43526 1.427734,-3.529297 1.066777,-1.611385 2.607765,-2.856381 4.404297,-3.560546 0.389625,-0.152718 0.517718,-0.196683 0.927734,-0.316407 0.289005,-0.08439 0.577223,-0.239525 0.785157,-0.507812 0.207934,-0.268287 0.292037,-0.641916 0.248046,-0.962891 -0.02718,-0.198275 -0.124449,-0.465957 -0.283203,-0.654297 -0.158753,-0.188339 -0.328204,-0.295458 -0.509765,-0.404297 -0.685663,-0.411021 -1.122018,-0.821874 -1.517578,-1.410156 -1.432995,-2.13117 -0.8839,-4.943089 1.246093,-6.375 0.373233,-0.25091 0.456746,-0.295983 0.863282,-0.458984 1.3757,-0.551588 2.956192,-0.390339 4.203125,0.431641 1.207278,0.79584 1.94279,2.041483 2.060546,3.501953 0.06404,0.794286 -0.134656,1.752043 -0.5,2.4375 -0.452626,0.849217 -1.018855,1.428114 -1.947265,1.96875 -0.183824,0.107043 -0.426877,0.379707 -0.515625,0.570312 -0.139975,0.300631 -0.155752,0.821243 -0.0059,1.130859 0.08065,0.166607 0.228833,0.367625 0.41211,0.498047 0.183277,0.130423 0.36363,0.194479 0.542969,0.248047 0.675203,0.201679 1.105207,0.371161 1.673828,0.65625 2.080584,1.043135 3.687451,2.804264 4.5625,5.011719 0.08809,0.222219 0.166605,0.454533 0.304687,0.900391 0.04771,0.154049 0.14685,0.791895 0.222656,1.296875 -0.04588,0.01425 -0.08255,4.39e-4 -0.130859,0.02148 -0.26261,0.114398 -0.471506,0.354623 -0.576172,0.537109 -0.257912,0.449665 -0.187074,1.175192 0.175781,1.558594 0.102898,0.108689 0.408238,0.327431 0.666016,0.376953 0.257779,0.04952 0.45533,0.03906 0.816406,0.03906 0.366985,0 0.56516,0.01694 0.84961,-0.04883 0.28445,-0.06577 0.580602,-0.328517 0.679687,-0.451172 l 0.257813,-0.31836 -0.002,-0.871093 c -0.0079,-2.593185 -1.039138,-5.285523 -2.800782,-7.388672 -0.362109,-0.432308 -1.025214,-1.105728 -1.433593,-1.445313 -0.783629,-0.651621 -1.582225,-1.185854 -2.394532,-1.591797 -0.02019,-0.01009 -0.05717,-0.02602 -0.08008,-0.03711 0.911553,-1.02258 1.538067,-2.181172 1.78711,-3.558594 0.06172,-0.341392 0.07869,-0.588931 0.07813,-1.224609 -7.15e-4,-0.80438 -0.05328,-1.2334 -0.232422,-1.896485 -0.668367,-2.473947 -2.674304,-4.457548 -5.150391,-5.091796 -0.593717,-0.152076 -0.985951,-0.206367 -1.642578,-0.222657 z m 3.21875,12.228516 c -0.01062,0.06913 -0.03069,0.112848 -0.01172,0.210937 -0.06066,-0.02016 -0.110923,-0.04844 -0.173828,-0.06836 0.06683,-0.04395 0.121012,-0.09709 0.185547,-0.142578 z"
       id="path235892" /></g></svg>
