<?xml version="1.0" encoding="UTF-8" standalone="no"?>
<!-- Created with Inkscape (http://www.inkscape.org/) -->

<svg
   width="506.57346mm"
   height="284.32346mm"
   viewBox="0 0 506.57344 284.32345"
   version="1.1"
   id="svg5"
   xml:space="preserve"
   inkscape:version="1.2.2 (b0a84865, 2022-12-01)"
   sodipodi:docname="bg-intro1.svg"
   xmlns:inkscape="http://www.inkscape.org/namespaces/inkscape"
   xmlns:sodipodi="http://sodipodi.sourceforge.net/DTD/sodipodi-0.dtd"
   xmlns="http://www.w3.org/2000/svg"
   xmlns:svg="http://www.w3.org/2000/svg"><sodipodi:namedview
     id="namedview7"
     pagecolor="#ffffff"
     bordercolor="#000000"
     borderopacity="0.25"
     inkscape:showpageshadow="2"
     inkscape:pageopacity="0.0"
     inkscape:pagecheckerboard="0"
     inkscape:deskcolor="#d1d1d1"
     inkscape:document-units="mm"
     showgrid="false"
     showguides="false"
     inkscape:zoom="0.2973261"
     inkscape:cx="776.92473"
     inkscape:cy="792.05963"
     inkscape:window-width="1432"
     inkscape:window-height="760"
     inkscape:window-x="0"
     inkscape:window-y="25"
     inkscape:window-maximized="0"
     inkscape:current-layer="svg5" /><defs
     id="defs2"><clipPath
       clipPathUnits="userSpaceOnUse"
       id="clipPath13395"><path
         d="M 0,500 H 500 V 0 H 0 Z"
         id="path13393" /></clipPath><clipPath
       clipPathUnits="userSpaceOnUse"
       id="clipPath14079"><path
         d="M 0,500 H 500 V 0 H 0 Z"
         id="path14077" /></clipPath><clipPath
       clipPathUnits="userSpaceOnUse"
       id="clipPath13395-6"><path
         d="M 0,500 H 500 V 0 H 0 Z"
         id="path13393-8" /></clipPath><clipPath
       clipPathUnits="userSpaceOnUse"
       id="clipPath13395-6-3"><path
         d="M 0,500 H 500 V 0 H 0 Z"
         id="path13393-8-0" /></clipPath><clipPath
       clipPathUnits="userSpaceOnUse"
       id="clipPath50453"><path
         d="M 0,500 H 500 V 0 H 0 Z"
         id="path50451" /></clipPath><clipPath
       clipPathUnits="userSpaceOnUse"
       id="clipPath100729"><path
         d="M 0,0 H 750 V 500 H 0 Z"
         id="path100727" /></clipPath><clipPath
       clipPathUnits="userSpaceOnUse"
       id="clipPath100737"><path
         d="M 42.2521,488.446 H 712.454 V -0.919098 H 42.2521 Z"
         id="path100735" /></clipPath><clipPath
       clipPathUnits="userSpaceOnUse"
       id="clipPath100753"><path
         d="M 10,460.124 H 558.315 V -3.6456 H 10 Z"
         id="path100751" /></clipPath><clipPath
       clipPathUnits="userSpaceOnUse"
       id="clipPath100769"><path
         d="M 558.171,457.857 H 815 V 199.414 H 558.171 Z"
         id="path100767" /></clipPath><clipPath
       clipPathUnits="userSpaceOnUse"
       id="clipPath100867"><path
         d="M 0,0 H 750 V 500 H 0 Z"
         id="path100865" /></clipPath><clipPath
       clipPathUnits="userSpaceOnUse"
       id="clipPath100907"><path
         d="M 0,0 H 750 V 500 H 0 Z"
         id="path100905" /></clipPath><clipPath
       clipPathUnits="userSpaceOnUse"
       id="clipPath100953"><path
         d="M 0,0 H 750 V 500 H 0 Z"
         id="path100951" /></clipPath><clipPath
       clipPathUnits="userSpaceOnUse"
       id="clipPath100961"><path
         d="m 508.623,174 h 76.489 v -25.602 h -76.489 z"
         id="path100959" /></clipPath><clipPath
       clipPathUnits="userSpaceOnUse"
       id="clipPath100989"><path
         d="M 0,0 H 750 V 500 H 0 Z"
         id="path100987" /></clipPath><clipPath
       clipPathUnits="userSpaceOnUse"
       id="clipPath101025"><path
         d="M 0,0 H 750 V 500 H 0 Z"
         id="path101023" /></clipPath><clipPath
       clipPathUnits="userSpaceOnUse"
       id="clipPath101199"><path
         d="M 0,0 H 750 V 500 H 0 Z"
         id="path101197" /></clipPath><clipPath
       clipPathUnits="userSpaceOnUse"
       id="clipPath101025-6"><path
         d="M 0,0 H 750 V 500 H 0 Z"
         id="path101023-5" /></clipPath><clipPath
       clipPathUnits="userSpaceOnUse"
       id="clipPath101199-3"><path
         d="M 0,0 H 750 V 500 H 0 Z"
         id="path101197-1" /></clipPath><clipPath
       clipPathUnits="userSpaceOnUse"
       id="clipPath111501"><path
         d="M 0,500 H 500 V 0 H 0 Z"
         id="path111499" /></clipPath><clipPath
       clipPathUnits="userSpaceOnUse"
       id="clipPath111517"><path
         d="M 0,500 H 500 V 0 H 0 Z"
         id="path111515" /></clipPath></defs><rect
     style="fill:#e59ed1;fill-opacity:1;stroke:none;stroke-width:1.42655;stroke-linecap:round;stroke-dasharray:none;stroke-opacity:1;paint-order:stroke markers fill;stop-color:#000000"
     id="rect67808"
     width="506.57346"
     height="284.32346"
     x="0"
     y="0" /><g
     inkscape:label="Layer 1"
     inkscape:groupmode="layer"
     id="layer1"
     transform="translate(357.15345,-517.29415)" /><g
     id="g206"
     transform="matrix(0.35277776,0,0,-0.35277778,382.87411,-326.4651)"
     clip-path="none" /><g
     id="g214"
     transform="matrix(0.35277776,0,0,-0.35277778,376.74544,-456.24238)"
     clip-path="none" /><g
     id="g218"
     transform="matrix(0.35277776,0,0,-0.35277778,386.96774,-464.54194)"
     clip-path="none" /><g
     id="g222"
     transform="matrix(0.35277776,0,0,-0.35277778,548.57887,-343.87179)"
     clip-path="none" /><g
     id="g230"
     transform="matrix(0.35277776,0,0,-0.35277778,548.81967,-349.22446)"
     clip-path="none" /><g
     id="g234"
     transform="matrix(0.35277776,0,0,-0.35277778,546.4157,-450.95121)"
     clip-path="none" /><g
     id="g238"
     transform="matrix(0.35277776,0,0,-0.35277778,546.82221,-445.2942)"
     clip-path="none" /><g
     id="g642"
     transform="matrix(0.35277776,0,0,-0.35277778,493.40291,-437.70447)"
     clip-path="none" /><g
     id="g646"
     transform="matrix(0.35277776,0,0,-0.35277778,493.01983,-433.58382)"
     clip-path="none" /><g
     id="g650"
     transform="matrix(0.35277776,0,0,-0.35277778,501.70144,-434.3002)"
     clip-path="none" /><g
     id="g682"
     transform="matrix(0.35277776,0,0,-0.35277778,503.56869,-434.03841)"
     clip-path="none" /><g
     id="g686"
     transform="matrix(0.35277776,0,0,-0.35277778,503.79264,-433.29838)"
     clip-path="none" /><g
     id="g690"
     transform="matrix(0.35277776,0,0,-0.35277778,491.08989,-433.30562)"
     clip-path="none" /><g
     id="g694"
     transform="matrix(0.35277776,0,0,-0.35277778,491.57633,-432.44297)"
     clip-path="none" /><g
     id="g1154"
     transform="matrix(0.35277776,0,0,-0.35277778,431.02876,-435.81986)"
     clip-path="none" /><g
     id="g1158"
     transform="matrix(0.35277776,0,0,-0.35277778,440.12726,-435.54424)"
     clip-path="none" /><g
     id="g1178"
     transform="matrix(0.35277776,0,0,-0.35277778,430.6381,-441.97933)"
     clip-path="none" /><g
     id="g1182"
     transform="matrix(0.35277776,0,0,-0.35277778,440.56237,-441.77796)"
     clip-path="none" /><g
     id="g1190"
     transform="matrix(0.35277776,0,0,-0.35277778,429.10694,-437.01444)"
     clip-path="none" /><g
     id="g1194"
     transform="matrix(0.35277776,0,0,-0.35277778,429.25352,-435.95833)"
     clip-path="none" /><g
     id="g1198"
     transform="matrix(0.35277776,0,0,-0.35277778,442.77535,-436.70505)"
     clip-path="none" /><g
     id="g1202"
     transform="matrix(0.35277776,0,0,-0.35277778,442.71816,-435.88615)"
     clip-path="none" /><g
     id="g1522"
     transform="matrix(0.35277776,0,0,-0.35277778,465.6575,-446.56216)"
     clip-path="none" /><g
     id="g1526"
     transform="matrix(0.35277776,0,0,-0.35277778,474.75635,-440.6852)"
     clip-path="none" /><g
     id="g13389"
     transform="matrix(0.35277776,0,0,-0.35277776,569.07774,-293.32926)" /><g
     id="g101019"
     transform="matrix(0.35277777,0,0,-0.35277778,516.57346,176.3889)" /><g
     id="g111511"
     transform="matrix(0.35277777,0,0,-0.35277778,516.57346,176.3889)"><g
       id="g111513"
       clip-path="url(#clipPath111517)" /></g><g
     id="g115655"
     transform="matrix(0.69935318,0,0,-0.69935318,243.95037,140.2528)" /><g
     id="g115659"
     transform="matrix(0.69935318,0,0,-0.69935318,264.56492,138.9067)" /><g
     id="g115699"
     transform="matrix(0.69935318,0,0,-0.69935318,245.75988,146.30179)" /><g
     id="g115703"
     transform="matrix(0.69935318,0,0,-0.69935318,260.26839,147.06471)" /><g
     id="g115755"
     transform="matrix(0.69935318,0,0,-0.69935318,264.56492,138.9067)" /><g
     id="g115767"
     transform="matrix(0.69935318,0,0,-0.69935318,244.87715,144.54725)" /></svg>
