<?xml version="1.0" encoding="UTF-8" standalone="no"?>
<svg
   width="670.13"
   height="465.219"
   viewBox="0 0 670.13 465.219"
   version="1.1"
   id="svg202"
   sodipodi:docname="tandatanya.svg"
   inkscape:version="1.2.2 (b0a84865, 2022-12-01)"
   xmlns:inkscape="http://www.inkscape.org/namespaces/inkscape"
   xmlns:sodipodi="http://sodipodi.sourceforge.net/DTD/sodipodi-0.dtd"
   xmlns="http://www.w3.org/2000/svg"
   xmlns:svg="http://www.w3.org/2000/svg">
  <sodipodi:namedview
     id="namedview204"
     pagecolor="#ffffff"
     bordercolor="#000000"
     borderopacity="0.25"
     inkscape:showpageshadow="2"
     inkscape:pageopacity="0.0"
     inkscape:pagecheckerboard="0"
     inkscape:deskcolor="#d1d1d1"
     showgrid="false"
     inkscape:zoom="0.71741353"
     inkscape:cx="218.8417"
     inkscape:cy="241.14404"
     inkscape:window-width="1246"
     inkscape:window-height="417"
     inkscape:window-x="0"
     inkscape:window-y="25"
     inkscape:window-maximized="0"
     inkscape:current-layer="text485" />
  <defs
     id="defs184">
    <style
       id="style182">.a{fill:#fff;}</style>
  </defs>
  <g
     transform="translate(-1073.616 1038.462)"
     id="g200">
    <path
       d="m 1321.3499,-698.6284 c 79.6316,-77.52056 40.2807,-160.44351 -83.2663,-169.45656 -45.0505,-3.28664 -102.7589,9.45484 -120.0675,54.8829 -4.0555,13.85328 -3.7837,28.52197 -4.6897,42.82782 -0.302,11.68792 -0.6519,23.57516 1.6394,35.09871 -3.1287,3.73189 -47.8859,34.49688 -40.5364,35.0038 q 24.9717,0.69849 49.9408,1.39569 c 2.5976,0.11432 5.2182,-0.35723 6.9387,1.9574 41.9714,36.89995 146.0341,41.13144 190.041,-1.70976 z m -191.9147,0 c 0.06,0.0237 0.06,0.0281 0,0 z"
       id="path186"
       style="stroke-width:0.431432" />
    <g
       aria-label="SCROLL
LAGI"
       id="text485"
       style="font-style:italic;font-weight:bold;font-size:62.4836px;line-height:1;font-family:'Comic Neue';-inkscape-font-specification:'Comic Neue Bold Italic';text-align:center;text-anchor:middle;fill:#ffffff;stroke-width:3.51469;paint-order:stroke markers fill;stop-color:#000000"
       transform="matrix(0.72727031,0,0,0.72727031,292.80681,-182.1461)">
      <g
         aria-label="Lanjut scroll
agar tak
salah paham"
         id="text3692"
         style="font-size:51.6492px;stroke-width:2.90525;stop-color:#000000"
         transform="matrix(0.86171679,0,0,0.86171679,178.62627,-111.5301)">
        <path
           d="m 1159.598,-845.1417 q -1.1363,0.0516 -1.7561,-0.72309 -0.6198,-0.77474 -0.4132,-1.80772 l 6.4045,-30.16314 q 0.2066,-1.03298 1.1363,-1.75607 0.9297,-0.77474 1.9627,-0.77474 1.0846,0 1.6527,0.77474 0.5682,0.77474 0.3616,1.75607 l -5.8364,27.42573 14.0486,-0.92969 q 1.1363,-0.0516 1.7044,0.46484 0.5682,0.5165 0.5682,1.44618 0,1.18793 -0.9297,2.11762 -0.9297,0.92969 -2.0143,1.03298 z"
           id="path3702" />
        <path
           d="m 1190.794,-845.1417 q -3.6154,0 -5.7847,-2.22092 -2.1176,-2.22092 -2.1176,-5.99131 0,-4.13193 2.2209,-8.21222 2.2726,-4.13194 5.9397,-6.7144 3.6671,-2.6341 7.6441,-2.6341 2.3758,0 4.1835,0.67143 1.8594,0.6198 3.6155,1.54948 l -4.5451,21.48607 q -0.2583,1.18793 -1.0847,1.85937 -0.8264,0.72309 -1.911,0.72309 -0.878,0 -1.4462,-0.51649 -0.5165,-0.46485 -0.5165,-1.29123 0,-0.36155 0.052,-0.56815 l 0.1549,-0.72308 q -1.4978,1.29123 -3.2022,1.96267 -1.6528,0.61979 -3.2023,0.61979 z m 1.2396,-4.75173 q 1.6011,0 3.099,-0.61979 1.5494,-0.67144 2.789,-1.54948 l 2.9957,-13.48044 q -1.3946,-0.61979 -3.099,-0.61979 -2.4275,0 -4.7001,1.85937 -2.2725,1.85937 -3.7187,4.64843 -1.4462,2.78906 -1.4462,5.42317 0,2.32421 1.033,3.35719 1.033,0.98134 3.0473,0.98134 z"
           id="path3704" />
        <path
           d="m 1211.1438,-845.1417 q -0.9813,0 -1.6011,-0.72309 -0.5682,-0.72309 -0.3616,-1.65278 l 4.4418,-20.96957 q 0.2066,-1.03299 1.1363,-1.75608 0.9297,-0.72308 1.9627,-0.72308 0.8264,0 1.3429,0.56814 0.5681,0.51649 0.5681,1.34288 0,0.36154 -0.052,0.56814 l -0.8264,3.92534 q 2.1176,-3.09896 4.6484,-4.70008 2.5825,-1.65277 5.2166,-1.65277 2.9956,0 4.3902,1.49782 1.4461,1.44618 1.4461,4.90668 0,3.20225 -1.0329,7.85067 l -1.9627,9.03861 q -0.2066,0.98134 -1.033,1.75608 -0.8264,0.72309 -1.8594,0.72309 -0.9813,0 -1.6011,-0.72309 -0.5681,-0.77474 -0.3615,-1.70443 l 1.8077,-8.57376 q 0.9813,-4.59678 0.9813,-6.86935 0,-1.75607 -0.5681,-2.42751 -0.5682,-0.67144 -1.7044,-0.67144 -1.5495,0 -3.4089,1.34288 -1.8077,1.29123 -3.6671,3.71874 -1.6011,2.11762 -2.5308,4.13194 -0.878,2.01432 -1.4978,4.85502 l -0.9297,4.33854 q -0.2066,1.13628 -1.033,1.85937 -0.7747,0.72309 -1.911,0.72309 z"
           id="path3706" />
        <path
           d="m 1247.2465,-873.49711 q -0.7747,0 -1.3428,-0.5165 -0.5682,-0.51649 -0.5682,-1.34288 0,-0.20659 0.1033,-0.72308 l 0.6715,-2.22092 q 0.2582,-0.87804 1.0846,-1.44618 0.8264,-0.61979 1.8077,-0.61979 0.9813,0 1.4978,0.56814 0.5165,0.56814 0.5165,1.39453 0,0.25825 -0.1033,0.67144 l -0.6714,2.22092 q -0.2583,0.87803 -1.1363,1.44617 -0.8264,0.56815 -1.8594,0.56815 z m -11.8793,36.82587 q -1.8593,0 -3.3572,-1.08463 -1.5494,-1.08463 -2.4275,-2.89235 -0.878,-1.80773 -0.878,-3.82204 0,-1.29123 0.878,-2.11762 0.8781,-0.87804 2.066,-0.87804 1.8594,0 2.0143,1.75607 0.1549,1.80773 0.8264,3.04731 0.6198,1.29123 1.7561,1.29123 1.0329,0 1.6527,-1.13628 0.6715,-1.13629 1.1363,-3.4605 l 4.5451,-22.51905 q 0.2583,-1.08464 1.0847,-1.80772 0.8264,-0.72309 1.911,-0.72309 0.9297,0 1.5495,0.82638 0.6714,0.77474 0.4648,1.65278 l -4.5968,22.31245 q -0.9296,4.54513 -3.2022,7.02429 -2.2209,2.53081 -5.4232,2.53081 z"
           id="path3708" />
        <path
           d="m 1258.1961,-844.98676 q -2.8407,0 -4.2869,-1.44617 -1.3945,-1.44618 -1.3945,-4.85503 0,-3.20225 1.033,-8.10892 1.0846,-4.95833 2.4275,-8.93531 0.878,-2.63411 2.9956,-2.63411 0.9814,0 1.4978,0.46484 0.5165,0.46484 0.5165,1.29123 0,0.25824 -0.2066,1.08463 -1.3428,4.33853 -2.3242,8.26387 -0.9297,3.87369 -0.9297,6.8177 0,1.75607 0.5165,2.58246 0.5165,0.82639 1.6528,0.82639 1.8077,0 3.7188,-0.82639 1.911,-0.87804 2.789,-1.54948 0.6714,-0.46484 0.9297,-0.82638 0.2582,-0.4132 0.3615,-1.03299 l 3.2539,-14.72002 q 0.2066,-1.03298 1.033,-1.70442 0.8781,-0.67144 1.911,-0.67144 1.033,0 1.6012,0.72308 0.5681,0.67144 0.3615,1.65278 l -4.4418,20.96957 q -0.2066,1.03299 -1.1363,1.75608 -0.878,0.72309 -1.8594,0.72309 -0.9297,0 -1.5494,-0.56815 -0.6198,-0.61979 -0.5682,-1.44617 l 0.052,-0.82639 q -1.2396,1.29123 -3.4089,2.16927 -2.1176,0.82638 -4.5451,0.82638 z"
           id="path3710" />
        <path
           d="m 1282.9876,-845.09005 q -0.9813,0 -1.6011,-0.72309 -0.5682,-0.72309 -0.3616,-1.70443 l 3.9254,-18.64536 h -4.3386 q -0.9296,0 -1.4978,-0.56814 -0.5165,-0.56814 -0.5165,-1.39453 0,-1.08463 0.9814,-1.91102 0.9813,-0.82639 2.2209,-0.82639 h 4.2352 l 1.1879,-5.62976 q 0.2066,-0.98133 1.0847,-1.75607 0.9297,-0.77474 1.911,-0.77474 0.9297,0 1.4462,0.61979 0.5681,0.56814 0.5681,1.39453 0,0.36154 -0.052,0.51649 l -1.188,5.62976 h 4.3902 q 0.8781,0 1.3945,0.5165 0.5682,0.51649 0.5682,1.34288 0,1.13628 -0.9814,2.01431 -0.9296,0.82639 -2.0659,0.82639 h -4.3902 l -3.9253,18.64536 q -0.2066,1.03299 -1.1363,1.75608 -0.8781,0.67144 -1.8594,0.67144 z"
           id="path3712" />
        <path
           d="m 1321.6211,-845.1417 q -2.5308,0 -4.4935,-0.98134 -1.9626,-1.03298 -3.0473,-2.58246 -1.033,-1.54947 -1.033,-3.09895 0,-1.13628 0.9297,-2.01432 0.9297,-0.92969 2.066,-0.92969 0.878,0 1.3429,0.46485 0.4648,0.46484 0.5681,1.23958 0.155,1.60112 1.2912,2.53081 1.188,0.92968 3.2023,0.92968 2.066,0 3.4605,-1.08463 1.4462,-1.08463 1.4462,-2.42751 0,-1.08463 -0.8781,-1.70442 -0.878,-0.67144 -3.2539,-1.44618 -3.4088,-1.13628 -4.9583,-2.68576 -1.5495,-1.54948 -1.5495,-3.87369 0,-2.32421 1.4462,-4.18359 1.4462,-1.85937 3.822,-2.89235 2.3759,-1.03298 5.165,-1.03298 3.822,0 5.733,1.39452 1.9627,1.34288 1.9627,3.92534 0,2.01432 -0.9813,3.2539 -0.9814,1.18793 -2.4276,1.18793 -0.9296,0 -1.4978,-0.51649 -0.5165,-0.51649 -0.5165,-1.34288 0,-0.36154 0.3099,-0.92968 0.3099,-0.56814 0.3099,-0.98134 0,-1.65277 -3.6154,-1.65277 -2.3759,0 -3.6155,0.82639 -1.1879,0.77473 -1.1879,1.96266 0,1.03299 0.878,1.70443 0.9297,0.67144 3.6155,1.60112 3.3572,1.13629 4.8034,2.47917 1.4461,1.34287 1.4461,3.71874 0,2.37586 -1.4978,4.49348 -1.4462,2.11762 -3.9253,3.40885 -2.4792,1.23958 -5.3199,1.23958 z"
           id="path3714" />
        <path
           d="m 1345.9478,-845.1417 q -2.6857,0 -4.9066,-1.13629 -2.221,-1.13628 -3.5122,-3.1506 -1.2396,-2.06597 -1.2396,-4.70007 0,-3.71875 2.2726,-7.64409 2.3242,-3.97698 5.8364,-6.55944 3.5638,-2.63411 6.9726,-2.63411 4.3385,0 6.5078,2.89235 0.8264,1.13628 0.8264,1.96267 0,1.13628 -0.9297,2.06597 -0.9297,0.87804 -2.1176,0.87804 -1.033,0 -1.4978,-0.6198 -0.8264,-1.29123 -1.6528,-1.85937 -0.8264,-0.61979 -2.1693,-0.61979 -1.911,0 -4.0803,1.85937 -2.1176,1.85938 -3.5638,4.54513 -1.4461,2.63411 -1.4461,4.85503 0,2.32421 1.5494,3.77039 1.5495,1.44618 3.5122,1.44618 2.0143,0 3.5121,-0.77474 1.4978,-0.77474 2.8407,-2.16927 0.5682,-0.56814 1.1363,-0.92968 0.5682,-0.36155 1.3429,-0.36155 0.8264,0 1.3945,0.56814 0.5682,0.5165 0.5682,1.34288 0,0.61979 -0.3099,1.18794 -0.3099,0.56814 -0.6715,0.92968 -1.911,2.01432 -4.7001,3.4605 -2.789,1.39453 -5.4748,1.39453 z"
           id="path3716" />
        <path
           d="m 1377.6087,-871.01795 q 1.911,0 2.9957,0.92968 1.0846,0.92969 1.0846,2.27257 0,0.61979 -0.2066,1.65277 -0.1549,1.03299 -0.3615,1.75607 -0.2583,0.92969 -1.0847,1.60113 -0.7747,0.67144 -1.8077,0.67144 -0.9297,0 -1.4462,-0.46484 -0.5165,-0.46485 -0.5165,-1.18794 0,-0.36154 0.155,-0.92968 0.2066,-0.56814 0.2066,-0.77474 0,-0.61979 -0.7747,-0.61979 -1.0847,0 -2.7891,1.08463 -1.6528,1.08464 -2.8407,2.32422 -1.7044,1.70442 -2.2726,4.64843 l -2.3242,10.53643 q -0.2066,0.92969 -1.1363,1.65278 -0.878,0.72309 -1.8077,0.72309 -0.9813,0 -1.6528,-0.72309 -0.6198,-0.77474 -0.4132,-1.65278 l 4.4419,-20.91792 q 0.2066,-1.03299 1.1363,-1.75608 0.9296,-0.72308 1.9626,-0.72308 1.1363,0 1.6011,0.67143 0.5165,0.67144 0.3616,1.60113 l -0.2583,1.39453 q 1.6012,-1.80772 3.6155,-2.78906 2.066,-0.98133 4.1319,-0.98133 z"
           id="path3718" />
        <path
           d="m 1388.3517,-845.1417 q -3.822,0 -6.1462,-2.53081 -2.2726,-2.58246 -2.2726,-6.6111 0,-3.92534 2.2209,-7.79903 2.2209,-3.92534 5.7847,-6.4045 3.5638,-2.47916 7.3342,-2.47916 2.5308,0 4.4419,1.23958 1.911,1.18793 2.944,3.30555 1.0329,2.06596 1.0329,4.64842 0,3.92534 -2.2209,7.79903 -2.2209,3.87369 -5.7847,6.35285 -3.5638,2.47917 -7.3342,2.47917 z m 0.9297,-4.59678 q 2.2209,0 4.3385,-1.65278 2.1177,-1.70442 3.4605,-4.28688 1.3429,-2.58246 1.3429,-5.06162 0,-2.42751 -1.1879,-4.02864 -1.1879,-1.60113 -3.1506,-1.60113 -2.2209,0 -4.3385,1.75608 -2.1177,1.75607 -3.4605,4.44183 -1.2913,2.63411 -1.2913,5.16492 0,2.32421 1.1363,3.82204 1.1363,1.44618 3.1506,1.44618 z"
           id="path3720" />
        <path
           d="m 1408.5982,-845.1417 q -1.033,0 -1.6528,-0.77474 -0.5682,-0.77474 -0.4132,-1.54948 l 6.4045,-29.95653 q 0.2582,-1.03299 1.0846,-1.70443 0.8264,-0.72309 1.911,-0.72309 1.033,0 1.6012,0.77474 0.5681,0.77474 0.3615,1.65278 l -6.3528,29.95653 q -0.2066,0.92969 -1.1363,1.65278 -0.9297,0.67144 -1.8077,0.67144 z"
           id="path3722" />
        <path
           d="m 1420.839,-845.1417 q -1.033,0 -1.6528,-0.77474 -0.5681,-0.77474 -0.4132,-1.54948 l 6.4045,-29.95653 q 0.2583,-1.03299 1.0846,-1.70443 0.8264,-0.72309 1.9111,-0.72309 1.033,0 1.6011,0.77474 0.5681,0.77474 0.3615,1.65278 l -6.3528,29.95653 q -0.2066,0.92969 -1.1363,1.65278 -0.9297,0.67144 -1.8077,0.67144 z"
           id="path3724" />
        <path
           d="m 1208.458,-793.4925 q -3.6154,0 -5.7847,-2.22092 -2.1176,-2.22091 -2.1176,-5.99131 0,-4.13193 2.2209,-8.21222 2.2726,-4.13194 5.9397,-6.7144 3.667,-2.6341 7.644,-2.6341 2.3759,0 4.1836,0.67144 1.8594,0.61979 3.6155,1.54947 l -4.5452,21.48607 q -0.2582,1.18793 -1.0846,1.85937 -0.8264,0.72309 -1.911,0.72309 -0.8781,0 -1.4462,-0.51649 -0.5165,-0.46485 -0.5165,-1.29123 0,-0.36155 0.052,-0.56814 l 0.1549,-0.72309 q -1.4978,1.29123 -3.2022,1.96267 -1.6528,0.61979 -3.2023,0.61979 z m 1.2396,-4.75173 q 1.6011,0 3.0989,-0.61979 1.5495,-0.67144 2.7891,-1.54948 l 2.9957,-13.48044 q -1.3946,-0.61979 -3.099,-0.61979 -2.4275,0 -4.7001,1.85937 -2.2725,1.85937 -3.7187,4.64843 -1.4462,2.78906 -1.4462,5.42317 0,2.32421 1.033,3.3572 1.033,0.98133 3.0473,0.98133 z"
           id="path3726" />
        <path
           d="m 1232.8881,-784.81544 q -3.0473,0 -5.9397,-0.72309 -0.6714,-0.15494 -1.0846,-0.67144 -0.3616,-0.51649 -0.3616,-1.23958 0,-1.13628 0.9297,-2.06597 0.9813,-0.92968 2.1176,-0.92968 0.7231,0 1.911,0.25825 1.8594,0.41319 3.4089,0.41319 2.7374,0 4.4418,-1.34288 1.7044,-1.34288 2.5308,-4.18359 l 0.3099,-1.03298 q -2.8923,2.37586 -5.9396,2.37586 -3.6671,0 -5.9913,-2.32421 -2.2726,-2.37586 -2.2726,-6.5078 0,-4.08029 2.2209,-7.90233 2.2726,-3.87369 5.8364,-6.24955 3.6154,-2.37586 7.4375,-2.37586 2.1176,0 4.0802,1.08463 0.3616,-0.72309 0.9814,-1.13628 0.6714,-0.46485 1.3945,-0.46485 1.1363,0 1.6528,0.46485 0.5681,0.41319 0.5681,1.29123 0,0.61979 -0.1033,0.98133 l -5.0616,21.58937 q -1.2396,5.26822 -4.7517,7.95397 -3.4605,2.73741 -8.3155,2.73741 z m 2.9956,-13.99693 q 2.7891,0 4.855,-2.11762 2.1176,-2.16926 2.9957,-6.24955 l 1.3429,-6.24955 q -0.6198,-0.4132 -1.6012,-0.67144 -0.9813,-0.25825 -1.911,-0.25825 -2.3758,0 -4.7001,1.44618 -2.2725,1.44617 -3.7187,3.87369 -1.3945,2.42751 -1.3945,5.21657 0,2.37586 1.0846,3.71874 1.0846,1.29123 3.0473,1.29123 z"
           id="path3728" />
        <path
           d="m 1261.3983,-793.4925 q -3.6154,0 -5.7847,-2.22092 -2.1176,-2.22091 -2.1176,-5.99131 0,-4.13193 2.2209,-8.21222 2.2726,-4.13194 5.9397,-6.7144 3.6671,-2.6341 7.6441,-2.6341 2.3758,0 4.1835,0.67144 1.8594,0.61979 3.6155,1.54947 l -4.5451,21.48607 q -0.2583,1.18793 -1.0847,1.85937 -0.8264,0.72309 -1.911,0.72309 -0.878,0 -1.4462,-0.51649 -0.5165,-0.46485 -0.5165,-1.29123 0,-0.36155 0.052,-0.56814 l 0.1549,-0.72309 q -1.4978,1.29123 -3.2022,1.96267 -1.6528,0.61979 -3.2023,0.61979 z m 1.2396,-4.75173 q 1.6011,0 3.099,-0.61979 1.5494,-0.67144 2.789,-1.54948 l 2.9957,-13.48044 q -1.3946,-0.61979 -3.099,-0.61979 -2.4275,0 -4.7001,1.85937 -2.2725,1.85937 -3.7187,4.64843 -1.4462,2.78906 -1.4462,5.42317 0,2.32421 1.033,3.3572 1.033,0.98133 3.0473,0.98133 z"
           id="path3730" />
        <path
           d="m 1296.778,-819.36875 q 1.911,0 2.9957,0.92968 1.0846,0.92969 1.0846,2.27257 0,0.61979 -0.2066,1.65277 -0.155,1.03299 -0.3616,1.75607 -0.2582,0.92969 -1.0846,1.60113 -0.7747,0.67144 -1.8077,0.67144 -0.9297,0 -1.4462,-0.46484 -0.5165,-0.46485 -0.5165,-1.18793 0,-0.36155 0.155,-0.92969 0.2066,-0.56814 0.2066,-0.77474 0,-0.61979 -0.7748,-0.61979 -1.0846,0 -2.789,1.08463 -1.6528,1.08464 -2.8407,2.32422 -1.7045,1.70442 -2.2726,4.64843 l -2.3242,10.53643 q -0.2066,0.92969 -1.1363,1.65278 -0.878,0.72309 -1.8077,0.72309 -0.9814,0 -1.6528,-0.72309 -0.6198,-0.77474 -0.4132,-1.65278 l 4.4418,-20.91792 q 0.2066,-1.03299 1.1363,-1.75608 0.9297,-0.72308 1.9627,-0.72308 1.1363,0 1.6011,0.67144 0.5165,0.67143 0.3616,1.60112 l -0.2583,1.39453 q 1.6011,-1.80772 3.6155,-2.78906 2.0659,-0.98133 4.1319,-0.98133 z"
           id="path3732" />
        <path
           d="m 1323.5322,-793.44085 q -0.9813,0 -1.6011,-0.72309 -0.5681,-0.72309 -0.3615,-1.70443 l 3.9253,-18.64536 h -4.3385 q -0.9297,0 -1.4979,-0.56814 -0.5165,-0.56814 -0.5165,-1.39453 0,-1.08463 0.9814,-1.91102 0.9813,-0.82639 2.2209,-0.82639 h 4.2352 l 1.188,-5.62976 q 0.2066,-0.98133 1.0846,-1.75607 0.9297,-0.77474 1.911,-0.77474 0.9297,0 1.4462,0.61979 0.5681,0.56814 0.5681,1.39453 0,0.36154 -0.052,0.51649 l -1.188,5.62976 h 4.3902 q 0.8781,0 1.3946,0.5165 0.5681,0.51649 0.5681,1.34288 0,1.13628 -0.9813,2.01431 -0.9297,0.82639 -2.066,0.82639 h -4.3902 l -3.9253,18.64536 q -0.2066,1.03299 -1.1363,1.75608 -0.878,0.67144 -1.8594,0.67144 z"
           id="path3734" />
        <path
           d="m 1344.2951,-793.4925 q -3.6155,0 -5.7847,-2.22092 -2.1177,-2.22091 -2.1177,-5.99131 0,-4.13193 2.221,-8.21222 2.2725,-4.13194 5.9396,-6.7144 3.6671,-2.6341 7.6441,-2.6341 2.3759,0 4.1836,0.67144 1.8594,0.61979 3.6154,1.54947 l -4.5451,21.48607 q -0.2582,1.18793 -1.0846,1.85937 -0.8264,0.72309 -1.911,0.72309 -0.8781,0 -1.4462,-0.51649 -0.5165,-0.46485 -0.5165,-1.29123 0,-0.36155 0.052,-0.56814 l 0.155,-0.72309 q -1.4978,1.29123 -3.2023,1.96267 -1.6527,0.61979 -3.2022,0.61979 z m 1.2396,-4.75173 q 1.6011,0 3.0989,-0.61979 1.5495,-0.67144 2.7891,-1.54948 l 2.9956,-13.48044 q -1.3945,-0.61979 -3.0989,-0.61979 -2.4275,0 -4.7001,1.85937 -2.2726,1.85937 -3.7188,4.64843 -1.4461,2.78906 -1.4461,5.42317 0,2.32421 1.033,3.3572 1.0329,0.98133 3.0473,0.98133 z"
           id="path3736" />
        <path
           d="m 1364.4899,-793.4925 q -0.9814,0 -1.6012,-0.77474 -0.5681,-0.77474 -0.3615,-1.70443 l 6.1979,-29.80158 q 0.2066,-0.98134 1.1363,-1.70443 0.9297,-0.72309 1.911,-0.72309 0.9297,0 1.4462,0.61979 0.5681,0.56815 0.5681,1.39453 0,0.36155 -0.052,0.51649 l -3.5122,16.73435 q 2.5308,-1.80773 6.043,-4.80338 3.5638,-2.99565 6.0946,-5.37152 1.033,-1.03298 2.2209,-1.03298 0.878,0 1.3945,0.51649 0.5682,0.51649 0.5682,1.29123 0,1.18793 -1.2396,2.42751 -1.6011,1.60113 -4.0803,3.7704 -2.4275,2.11761 -4.3385,3.61544 l 6.1462,10.43314 q 0.5165,0.87803 0.5165,1.54947 0,1.13629 -0.9813,2.01432 -0.9297,0.87804 -2.1176,0.87804 -1.2913,0 -1.9111,-1.18793 -3.4088,-6.24956 -5.9913,-10.69139 -0.3615,0.25825 -3.4088,2.06597 l -1.6011,7.48913 q -0.2066,0.98134 -1.1363,1.75608 -0.8781,0.72309 -1.911,0.72309 z"
           id="path3738" />
        <path
           d="m 1161.7155,-741.8433 q -2.5308,0 -4.4935,-0.98134 -1.9627,-1.03298 -3.0473,-2.58246 -1.033,-1.54947 -1.033,-3.09895 0,-1.13628 0.9297,-2.01432 0.9297,-0.92968 2.066,-0.92968 0.878,0 1.3428,0.46484 0.4649,0.46484 0.5682,1.23958 0.1549,1.60112 1.2912,2.53081 1.1879,0.92969 3.2023,0.92969 2.0659,0 3.4605,-1.08464 1.4461,-1.08463 1.4461,-2.42751 0,-1.08463 -0.878,-1.70442 -0.878,-0.67144 -3.2539,-1.44618 -3.4088,-1.13628 -4.9583,-2.68576 -1.5495,-1.54948 -1.5495,-3.87369 0,-2.32421 1.4462,-4.18358 1.4462,-1.85938 3.822,-2.89236 2.3759,-1.03298 5.1649,-1.03298 3.8221,0 5.7331,1.39452 1.9627,1.34288 1.9627,3.92534 0,2.01432 -0.9814,3.2539 -0.9813,1.18793 -2.4275,1.18793 -0.9297,0 -1.4978,-0.51649 -0.5165,-0.51649 -0.5165,-1.34288 0,-0.36154 0.3099,-0.92968 0.3099,-0.56814 0.3099,-0.98134 0,-1.65277 -3.6154,-1.65277 -2.3759,0 -3.6155,0.82639 -1.1879,0.77473 -1.1879,1.96267 0,1.03298 0.878,1.70442 0.9297,0.67144 3.6155,1.60112 3.3572,1.13629 4.8033,2.47917 1.4462,1.34288 1.4462,3.71874 0,2.37586 -1.4978,4.49348 -1.4462,2.11762 -3.9254,3.40885 -2.4791,1.23958 -5.3198,1.23958 z"
           id="path3740" />
        <path
           d="m 1184.2345,-741.8433 q -3.6155,0 -5.7847,-2.22092 -2.1176,-2.22091 -2.1176,-5.99131 0,-4.13193 2.2209,-8.21222 2.2725,-4.13193 5.9396,-6.71439 3.6671,-2.63411 7.6441,-2.63411 2.3759,0 4.1836,0.67144 1.8594,0.61979 3.6155,1.54947 l -4.5452,21.48607 q -0.2582,1.18793 -1.0846,1.85937 -0.8264,0.72309 -1.911,0.72309 -0.8781,0 -1.4462,-0.51649 -0.5165,-0.46485 -0.5165,-1.29123 0,-0.36155 0.052,-0.56814 l 0.155,-0.72309 q -1.4978,1.29123 -3.2023,1.96267 -1.6527,0.61979 -3.2022,0.61979 z m 1.2396,-4.75173 q 1.6011,0 3.0989,-0.61979 1.5495,-0.67144 2.7891,-1.54948 l 2.9956,-13.48044 q -1.3945,-0.61979 -3.0989,-0.61979 -2.4275,0 -4.7001,1.85937 -2.2726,1.85937 -3.7187,4.64843 -1.4462,2.78906 -1.4462,5.42317 0,2.32421 1.033,3.3572 1.033,0.98133 3.0473,0.98133 z"
           id="path3742" />
        <path
           d="m 1204.3776,-741.8433 q -1.033,0 -1.6528,-0.77474 -0.5681,-0.77474 -0.4131,-1.54948 l 6.4045,-29.95653 q 0.2582,-1.03299 1.0846,-1.70443 0.8264,-0.72309 1.911,-0.72309 1.033,0 1.6011,0.77474 0.5682,0.77474 0.3616,1.65278 l -6.3529,29.95653 q -0.2066,0.92969 -1.1363,1.65278 -0.9296,0.67144 -1.8077,0.67144 z"
           id="path3744" />
        <path
           d="m 1222.4032,-741.8433 q -3.6155,0 -5.7847,-2.22092 -2.1177,-2.22091 -2.1177,-5.99131 0,-4.13193 2.221,-8.21222 2.2725,-4.13193 5.9396,-6.71439 3.6671,-2.63411 7.6441,-2.63411 2.3759,0 4.1836,0.67144 1.8594,0.61979 3.6154,1.54947 l -4.5451,21.48607 q -0.2583,1.18793 -1.0846,1.85937 -0.8264,0.72309 -1.9111,0.72309 -0.878,0 -1.4461,-0.51649 -0.5165,-0.46485 -0.5165,-1.29123 0,-0.36155 0.052,-0.56814 l 0.155,-0.72309 q -1.4979,1.29123 -3.2023,1.96267 -1.6528,0.61979 -3.2022,0.61979 z m 1.2395,-4.75173 q 1.6012,0 3.099,-0.61979 1.5495,-0.67144 2.7891,-1.54948 l 2.9956,-13.48044 q -1.3945,-0.61979 -3.0989,-0.61979 -2.4276,0 -4.7001,1.85937 -2.2726,1.85937 -3.7188,4.64843 -1.4461,2.78906 -1.4461,5.42317 0,2.32421 1.0329,3.3572 1.033,0.98133 3.0473,0.98133 z"
           id="path3746" />
        <path
           d="m 1242.443,-741.79165 q -0.9813,0 -1.6011,-0.72309 -0.5682,-0.77474 -0.3616,-1.75608 l 6.3529,-29.74993 q 0.2582,-1.03299 1.1363,-1.75608 0.878,-0.77474 1.8593,-0.77474 0.9297,0 1.4462,0.61979 0.5682,0.56815 0.5682,1.39453 0,0.36155 -0.052,0.5165 l -2.4792,11.62107 q 1.9111,-2.27257 4.4935,-3.7704 2.5825,-1.54947 4.855,-1.54947 2.6342,0 3.8737,1.75607 1.2396,1.70442 1.2396,5.26822 0,2.78906 -0.9297,8.00562 -0.9297,5.16492 -1.9626,8.57377 -0.3099,0.98134 -1.1363,1.65278 -0.7748,0.61979 -1.7561,0.61979 -0.9813,0 -1.4978,-0.5165 -0.5165,-0.56814 -0.5165,-1.34287 0,-0.36155 0.052,-0.5165 l 0.6198,-2.78905 q 1.0847,-4.70008 1.6012,-7.48914 0.5164,-2.78905 0.5164,-5.16492 0,-1.75607 -0.3615,-2.42751 -0.3615,-0.72309 -1.2912,-0.72309 -1.8594,0 -4.1836,2.06597 -2.2726,2.06597 -3.8221,4.18358 -0.8263,1.13629 -1.2395,2.16927 -0.4132,1.03299 -0.7231,2.32422 l -1.6528,7.69573 q -0.2582,1.18793 -1.1363,1.91102 -0.878,0.67144 -1.911,0.67144 z"
           id="path3748" />
        <path
           d="m 1286.2414,-732.70139 q -1.033,0 -1.5494,-0.82639 -0.5682,-0.77474 -0.4132,-1.65278 l 6.3528,-29.95653 q 0.2066,-1.08464 1.0846,-1.80772 0.9297,-0.72309 2.0144,-0.72309 0.878,0 1.3945,0.56814 0.5681,0.51649 0.4648,1.23958 l -0.1033,0.72309 q 1.7045,-1.13628 3.7704,-1.80772 2.066,-0.72309 4.2869,-0.72309 3.2539,0 5.0616,2.22091 1.8078,2.22092 1.8078,6.19791 0,2.63411 -1.033,5.78471 -1.033,3.09895 -2.6341,5.42316 -1.9111,2.68576 -4.7001,4.28689 -2.7374,1.54947 -6.4045,1.54947 -2.3759,0 -4.7001,-1.03298 l -1.7044,8.05727 q -0.2066,1.03299 -1.1363,1.75608 -0.878,0.72309 -1.8594,0.72309 z m 10.7947,-14.51343 q 4.0803,0 6.4562,-3.71874 0.878,-1.44618 1.4978,-3.61545 0.6198,-2.16926 0.6198,-3.92534 0,-2.22091 -0.8264,-3.35719 -0.8264,-1.18794 -2.3242,-1.18794 -2.6341,0 -4.7001,1.03299 -2.0143,1.03298 -3.3055,2.32421 l -2.3759,11.31118 q 2.6341,1.13628 4.9583,1.13628 z"
           id="path3750" />
        <path
           d="m 1321.0013,-741.8433 q -3.6154,0 -5.7847,-2.22092 -2.1176,-2.22091 -2.1176,-5.99131 0,-4.13193 2.2209,-8.21222 2.2726,-4.13193 5.9397,-6.71439 3.6671,-2.63411 7.644,-2.63411 2.3759,0 4.1836,0.67144 1.8594,0.61979 3.6155,1.54947 l -4.5452,21.48607 q -0.2582,1.18793 -1.0846,1.85937 -0.8264,0.72309 -1.911,0.72309 -0.878,0 -1.4462,-0.51649 -0.5165,-0.46485 -0.5165,-1.29123 0,-0.36155 0.052,-0.56814 l 0.1549,-0.72309 q -1.4978,1.29123 -3.2022,1.96267 -1.6528,0.61979 -3.2023,0.61979 z m 1.2396,-4.75173 q 1.6011,0 3.099,-0.61979 1.5494,-0.67144 2.789,-1.54948 l 2.9957,-13.48044 q -1.3946,-0.61979 -3.099,-0.61979 -2.4275,0 -4.7001,1.85937 -2.2725,1.85937 -3.7187,4.64843 -1.4462,2.78906 -1.4462,5.42317 0,2.32421 1.033,3.3572 1.033,0.98133 3.0473,0.98133 z"
           id="path3752" />
        <path
           d="m 1341.0412,-741.79165 q -0.9814,0 -1.6012,-0.72309 -0.5681,-0.77474 -0.3615,-1.75608 l 6.3528,-29.74993 q 0.2583,-1.03299 1.1363,-1.75608 0.8781,-0.77474 1.8594,-0.77474 0.9297,0 1.4462,0.61979 0.5681,0.56815 0.5681,1.39453 0,0.36155 -0.052,0.5165 l -2.4792,11.62107 q 1.911,-2.27257 4.4935,-3.7704 2.5824,-1.54947 4.855,-1.54947 2.6341,0 3.8737,1.75607 1.2396,1.70442 1.2396,5.26822 0,2.78906 -0.9297,8.00562 -0.9297,5.16492 -1.9627,8.57377 -0.3099,0.98134 -1.1363,1.65278 -0.7747,0.61979 -1.756,0.61979 -0.9814,0 -1.4979,-0.5165 -0.5165,-0.56814 -0.5165,-1.34287 0,-0.36155 0.052,-0.5165 l 0.6198,-2.78905 q 1.0846,-4.70008 1.6011,-7.48914 0.5165,-2.78905 0.5165,-5.16492 0,-1.75607 -0.3615,-2.42751 -0.3616,-0.72309 -1.2913,-0.72309 -1.8593,0 -4.1836,2.06597 -2.2725,2.06597 -3.822,4.18358 -0.8264,1.13629 -1.2396,2.16927 -0.4132,1.03299 -0.7231,2.32422 l -1.6527,7.69573 q -0.2583,1.18793 -1.1363,1.91102 -0.8781,0.67144 -1.911,0.67144 z"
           id="path3754" />
        <path
           d="m 1374.2515,-741.8433 q -3.6154,0 -5.7847,-2.22092 -2.1176,-2.22091 -2.1176,-5.99131 0,-4.13193 2.2209,-8.21222 2.2726,-4.13193 5.9397,-6.71439 3.6671,-2.63411 7.6441,-2.63411 2.3758,0 4.1836,0.67144 1.8593,0.61979 3.6154,1.54947 l -4.5451,21.48607 q -0.2583,1.18793 -1.0847,1.85937 -0.8263,0.72309 -1.911,0.72309 -0.878,0 -1.4462,-0.51649 -0.5164,-0.46485 -0.5164,-1.29123 0,-0.36155 0.052,-0.56814 l 0.1549,-0.72309 q -1.4978,1.29123 -3.2022,1.96267 -1.6528,0.61979 -3.2023,0.61979 z m 1.2396,-4.75173 q 1.6012,0 3.099,-0.61979 1.5495,-0.67144 2.789,-1.54948 l 2.9957,-13.48044 q -1.3945,-0.61979 -3.099,-0.61979 -2.4275,0 -4.7,1.85937 -2.2726,1.85937 -3.7188,4.64843 -1.4462,2.78906 -1.4462,5.42317 0,2.32421 1.033,3.3572 1.033,0.98133 3.0473,0.98133 z"
           id="path3756" />
        <path
           d="m 1394.6013,-741.8433 q -0.878,0 -1.4462,-0.5165 -0.5681,-0.56814 -0.5681,-1.39452 0,-0.36155 0.052,-0.5165 l 4.4419,-20.86627 q 0.2066,-0.98134 1.0846,-1.70443 0.9297,-0.77473 1.911,-0.77473 1.033,0 1.6011,0.77473 0.5682,0.72309 0.3616,1.70443 l -0.7748,3.61544 q 4.5452,-6.0946 9.8134,-6.0946 2.1176,0 3.4088,1.23958 1.3429,1.23958 1.4979,3.71874 4.3385,-4.95832 9.0902,-4.95832 2.5308,0 3.8737,1.54947 1.3945,1.49783 1.3945,4.54513 0,1.85937 -0.4131,3.71874 l -2.8924,13.53209 q -0.2066,0.98134 -1.1363,1.70443 -0.878,0.72309 -1.8594,0.72309 -0.878,0 -1.4461,-0.5165 -0.5682,-0.56814 -0.5682,-1.39452 0,-0.36155 0.052,-0.5165 l 2.944,-13.84198 q 0.2582,-1.08463 0.2582,-2.22092 0,-1.29123 -0.5165,-1.91102 -0.4648,-0.61979 -1.5494,-0.61979 -1.4979,0 -3.2539,1.18793 -1.7561,1.18794 -3.1506,3.2539 -1.3429,2.06597 -1.9111,4.54513 l -2.0143,9.60675 q -0.2582,1.03299 -1.1363,1.75608 -0.8264,0.67144 -1.8593,0.67144 -0.8781,0 -1.4462,-0.5165 -0.5682,-0.56814 -0.5682,-1.39452 0,-0.36155 0.052,-0.5165 l 2.944,-13.84198 q 0.3099,-1.49783 0.3099,-2.42751 0,-1.18794 -0.4648,-1.75608 -0.4132,-0.56814 -1.3946,-0.56814 -1.6528,0 -3.5121,1.34288 -1.8594,1.29123 -3.4605,3.1506 -2.4275,3.04731 -3.2023,6.5078 l -1.5494,7.59243 q -0.2066,0.98134 -1.0847,1.70443 -0.878,0.72309 -1.911,0.72309 z"
           id="path3758" />
      </g>
    </g>
  </g>
</svg>
