<?xml version="1.0" encoding="UTF-8" standalone="no"?>
<!-- Created with Inkscape (http://www.inkscape.org/) -->

<svg
   width="168.68161mm"
   height="184.98997mm"
   viewBox="0 0 168.68161 184.98996"
   version="1.1"
   id="svg18600"
   inkscape:version="1.2.2 (b0a84865, 2022-12-01)"
   sodipodi:docname="hero-lg.svg"
   xml:space="preserve"
   xmlns:inkscape="http://www.inkscape.org/namespaces/inkscape"
   xmlns:sodipodi="http://sodipodi.sourceforge.net/DTD/sodipodi-0.dtd"
   xmlns="http://www.w3.org/2000/svg"
   xmlns:svg="http://www.w3.org/2000/svg"><sodipodi:namedview
     id="namedview18602"
     pagecolor="#ffffff"
     bordercolor="#000000"
     borderopacity="0.25"
     inkscape:showpageshadow="2"
     inkscape:pageopacity="0.0"
     inkscape:pagecheckerboard="0"
     inkscape:deskcolor="#d1d1d1"
     inkscape:document-units="mm"
     showgrid="false"
     inkscape:zoom="0.84096521"
     inkscape:cx="240.20019"
     inkscape:cy="226.52542"
     inkscape:window-width="1246"
     inkscape:window-height="702"
     inkscape:window-x="0"
     inkscape:window-y="25"
     inkscape:window-maximized="0"
     inkscape:current-layer="layer1"
     showguides="false" /><defs
     id="defs18597"><clipPath
       clipPathUnits="userSpaceOnUse"
       id="clipPath12612-4"><path
         d="M 0,500 H 750 V 0 H 0 Z"
         id="path12610-7" /></clipPath></defs><g
     inkscape:label="Layer 1"
     inkscape:groupmode="layer"
     id="layer1"
     transform="translate(-13.820201,-24.344396)"><g
       id="g12608"
       clip-path="none"
       transform="matrix(-0.20920855,0,0,-0.20920855,124.7662,116.19492)"><g
         id="g12614"
         transform="translate(97.7246,303.5859)"><path
           d="m 0,0 c 7.265,12.123 32.972,26.379 32.972,26.379 l 4.045,-10.657 c 0,0 -21.71,-11.702 -22.348,-11.702 C 14.03,4.02 0,0 0,0"
           style="fill:#ed9970;fill-opacity:1;fill-rule:nonzero;stroke:none"
           id="path12616" /></g><g
         id="g12618"
         transform="translate(178.164,254.123)"><path
           d="m 0,0 h -49.16 c -3.668,0 -6.669,3 -6.669,6.668 V 112.82 c 0,3.668 3.001,6.669 6.669,6.669 H 0 c 3.668,0 6.669,-3.001 6.669,-6.669 V 6.668 C 6.669,3 3.668,0 0,0"
           style="fill:#ffffff;fill-opacity:1;fill-rule:nonzero;stroke:none"
           id="path12620" /></g><g
         id="g12622"
         transform="translate(175.5605,253.748)"><path
           d="m 0,0 v 0.75 c 3.47,0 6.293,2.823 6.293,6.293 v 106.152 c 0,3.471 -2.823,6.294 -6.293,6.294 v 0.75 c 3.884,0 7.043,-3.16 7.043,-7.044 V 7.043 C 7.043,3.16 3.884,0 0,0"
           style="fill:#602320;fill-opacity:1;fill-rule:nonzero;stroke:none"
           id="path12624" /></g><g
         id="g12626"
         transform="translate(131.7793,368.9712)"><path
           d="m 0,0 c -2.62,0 -4.752,-2.131 -4.752,-4.751 0,-2.621 2.132,-4.752 4.752,-4.752 h 9.575 c 2.62,0 4.752,2.131 4.752,4.752 C 14.327,-2.131 12.195,0 9.575,0 Z M 9.575,-10.253 H 0 c -3.034,0 -5.502,2.468 -5.502,5.502 0,3.033 2.468,5.501 5.502,5.501 h 9.575 c 3.034,0 5.502,-2.468 5.502,-5.501 0,-3.034 -2.468,-5.502 -5.502,-5.502"
           style="fill:#602320;fill-opacity:1;fill-rule:nonzero;stroke:none"
           id="path12628" /></g><g
         id="g12630"
         transform="translate(134.7412,364.2197)"><path
           d="m 0,0 c 0,-1.571 -1.273,-2.844 -2.844,-2.844 -1.571,0 -2.844,1.273 -2.844,2.844 0,1.571 1.273,2.844 2.844,2.844 C -1.273,2.844 0,1.571 0,0"
           style="fill:#602320;fill-opacity:1;fill-rule:nonzero;stroke:none"
           id="path12632" /></g><g
         id="g12634"
         transform="translate(131.8974,366.689)"><path
           d="m 0,0 c -1.362,0 -2.47,-1.108 -2.47,-2.469 0,-1.362 1.108,-2.469 2.47,-2.469 1.361,0 2.469,1.107 2.469,2.469 C 2.469,-1.108 1.361,0 0,0 m 0,-5.688 c -1.775,0 -3.22,1.444 -3.22,3.219 0,1.775 1.445,3.219 3.22,3.219 1.774,0 3.219,-1.444 3.219,-3.219 0,-1.775 -1.445,-3.219 -3.219,-3.219"
           style="fill:#602320;fill-opacity:1;fill-rule:nonzero;stroke:none"
           id="path12636" /></g><g
         id="g12638"
         transform="translate(140.2861,364.2197)"><path
           d="M 0,0 C 0,0.758 0.614,1.373 1.373,1.373 2.131,1.373 2.745,0.758 2.745,0 2.745,-0.758 2.131,-1.373 1.373,-1.373 0.614,-1.373 0,-0.758 0,0"
           style="fill:#602320;fill-opacity:1;fill-rule:nonzero;stroke:none"
           id="path12640" /></g><g
         id="g12642"
         transform="translate(141.6591,365.2173)"><path
           d="m 0,0 c -0.551,0 -0.998,-0.447 -0.998,-0.998 0,-0.55 0.447,-0.998 0.998,-0.998 0.55,0 0.997,0.448 0.997,0.998 C 0.997,-0.447 0.55,0 0,0 m 0,-2.746 c -0.964,0 -1.748,0.785 -1.748,1.748 0,0.964 0.784,1.748 1.748,1.748 0.963,0 1.747,-0.784 1.747,-1.748 0,-0.963 -0.784,-1.748 -1.747,-1.748"
           style="fill:#602320;fill-opacity:1;fill-rule:nonzero;stroke:none"
           id="path12644" /></g><g
         id="g12646"
         transform="translate(87.8828,249.5166)"><path
           d="m 0,0 c 0,0 -2.289,39.606 10.596,55.026 13.795,12.663 49.283,24.577 59.108,27.713 1.57,0.501 3.264,-0.305 3.866,-1.84 2.956,-8.038 -5.724,-12.718 -5.724,-12.718 L 46.34,56.877 c 0,0 11.334,0.357 20.399,-3.288 4.014,-1.267 13.969,-10.711 13.969,-10.711 0.521,-7.019 -5.714,-7.056 -16.053,-2.852 l -16.475,0.845 -13.307,-5.28 0.106,-1.842 c 0,0 15.087,0.763 21.319,0.34 6.23,-0.422 21.957,-8.042 21.957,-8.042 6.043,-2.596 3.83,-12.085 -4.298,-10.298 L 54.094,19.96 37.514,17.215 37.438,15.263 c 0,0 8.679,-0.829 13.945,-1.727 C 56.648,12.639 71.085,7.7 71.085,7.7 c 5.616,-1.696 4.343,-10.657 -2.363,-9.76 0,0 -19.909,2.271 -20.542,2.271 -0.634,0 -10.614,-0.422 -10.614,-0.422 0,0 1.588,-9.992 -7.439,-17.637 C 18.103,-28.032 -0.492,-14.013 0,0"
           style="fill:#ed9970;fill-opacity:1;fill-rule:nonzero;stroke:none"
           id="path12648" /></g><g
         id="g12650"
         transform="translate(118.2539,299.5986)"><path
           d="m 0,0 -0.489,0.568 c 0.06,0.052 6.098,5.16 16.754,6.534 L 16.36,6.358 C 5.941,5.014 0.059,0.05 0,0"
           style="fill:#602320;fill-opacity:1;fill-rule:nonzero;stroke:none"
           id="path12652" /></g><g
         id="g12654"
         transform="translate(119.2578,247.8926)"><path
           d="M 0,0 C -4.364,0 -6.863,1.638 -7.009,1.735 L -6.59,2.358 C -6.543,2.326 -1.767,-0.778 6.075,1.77 L 6.308,1.057 C 3.911,0.278 1.797,0 0,0"
           style="fill:#602320;fill-opacity:1;fill-rule:nonzero;stroke:none"
           id="path12656" /></g><g
         id="g12658"
         transform="translate(219.5898,253.9824)"><path
           d="m 0,0 c -34.414,-11.822 -102.581,-68.533 -148.096,-138.504 -5.88,-9.039 -10.701,-18.448 -9.591,-29.587 0.858,-8.605 5.252,-16.455 11.709,-22.132 19.171,-16.853 46.314,-6.863 65.262,5.029 6.213,3.899 12.223,8.159 18.123,12.518 14.015,10.358 27.145,21.878 39.923,33.71 z"
           style="fill:#c7000c;fill-opacity:1;fill-rule:nonzero;stroke:none"
           id="path12660" /></g><g
         id="g12662"
         transform="translate(130.9189,227.1934)"><path
           d="m 0,0 c -16.235,-5.971 -32.9,-6.001 -49.972,-0.444 l -0.159,21.205 c 9.028,3.156 43.576,-2.41 50.089,-5.815 z"
           style="fill:#c7000c;fill-opacity:1;fill-rule:nonzero;stroke:none"
           id="path12664" /></g><g
         id="g12666"
         transform="translate(61.6484,88.7803)"><path
           d="m 0,0 c -0.382,4.401 -0.483,9.097 -0.245,14.111 0,0 3.772,124.403 16.956,128.511 5.609,2.859 52.595,5.575 55.071,-0.595 12.524,-9.872 9.599,-104.105 9.706,-137.506 z"
           style="fill:#c7000c;fill-opacity:1;fill-rule:nonzero;stroke:none"
           id="path12668" /></g><g
         id="g12670"
         transform="translate(144.8398,111.8477)"><path
           d="m 0,0 -0.75,0.025 c 1.062,32.545 0.198,61.08 -2.641,87.237 l 0.746,0.08 C 0.197,61.151 1.062,32.581 0,0"
           style="fill:#602320;fill-opacity:1;fill-rule:nonzero;stroke:none"
           id="path12672" /></g><g
         id="g12674"
         transform="translate(133.3476,230.4424)"><path
           d="m 0,0 c -26.231,5.955 -54.633,0.646 -54.918,0.592 l -0.141,0.736 c 0.286,0.055 28.843,5.393 55.225,-0.598 z"
           style="fill:#602320;fill-opacity:1;fill-rule:nonzero;stroke:none"
           id="path12676" /></g><g
         id="g12678"
         transform="translate(111.6552,313.5264)"><path
           d="M 0,0 -0.312,0.682 10.523,5.643 10.836,4.961 Z"
           style="fill:#602320;fill-opacity:1;fill-rule:nonzero;stroke:none"
           id="path12680" /></g><g
         id="g12682"
         transform="translate(249.3281,254.4673)"><path
           d="m 0,0 c 10.17,-39.149 91.302,-43.013 127.319,1.306 l -29.554,6.87 v 43.27 h -73.8 V 8.176 Z"
           style="fill:#ed9970;fill-opacity:1;fill-rule:nonzero;stroke:none"
           id="path12684" /></g><g
         id="g12686"
         transform="translate(502.4716)"><path
           d="M 0,-31.580887 C -0.677,-11.284231 10.141,167.39333 -43.979,225.43691 -93.382,252.3225 -151.885,262.766 -151.885,262.766 c -64.68,-25.29045 -79.787,-0.66875 -79.787,-0.66875 0,0 -55.611,-0.21284 -74.05,-25.00592 -20.79,-29.21894 -9.457,-219.028918 2.159,-268.672217 z"
           style="fill:#c7000c;fill-opacity:1;fill-rule:nonzero;stroke:none;stroke-width:1.05839"
           id="path12688" /></g><path
         d="m 417.48429,0.02456022 c -2.974,52.34074978 -3.05,99.29093978 -0.23,143.53709978 l 0.744,-0.17884 c -2.812,-44.13147 -2.736,-90.9728 0.232,-143.19885978 z"
         style="fill:#602320;fill-opacity:1;fill-rule:nonzero;stroke:none;stroke-width:1.39425"
         id="path18137-6" /><g
         id="g12690"
         transform="translate(347.0927,280.4038)"><path
           d="m 0,0 10.23,-19.156 -49.756,-32.823 c -2.453,8.689 -7.901,16.821 -15.268,24.597 C -34.706,-21.644 -15.267,-12.715 0,0"
           style="fill:#c7000c;fill-opacity:1;fill-rule:nonzero;stroke:none"
           id="path12692" /></g><g
         id="g12694"
         transform="translate(273.2929,269.1484)"><path
           d="M 0,0 C 3.553,-8.099 11.09,-12.666 19.006,-16.127 L 3.89,-35.361 -9.911,-9.536 Z"
           style="fill:#c7000c;fill-opacity:1;fill-rule:nonzero;stroke:none"
           id="path12696" /></g><g
         id="g12698"
         transform="translate(308.6425,224.8418)"><path
           d="M 0,0 -0.149,0.384 C -3.862,9.932 -9.316,19.092 -16.363,27.616 -23.441,20.162 -29.222,12.022 -33.55,3.415 l -0.312,-0.623 -0.348,0.604 c -5.093,8.858 -8.575,19.77 -10.352,32.433 l 0.743,0.104 c 1.722,-12.28 5.058,-22.893 9.916,-31.558 4.384,8.561 10.199,16.653 17.289,24.064 l 0.29,0.303 0.268,-0.322 C -8.922,19.855 -3.387,10.645 0.399,1.039 19.928,10.832 36.076,22.814 48.4,36.656 l 0.561,-0.499 C 36.495,22.157 20.146,10.054 0.367,0.184 Z"
           style="fill:#602320;fill-opacity:1;fill-rule:nonzero;stroke:none"
           id="path12700" /></g><g
         id="g12702"
         transform="translate(277.1064,0.7754)"><path
           d="M 0,0 C -10.479,81.242 -7.344,166.242 9.065,245.812 L 9.8,245.659 C -6.593,166.171 -9.724,81.257 0.744,0.096 Z"
           style="fill:#602320;fill-opacity:1;fill-rule:nonzero;stroke:none"
           id="path12704" /></g><g
         id="g12706"
         transform="translate(288.5663,0.7705)"><path
           d="m 0,0 c -10.633,78.982 -7.583,161.366 9.065,244.862 l 0.737,-0.146 C -6.831,161.301 -9.878,79 0.744,0.1 Z"
           style="fill:#602320;fill-opacity:1;fill-rule:nonzero;stroke:none"
           id="path12708" /></g><g
         id="g12710"
         transform="translate(293.5126,242.1602)"><path
           d="m 0,0 c 0,-1.278 -1.036,-2.314 -2.314,-2.314 -1.279,0 -2.315,1.036 -2.315,2.314 0,1.278 1.036,2.314 2.315,2.314 C -1.036,2.314 0,1.278 0,0"
           style="fill:#ffffff;fill-opacity:1;fill-rule:nonzero;stroke:none"
           id="path12712" /></g><g
         id="g12714"
         transform="translate(283.0556,171.1357)"><path
           d="m 0,0 c 0,-1.278 -1.036,-2.315 -2.314,-2.315 -1.279,0 -2.316,1.037 -2.316,2.315 0,1.278 1.037,2.314 2.316,2.314 C -1.036,2.314 0,1.278 0,0"
           style="fill:#ffffff;fill-opacity:1;fill-rule:nonzero;stroke:none"
           id="path12716" /></g><g
         id="g12718"
         transform="translate(278.8935,87.4189)"><path
           d="m 0,0 c 0,-1.278 -1.036,-2.314 -2.314,-2.314 -1.279,0 -2.315,1.036 -2.315,2.314 0,1.278 1.036,2.314 2.315,2.314 C -1.036,2.314 0,1.278 0,0"
           style="fill:#ffffff;fill-opacity:1;fill-rule:nonzero;stroke:none"
           id="path12720" /></g><g
         id="g12722"
         transform="translate(282.0654)"><path
           d="m 0,0 h 1.286 c 0.964,0.28 1.672,1.159 1.672,2.213 0,1.278 -1.036,2.314 -2.314,2.314 -1.279,0 -2.315,-1.036 -2.315,-2.314 C -1.671,1.159 -0.963,0.28 0,0"
           style="fill:#ffffff;fill-opacity:1;fill-rule:nonzero;stroke:none"
           id="path12724" /></g><g
         id="g12726"
         transform="translate(185.9462,106.1797)"><path
           d="M 0,0 C -2.974,26.925 -3.05,51.077 -0.23,73.838 L 0.514,73.746 C -2.298,51.044 -2.222,26.948 0.746,0.082 Z"
           style="fill:#602320;fill-opacity:1;fill-rule:nonzero;stroke:none"
           id="path12728" /></g><g
         id="g12730"
         transform="translate(199.8828,130.8516)"><path
           d="M 0,0 46.614,-1.612 V 11.895 L 2.452,15.024 Z m 47.364,-2.39 -48.241,1.669 2.698,16.542 45.543,-3.227 z"
           style="fill:#602320;fill-opacity:1;fill-rule:nonzero;stroke:none"
           id="path12732" /></g><g
         id="g12734"
         transform="translate(320.581,130.8516)"><path
           d="M 0,0 46.615,-1.612 V 11.895 L 2.452,15.024 Z m 47.365,-2.39 -48.242,1.669 2.698,16.542 45.544,-3.227 z"
           style="fill:#602320;fill-opacity:1;fill-rule:nonzero;stroke:none"
           id="path12736" /></g><g
         id="g12738"
         transform="translate(241.1728)"><path
           d="m 0,0 c -13.85,77.19 -15.311,162.767 -4.977,259.318 -4.839,-0.878 -9.417,-2.034 -13.604,-3.6 C -28.485,160.494 -26.726,76.733 -13.214,0 Z"
           style="fill:#ffffff;fill-opacity:1;fill-rule:nonzero;stroke:none"
           id="path12740" /></g><g
         id="g12742"
         transform="translate(367.6845)"><path
           d="m 0,0 c -8.07,77.769 -3.335,161.634 14.022,256.903 0,0 -8.626,1.863 -13.053,2.858 C -16.517,163.784 -21.077,78.706 -13.071,0 Z"
           style="fill:#ffffff;fill-opacity:1;fill-rule:nonzero;stroke:none"
           id="path12744" /></g><g
         id="g12746"
         transform="translate(241.9189,381.3301)"><path
           d="m 0,0 c -2.268,-36.438 27.491,-107.117 66.564,-107.117 39.074,0 80.574,42.172 71.411,94.485 0,41.09 -24.756,70.34 -63.83,70.34 C 35.072,57.708 0,41.09 0,0"
           style="fill:#ffffff;fill-opacity:1;fill-rule:nonzero;stroke:none"
           id="path12748" /></g><g
         id="g12750"
         transform="translate(364.3964,344.2666)"><path
           d="m 0,0 c -0.112,-15.155 -1.208,-29.816 -7.43,-43.938 -14.379,-32.64 -62.59,-48.489 -90.265,-22.697 -15.325,14.283 -18.432,37.227 -19.507,57.072 -1.055,19.481 0.543,43.981 3.914,63.185 0,0 28.505,-15.154 108.75,3.569 L 0.154,20.74 C 0.154,20.74 0.001,0.014 0,0"
           style="fill:#ed9970;fill-opacity:1;fill-rule:nonzero;stroke:none"
           id="path12752" /></g><g
         id="g12754"
         transform="translate(298.5322,263.7402)"><path
           d="m 0,0 c -16.016,0 -25.283,8.197 -25.421,8.322 l 0.506,0.555 C -19.254,3.715 1.442,-6.308 28.867,9.085 L 29.234,8.431 C 17.964,2.105 8.115,0 0,0"
           style="fill:#602320;fill-opacity:1;fill-rule:nonzero;stroke:none"
           id="path12756" /></g><g
         id="g12758"
         transform="translate(363.5781,361.0479)"><path
           d="m 0,0 c 0.781,1.066 1.674,2.048 2.745,2.89 3.25,2.552 7.781,2.63 11.288,0.566 10.276,-6.045 5.146,-24.126 -2.081,-30.47 -3.456,-3.034 -8.538,-4.55 -12.969,-3.066 -4.533,1.519 -6.725,6.478 -6.411,11.073 0.317,4.638 2.067,9.188 4.145,13.283 C -2.282,-3.751 -1.291,-1.76 0,0"
           style="fill:#ed9970;fill-opacity:1;fill-rule:nonzero;stroke:none"
           id="path12760" /></g><g
         id="g12762"
         transform="translate(367.5634,335.5688)"><path
           d="M 0,0 -0.123,0.739 C 4.983,1.594 8.598,8.278 8.185,13.243 8.052,14.848 7.358,17.54 4.212,17.54 v 0.75 c 2.736,0 4.457,-1.817 4.721,-4.985 C 9.327,8.555 6.044,1.011 0,0"
           style="fill:#602320;fill-opacity:1;fill-rule:nonzero;stroke:none"
           id="path12764" /></g><g
         id="g12766"
         transform="translate(373.6962,340.4189)"><path
           d="m 0,0 c -3.352,2.688 -8.187,1.186 -8.236,1.169 l -0.23,0.714 c 0.213,0.069 5.267,1.646 8.935,-1.298 z"
           style="fill:#602320;fill-opacity:1;fill-rule:nonzero;stroke:none"
           id="path12768" /></g><g
         id="g12770"
         transform="translate(364.3066,330.1406)"><path
           d="M 0,0 C -0.131,0.005 -3.229,0.143 -5.011,1.955 L -4.476,2.48 C -2.905,0.883 0,0.75 0.029,0.749 Z"
           style="fill:#602320;fill-opacity:1;fill-rule:nonzero;stroke:none"
           id="path12772" /></g><g
         id="g12774"
         transform="translate(365.7363,362.251)"><path
           d="m 0,0 c 0,0 -6.238,-4.93 -6.559,-21.54 -9.583,6.718 -16.984,20.894 -17.844,57.433 0,0 15.922,6.511 16.456,6.511 0.534,0 10.418,-5.745 10.418,-5.745 l 3.621,-18 z"
           style="fill:#ffffff;fill-opacity:1;fill-rule:nonzero;stroke:none"
           id="path12776" /></g><g
         id="g12778"
         transform="translate(285.7382,382.7339)"><path
           d="m 0,0 c -7.416,0 -15.345,0.292 -22.895,1.123 l 0.083,0.745 C 2.385,-0.903 31.834,2.346 32.127,2.378 L 32.211,1.633 C 32.004,1.61 17.416,0 0,0"
           style="fill:#e07b53;fill-opacity:1;fill-rule:nonzero;stroke:none"
           id="path12780" /></g><g
         id="g12782"
         transform="translate(293.4316,378.1982)"><path
           d="m 0,0 c -3.944,0 -7.936,0.085 -11.799,0.295 l 0.041,0.749 C 9.16,-0.091 33.891,2.421 34.139,2.446 L 34.215,1.7 C 34.013,1.679 17.477,0 0,0"
           style="fill:#e07b53;fill-opacity:1;fill-rule:nonzero;stroke:none"
           id="path12784" /></g><g
         id="g12786"
         transform="translate(291.2685,283.5269)"><path
           d="m 0,0 c -9.325,0 -19.114,2.73 -27.013,8.961 l 0.465,0.589 C -9.774,-3.683 15.669,-0.873 26.367,10.375 L 26.91,9.858 C 21.044,3.689 10.836,0 0,0"
           style="fill:#e07b53;fill-opacity:1;fill-rule:nonzero;stroke:none"
           id="path12788" /></g><g
         id="g12790"
         transform="translate(288.9482,306.0732)"><path
           d="m 0,0 c -2.604,0 -5.153,0.497 -6.987,1.628 l 0.394,0.639 C -2.819,-0.064 4.203,0.466 7.956,2.495 L 8.313,1.835 C 6.188,0.686 3.058,0 0,0"
           style="fill:#e07b53;fill-opacity:1;fill-rule:nonzero;stroke:none"
           id="path12792" /></g><g
         id="g12802"
         transform="translate(291.6103,328.3735)"><path
           d="m 0,0 c -0.342,0.083 -8.373,2.083 -8.758,5.774 -0.366,3.53 5.049,15.849 5.28,16.371 l 0.686,-0.303 C -2.848,21.716 -8.357,9.185 -8.012,5.852 -7.738,3.223 -2.007,1.262 0.178,0.729 Z"
           style="fill:#602320;fill-opacity:1;fill-rule:nonzero;stroke:none"
           id="path12804" /></g><g
         id="g12822"
         transform="translate(258.5107,371.8057)"><path
           d="m 0,0 c -12.485,0 -22.643,-10.157 -22.643,-22.643 0,-12.485 10.158,-22.642 22.643,-22.642 12.485,0 22.643,10.157 22.643,22.642 C 22.643,-10.157 12.485,0 0,0 m 0,-46.285 c -13.036,0 -23.643,10.606 -23.643,23.642 C -23.643,-9.606 -13.036,1 0,1 13.036,1 23.643,-9.606 23.643,-22.643 23.643,-35.679 13.036,-46.285 0,-46.285"
           style="fill:#ffffff;fill-opacity:1;fill-rule:nonzero;stroke:none"
           id="path12824" /></g><g
         id="g12826"
         transform="translate(281.6533,348.6631)"><path
           d="M 0,0 C -0.148,0 -0.297,0.066 -0.396,0.193 -0.564,0.412 -0.524,0.726 -0.307,0.895 4.558,4.67 9.275,4.663 13.719,0.881 13.929,0.702 13.954,0.386 13.775,0.176 13.597,-0.036 13.279,-0.06 13.07,0.119 8.981,3.602 4.804,3.595 0.307,0.105 0.216,0.034 0.107,0 0,0"
           style="fill:#ffffff;fill-opacity:1;fill-rule:nonzero;stroke:none"
           id="path12828" /></g><g
         id="g12830"
         transform="translate(318.1904,371.8057)"><path
           d="m 0,0 c -12.485,0 -22.643,-10.157 -22.643,-22.643 0,-12.485 10.158,-22.642 22.643,-22.642 12.485,0 22.643,10.157 22.643,22.642 C 22.643,-10.157 12.485,0 0,0 m 0,-46.285 c -13.036,0 -23.643,10.606 -23.643,23.642 C -23.643,-9.606 -13.036,1 0,1 13.036,1 23.643,-9.606 23.643,-22.643 23.643,-35.679 13.036,-46.285 0,-46.285"
           style="fill:#ffffff;fill-opacity:1;fill-rule:nonzero;stroke:none"
           id="path12832" /></g><g
         id="g12834"
         transform="translate(303.0898,319.5635)"><path
           d="M 0,0 C -8.334,-9.605 -19.327,-10.806 -26.938,0.534 Z"
           style="fill:#602320;fill-opacity:1;fill-rule:nonzero;stroke:none"
           id="path12836" /></g><g
         id="g12838"
         transform="translate(276.8759,319.7075)"><path
           d="m 0,0 c 3.226,-4.537 7.185,-7.069 11.485,-7.335 4.718,-0.29 9.61,2.131 13.908,6.832 z m 12.245,-8.108 c -0.269,0 -0.538,0.008 -0.806,0.025 -4.728,0.292 -9.043,3.149 -12.475,8.264 L -1.437,0.779 27.021,0.215 26.497,-0.39 C 22.156,-5.393 17.126,-8.108 12.245,-8.108"
           style="fill:#602320;fill-opacity:1;fill-rule:nonzero;stroke:none"
           id="path12840" /></g><g
         id="g12842"
         transform="translate(283.6503,327.6201)"><path
           d="M 0,0 C 0,0 24.497,7.278 31.094,-10.772 17.445,-13.354 5.343,-13.031 0,0"
           style="fill:#ffffff;fill-opacity:1;fill-rule:nonzero;stroke:none"
           id="path12844" /></g><g
         id="g12846"
         transform="translate(293.9736,327.6201)"><path
           d="M 0,0 C 0,0 -24.497,7.278 -31.095,-10.772 -17.446,-13.354 -5.343,-13.031 0,0"
           style="fill:#ffffff;fill-opacity:1;fill-rule:nonzero;stroke:none"
           id="path12848" /></g><g
         id="g12858"
         transform="translate(341.4296,397.1797)"><path
           d="m 0,0 -0.164,0.732 c 0.072,0.016 7.216,1.616 11.649,3.289 L 11.751,3.319 C 7.267,1.627 0.071,0.016 0,0"
           style="fill:#602320;fill-opacity:1;fill-rule:nonzero;stroke:none"
           id="path12860" /></g><g
         id="g12862"
         transform="translate(250.9414,397.5527)"><path
           d="m 0,0 c -1.051,0.523 -1.986,1.053 -2.78,1.576 l 0.412,0.627 C -1.6,1.696 -0.69,1.181 0.334,0.672 Z"
           style="fill:#602320;fill-opacity:1;fill-rule:nonzero;stroke:none"
           id="path12864" /></g></g><g
       id="g7225"
       transform="matrix(0.89413371,0.09133625,0,0.89413371,336.06574,-113.94859)"><path
         style="fill:#9d000a;fill-opacity:1;stroke-width:3;paint-order:stroke markers fill;stop-color:#000000"
         d="m -350.40033,309.91601 c 28.94405,-23.48808 110.70338,-73.31764 170.46884,-72.55665 l 4.79532,7.43292 c -6.06369,11.51002 0.20188,81.8255 3.39013,98.25487 -54.42148,-7.0719 -124.35797,4.70763 -184.12797,30.37684 l -3.87343,-3.76243 c 2.10383,-14.85257 9.30472,-39.56879 9.34711,-59.74555 z"
         id="path5591"
         sodipodi:nodetypes="ccccccc" /><path
         style="fill:#e20d1a;fill-opacity:1;stroke-width:3;paint-order:stroke markers fill;stop-color:#000000"
         d="m -356.18452,300.57231 c 29.90376,-24.26689 116.28081,-67.12868 176.42961,-63.4204 -7.76703,9.08949 -0.96357,80.12217 2.22468,96.55154 -59.77,-3.92571 -123.09949,10.37076 -182.86949,36.03997 4.40144,-10.94355 4.1615,-43.61064 4.2152,-69.17111 z"
         id="path2617"
         sodipodi:nodetypes="ccccc" /><g
         id="g5589"
         transform="matrix(0.98241297,0,-0.01106121,0.98592596,1.8183781,5.7925938)"
         style="fill:#9d0009;fill-opacity:1"><g
           id="g5567"
           style="fill:#9d0009;fill-opacity:1"
           transform="matrix(0.96732596,0,0,0.96732596,-10.222279,11.679837)"><path
             id="path5551"
             style="font-weight:bold;font-size:56.1075px;line-height:1.3;font-family:Bangers;-inkscape-font-specification:'Bangers Bold';fill:#9d0009;fill-opacity:1;stroke-width:5.15166;paint-order:stroke markers fill"
             d="m -337.57255,296.60732 c -0.12798,-9e-5 -0.25856,0.003 -0.39171,0.0104 -0.51928,0.007 -1.12161,0.11437 -1.80971,0.32039 -0.68852,0.20583 -1.45864,0.51022 -2.31613,0.91002 -1.77241,0.82638 -4.14706,2.4321 -7.48276,4.77646 0.0441,3.81404 -0.0116,7.7439 -0.15244,11.47164 -0.14105,3.72775 -0.34678,6.71129 -0.7922,13.73353 2.66967,-1.66496 7.88065,-4.89789 7.88065,-4.89789 -0.086,-3.57051 -0.0859,-5.59998 0.0594,-7.33134 0.17622,-0.0666 0.50332,-0.20877 0.50332,-0.20877 1.49043,-0.62009 2.87605,-1.4456 4.146,-2.46754 1.26516,-1.03925 2.33146,-2.16784 3.18843,-3.39411 0.85411,-1.24725 1.47578,-2.54247 1.86242,-3.92121 0.38228,-1.40043 0.44403,-2.76166 0.17937,-4.09381 -0.4152,-2.08978 -1.25916,-3.62365 -2.56212,-4.37286 -0.64774,-0.35379 -1.41673,-0.53421 -2.31252,-0.53485 z m -3.76257,6.53242 c 0.31539,-0.01 0.63054,0.0481 0.94775,0.17157 0.61903,0.21849 1.01959,0.77847 1.20716,1.63763 0.33491,1.53394 0.11679,3.01536 -0.65008,4.51134 -0.69609,1.35111 -1.5785,2.31475 -2.62982,2.93575 0.061,-2.2701 0.1229,-5.07512 0.20825,-9.03511 0.11616,-0.0527 0.23249,-0.0958 0.34882,-0.12971 0.18941,-0.0552 0.3787,-0.0855 0.56792,-0.0915 z" /><path
             id="path5553"
             style="font-weight:bold;font-size:56.1075px;line-height:1.3;font-family:Bangers;-inkscape-font-specification:'Bangers Bold';fill:#9d0009;fill-opacity:1;stroke-width:5.15166;paint-order:stroke markers fill"
             d="m -280.52229,266.94608 c -0.078,-5.5e-4 -0.15699,4.9e-4 -0.23668,0.003 -0.62271,-0.006 -1.29558,0.086 -2.01848,0.27854 -0.72287,0.19199 -1.49522,0.48507 -2.31717,0.87902 -1.61226,0.7727 -3.11683,1.64163 -4.51394,2.59726 -1.39975,0.92458 -2.77918,1.86607 -4.13876,2.82205 -0.13335,2.90436 -0.46933,7.30805 -0.96066,12.47675 -0.48689,5.12182 -1.10979,10.43888 -1.75132,16.68012 1.06625,-0.32683 1.92494,-0.61515 2.58641,-0.87746 3.84614,-1.5252 7.38825,-3.79676 10.54561,-6.98511 2.77789,-2.85607 4.95897,-6.11296 6.53396,-10.06347 1.49645,-3.79316 2.14592,-7.39254 1.90066,-10.62364 -0.22327,-2.94152 -1.11933,-5.09091 -2.70991,-6.28333 -0.77779,-0.5891 -1.75052,-0.89496 -2.91972,-0.90331 z m -3.68505,8.0667 c 0.32763,-8.6e-4 0.61424,0.0578 0.85938,0.17518 0.71042,0.31219 1.10209,0.92306 1.17771,1.80971 0.0756,0.88643 0.007,2.16475 -0.20001,3.7791 -0.20701,1.61312 -0.72123,3.657 -1.526,6.02237 -1.42232,4.2048 -3.13058,7.00879 -5.10202,8.79998 0.23928,-2.95952 0.68074,-6.52965 1.36994,-11.40395 0.41231,-2.87569 0.77811,-5.73018 1.09348,-8.51939 0.44071,-0.21022 0.84765,-0.37 1.2206,-0.48007 0.41037,-0.1211 0.77928,-0.18192 1.1069,-0.18293 z" /><path
             style="font-weight:bold;font-size:56.1075px;line-height:1.3;font-family:Bangers;-inkscape-font-specification:'Bangers Bold';fill:#9d0009;fill-opacity:1;stroke-width:5.15166;paint-order:stroke markers fill"
             d="m -316.56115,284.46909 c -2.64336,1.71638 -6.06207,3.92361 -9.31688,5.97733 -3.10181,1.95718 -5.57907,3.46532 -5.57907,3.46532 -0.29329,7.45684 -0.0654,1.66194 -0.35884,9.11877 -0.11864,3.03733 -0.21128,5.49975 -0.2924,7.81602 -0.0802,2.28589 -0.13932,4.17128 -0.18863,5.81649 -0.0476,1.58589 -0.0791,2.7093 -0.0791,2.7093 4.81205,-2.94027 14.34849,-8.60221 14.34849,-8.60221 -0.0996,-1.17107 -0.31637,-3.38333 -0.31637,-3.38333 -2.1616,1.27878 -6.4895,3.8056 -6.4895,3.8056 0.0359,-0.72561 0.13635,-2.83222 0.17221,-3.55783 0.0584,-1.19896 0.10847,-2.21264 0.10847,-2.21264 0.92467,-0.47559 1.77153,-0.91601 2.51556,-1.30649 0.74875,-0.39294 1.4684,-0.76251 2.16141,-1.10858 0.68716,-0.36446 1.19757,-0.64142 1.52358,-0.8262 0.0292,-0.6393 0.0333,-1.26039 0.0124,-1.86212 0.005,-0.63734 0.01,-1.30406 0.013,-2.00227 -0.32579,0.19325 -1.05932,0.59933 -2.17417,1.20008 -1.15394,0.62181 -2.47182,1.34752 -4.16252,2.27968 0.0772,-1.12877 0.18426,-2.79577 0.28524,-4.41083 0.0981,-1.56889 0.18069,-2.93348 0.18069,-2.93348 1.06782,-0.56454 3.18289,-1.72015 3.18289,-1.72015 1.59602,-0.86707 2.85898,-1.60147 3.76783,-2.18577 0.0306,-0.48095 0.0828,-1.05316 0.15691,-1.72409 -0.005,0.0439 0.22924,-2.0925 0.22439,-2.0486 0.0716,-0.72343 0.1733,-1.49167 0.30465,-2.30405 0,0 -1.4e-4,5e-5 -1.4e-4,5e-5 z"
             id="path5555" /><path
             style="font-weight:bold;font-size:56.1075px;line-height:1.3;font-family:Bangers;-inkscape-font-specification:'Bangers Bold';fill:#9d0009;fill-opacity:1;stroke-width:5.15166;paint-order:stroke markers fill"
             d="m -295.34218,272.26339 c -1.93704,1.26397 -5.81784,3.81406 -5.81784,3.81406 -0.26238,2.67236 -0.47954,4.78344 -0.65786,6.43742 -0.14969,1.6018 -0.2785,2.87419 -0.38776,3.85226 -0.1129,0.95407 -0.20854,1.87441 -0.28704,2.76132 -0.0821,0.86251 -0.15231,1.6561 -0.21082,2.38856 -0.0585,0.73163 -0.11214,1.35752 -0.16218,1.88658 -0.49472,-0.88378 -1.00156,-1.97133 -1.51314,-3.30479 -0.25777,-0.67972 -0.53518,-1.39763 -0.83043,-2.15445 -0.26096,-0.76267 -0.60932,-1.79004 -1.0235,-3.06161 -0.43183,-1.34372 -0.95521,-2.98024 -1.63616,-5.19399 -0.64769,0.42184 -1.40629,0.90588 -2.27094,1.44951 -0.86908,0.51395 -1.73356,1.05886 -2.59407,1.63358 -0.86093,0.54268 -1.79233,1.1254 -2.77606,1.73644 0.0335,3.09804 -0.11365,7.47767 -0.38212,12.23699 -0.34256,6.07232 -0.56242,8.08066 -1.06984,15.27409 2.14304,-1.40052 6.42144,-4.1373 6.42144,-4.1373 0.2906,-4.16749 0.46402,-6.34398 0.59963,-8.88186 0.033,-0.69726 0.076,-1.36244 0.12956,-1.9891 0.0501,-0.64844 0.0859,-1.21165 0.10689,-1.68004 0.53202,1.20275 0.93271,2.16601 1.21725,2.98689 0.23705,0.5701 0.57799,1.41717 1.02378,2.50887 0.41261,0.9252 1.18794,2.87962 1.97722,5.17261 0.38214,-0.27278 1.61174,-1.06202 3.61914,-2.29118 2.04286,-1.24559 3.27494,-1.9469 3.62442,-2.09455 0.006,-2.3128 0.21187,-5.28944 0.67519,-9.81406 0.42148,-4.11591 1.23803,-11.16602 2.22519,-19.53623 0,0 8e-5,-2e-5 8e-5,-2e-5 z"
             id="path5557" /><path
             id="path5559"
             style="font-weight:bold;font-size:56.1075px;line-height:1.3;font-family:Bangers;-inkscape-font-specification:'Bangers Bold';fill:#9d0009;fill-opacity:1;stroke-width:4.87224;paint-order:stroke markers fill"
             d="m -239.86582,252.25551 c -0.0849,4.4e-4 -0.17059,0.003 -0.25708,0.005 -0.69181,0.0245 -1.43283,0.13498 -2.22278,0.33234 -1.54961,0.38716 -3.00082,0.89384 -4.35316,1.51313 -1.35453,0.58901 -2.69184,1.20493 -4.013,1.84693 -0.21018,2.79996 -0.66489,7.11312 -1.34891,12.73498 -0.67854,5.57673 -1.58151,12.2122 -2.5038,19.41893 1.06363,-0.0911 1.92077,-0.19354 2.58444,-0.32109 3.87697,-0.74507 7.42648,-2.474 10.65932,-5.51441 2.83085,-2.72312 5.04489,-6.09219 6.66147,-10.22092 1.53247,-3.95751 2.20453,-7.68801 2.0043,-11.08403 -0.18214,-3.08942 -1.02676,-5.4185 -2.53409,-6.94202 -0.78638,-0.8011 -1.78847,-1.33198 -3.00475,-1.5835 -0.51965,-0.12645 -1.07723,-0.18882 -1.67196,-0.18571 z m -2.54387,7.27336 c 0.65761,0.002 1.1902,0.16169 1.59767,0.47603 0.67571,0.49195 1.04088,1.21613 1.09527,2.16264 0.0544,0.94678 -0.0384,2.28027 -0.27663,3.9837 -0.23795,1.70142 -0.7872,3.84081 -1.63972,6.35991 -1.52146,4.52227 -3.27562,7.4721 -5.29299,9.11346 0.35155,-3.54938 0.93061,-7.82357 1.75357,-13.08248 0.49042,-3.09686 0.92238,-6.04117 1.29173,-8.80751 0.42751,-0.1089 0.82115,-0.17376 1.18128,-0.19647 0.099,-0.006 0.19587,-0.009 0.28982,-0.009 z" /><path
             style="font-weight:bold;font-size:56.1075px;line-height:1.3;font-family:Bangers;-inkscape-font-specification:'Bangers Bold';fill:#9d0009;fill-opacity:1;stroke-width:5.0618;paint-order:stroke markers fill"
             d="m -253.48081,255.85662 c -2.42563,0.91896 -7.28886,2.8832 -7.28886,2.8832 -0.57825,5.39909 -1.09402,9.72284 -1.54321,13.04262 -0.16901,1.29318 -0.33673,2.54742 -0.50342,3.76737 -0.138,1.18057 -0.29091,2.31678 -0.459,3.41021 -0.1392,1.05522 -0.26157,1.87941 -0.36888,2.48665 8.8e-4,-0.01 -0.23503,1.7085 -0.23365,1.69848 -0.0772,0.5608 -0.21658,1.12155 -0.41794,1.68192 -0.17044,0.55143 -0.42304,1.05553 -0.7582,1.51512 -0.30424,0.45066 -0.68681,0.73929 -1.14833,0.87252 -0.43052,0.1243 -0.79725,0.10323 -1.09899,-0.0627 -0.27369,-0.19995 -0.43619,-0.54679 -0.48588,-1.04698 -0.0498,-0.50154 0.0703,-1.68233 0.37201,-3.62955 0.0937,-0.60475 0.31721,-2.09632 0.64052,-4.3042 0.13886,-1.0647 0.30306,-2.25397 0.49385,-3.5837 0.18728,-1.30585 0.45063,-3.15576 0.77375,-5.46772 -1.14296,8.17924 2.50046,-17.91796 1.3575,-9.73871 -0.96713,0.45443 -1.90273,0.90556 -2.80568,1.35061 -0.87385,0.4018 -1.77724,0.83731 -2.71028,1.30813 -0.75866,0.38555 -1.6183,0.82489 -2.37696,1.21044 -0.094,0.65624 -0.35085,2.79941 -0.80263,6.55851 -0.0407,0.34937 -0.60318,5.22503 -0.64381,5.5744 -0.22827,1.98485 -0.43639,3.90354 -0.62131,5.73468 -0.15693,1.7977 -0.29672,3.46572 -0.4192,5.03076 -0.12472,1.53623 -0.19763,2.56549 -0.22708,3.13631 8.6e-4,0.55987 0.007,0.88518 0.0182,0.97755 0.004,0.0269 0.0299,0.25196 0.033,0.27883 0.1619,1.36748 0.96691,2.23587 2.40633,2.67769 1.26991,0.34731 2.73149,0.30957 4.37972,-0.12392 2.69024,-0.7075 5.00049,-1.87346 6.9392,-3.63079 1.01018,-0.93998 1.8674,-2.03413 2.57354,-3.30191 0.73713,-1.2752 1.26437,-2.84362 1.58609,-4.7418 0.31023,-1.86967 0.80576,-5.24558 1.47016,-10.12247 0.26085,-1.89801 0.53718,-4.1828 0.82794,-6.8646 0.32011,-2.72154 0.61499,-5.17034 0.87688,-7.27283 8.8e-4,-0.012 0.16304,-1.29211 0.16455,-1.3041 z"
             id="path5561" /><path
             style="font-weight:bold;font-size:56.1075px;line-height:1.3;font-family:Bangers;-inkscape-font-specification:'Bangers Bold';fill:#9d0009;fill-opacity:1;stroke-width:4.85843;paint-order:stroke markers fill"
             d="m -211.05179,246.45507 c -2.32108,0.45308 -6.99449,1.39258 -6.99449,1.39258 -0.49301,5.01743 -0.99129,9.42447 -1.41058,12.72179 -0.16094,1.31279 -0.32293,2.60994 -0.48496,3.88719 -0.13394,1.24219 -0.28314,2.45302 -0.44977,3.63066 -0.1378,1.14272 -0.26005,2.04601 -0.36729,2.71262 -7.1e-4,0.005 -0.23382,1.88608 -0.23453,1.8918 -0.0777,0.62925 -0.21757,1.24931 -0.41958,1.85942 -0.17122,0.60654 -0.42453,1.14369 -0.76074,1.61209 -0.3054,0.46488 -0.68859,0.722 -1.15049,0.77555 -0.4309,0.0499 -0.79708,-0.0592 -1.09744,-0.32705 -0.27202,-0.30176 -0.43109,-0.75313 -0.47692,-1.35651 -0.0459,-0.60347 0.0829,-1.97392 0.39523,-4.14189 0.10207,-0.70852 0.3226,-2.2925 0.65628,-4.69211 0.14145,-1.14221 0.3071,-2.39746 0.49749,-3.77367 -0.0806,0.58307 0.84118,-6.11225 0.76051,-5.52918 0.80503,-5.88243 0.47602,-3.46384 1.28105,-9.34626 -0.93254,0.23671 -1.83397,0.47361 -2.70678,0.71037 -0.84391,0.20095 -1.71799,0.42658 -2.62109,0.67833 -0.88098,0.24873 -1.63211,0.46178 -2.30338,0.6496 -0.088,0.58222 -0.35324,2.66317 -0.81488,6.32456 -0.20444,1.67414 -0.43717,3.60291 -0.6808,5.64738 -0.24599,2.06417 -0.47545,4.11521 -0.68505,6.13821 -0.18139,1.99105 -0.34651,3.89062 -0.49521,5.71388 -0.15034,1.78759 -0.24231,3.01901 -0.28185,3.70107 -0.009,0.67929 -0.008,1.07754 8.8e-4,1.19294 0.0166,0.12487 0.0276,0.34893 0.0276,0.34893 0.13797,1.7121 0.93048,2.98799 2.37445,3.88316 1.27364,0.73728 2.74909,1.03842 4.41201,0.88525 2.71788,-0.25033 5.03638,-1.18631 6.97832,-2.90575 1.01042,-0.92379 1.86272,-2.05828 2.56116,-3.40935 0.72918,-1.35365 1.24367,-3.07247 1.54965,-5.15706 0.29134,-2.03066 0.764,-5.75953 1.35809,-10.69187 0.23347,-1.91928 0.47725,-4.21522 0.72007,-6.82411 0.26767,-2.61206 0.51907,-5.01608 0.7292,-6.96938 -8.8e-4,0.009 0.13453,-1.24265 0.1335,-1.23319 z"
             id="path5563" /><path
             style="font-weight:bold;font-size:56.1075px;line-height:1.3;font-family:Bangers;-inkscape-font-specification:'Bangers Bold';fill:#9d0009;fill-opacity:1;stroke-width:4.87449;paint-order:stroke markers fill"
             d="m -186.2321,241.9173 c -2.66361,0.82783 -5.68586,1.56299 -9.16253,2.24911 -0.62217,1.15131 -1.83954,3.47733 -3.47947,6.59391 -0.83433,1.6028 -1.65611,3.13913 -2.44801,4.58355 -0.0841,0.035 -0.27385,0.0769 -0.27385,0.0769 0.22144,-1.78593 0.40211,-3.22362 0.53349,-4.23515 0.16229,-1.05969 0.27274,-1.8918 0.33334,-2.4971 0.0893,-0.64026 0.16636,-1.21573 0.23112,-1.72654 0.0643,-0.51034 0.11748,-0.94182 0.15948,-1.29197 0.0422,-0.35071 0.0749,-0.58968 0.098,-0.71822 -0.93934,0.10569 -1.83655,0.17558 -2.68898,0.20997 -0.8525,0.0344 -1.73561,0.0888 -2.64784,0.16397 -0.88333,0.0406 -1.69264,0.0584 -2.42597,0.0533 -0.30108,8.5254 -1.82706,19.09663 -4.38583,35.9392 2.57617,-0.57532 7.71133,-1.77213 7.71133,-1.77213 0.21023,-1.69703 0.41907,-3.29298 0.62003,-4.76056 0.19965,-1.50445 0.38767,-2.98909 0.56386,-4.45495 0.20646,-1.46544 0.39664,-2.71118 0.56534,-3.71958 0.28586,-0.35561 0.83502,-1.0953 0.83502,-1.0953 0.85434,4.73724 1.71355,9.14793 2.60809,13.33421 1.80927,-0.21035 3.53405,-0.38752 5.16004,-0.53143 1.65805,-0.14674 3.24432,-0.26273 4.75033,-0.34721 0.58539,1.5413 -4.13967,-10.89191 -3.55427,-9.35063 -1.14651,-3.03965 -2.13805,-6.14537 -2.98854,-9.34425 1.79874,-3.47794 5.19718,-9.05874 9.88617,-17.35918 0,0 -3e-4,-2e-5 -3e-4,-2e-5 z"
             id="path5565" /></g><g
           id="g5587"
           style="fill:#9d0009;fill-opacity:1"
           transform="matrix(0.85147592,0,0,0.85147592,-29.690562,46.828679)"><path
             id="path5569"
             style="font-weight:bold;font-size:53.5879px;line-height:1.3;font-family:Bangers;-inkscape-font-specification:'Bangers Bold';fill:#9d0009;fill-opacity:1;stroke-width:5.69633;paint-order:stroke markers fill"
             d="m -301.40499,301.61198 c -0.29348,-0.003 -0.5992,0.0165 -0.91725,0.0584 -0.56925,0.0751 -1.17678,0.22257 -1.82211,0.44184 -3.59537,1.22183 -6.9806,4.10537 -10.13892,8.42377 -2.90707,4.01122 -5.14962,8.40968 -6.72,12.962 -1.56937,4.5494 -2.18335,8.22095 -1.98231,11.25978 0.18455,2.78972 1.01532,4.65147 2.43964,5.73298 1.29424,0.98275 2.99492,1.2606 5.11029,0.7984 2.51881,-0.55035 5.14728,-2.03701 7.94163,-4.68912 1.35318,-1.28957 2.65784,-2.81422 3.92483,-4.60178 1.29899,-1.79463 2.46162,-3.79653 3.48867,-6.01411 1.02633,-2.21593 1.86811,-4.62193 2.51613,-7.21093 0.68302,-2.60187 1.07464,-4.95089 1.1498,-7.02127 0.13824,-3.80802 -0.28734,-6.55775 -1.3224,-8.15868 -0.85703,-1.2964 -2.0832,-1.96519 -3.668,-1.98127 z m -4.10259,12.02975 c 1.17878,-0.0301 1.74173,1.13416 1.70636,3.43597 -0.0215,1.40018 -0.26351,3.01285 -0.71159,4.81883 -0.41414,1.76338 -1.01615,3.46088 -1.79885,5.08651 -0.783,1.62623 -1.74603,3.05739 -2.88923,4.30671 -1.11152,1.21134 -2.39049,1.98598 -3.84835,2.37143 -0.41184,0.10887 -0.77891,0.10634 -1.10174,-0.007 -1.093,-0.27598 -1.66567,-0.96473 -1.70739,-2.10065 -0.0626,-1.70572 0.224,-3.66252 0.88677,-5.91747 0.8472,-2.76751 1.92217,-5.16874 3.21376,-7.12411 1.6254,-2.4509 3.48803,-4.06638 5.56813,-4.74235 0.15319,-0.0498 0.29958,-0.0856 0.43822,-0.10645 0.0841,-0.0126 0.16533,-0.0197 0.24391,-0.0217 z" /><path
             id="path5571"
             style="font-weight:bold;font-size:53.5879px;line-height:1.3;font-family:Bangers;-inkscape-font-specification:'Bangers Bold';fill:#9d0009;fill-opacity:1;stroke-width:5.69633;paint-order:stroke markers fill"
             d="m -328.50556,313.85025 c -0.50634,0.005 -1.04406,0.0653 -1.61282,0.18242 -0.75845,0.15654 -1.57059,0.41213 -2.43706,0.76895 -1.69948,0.69993 -3.28646,1.49707 -4.76043,2.38486 -1.47544,0.85469 -2.92806,1.72078 -4.35788,2.59571 -0.18605,3.08115 -0.57926,7.43461 -1.06608,12.80904 -0.301,3.32309 -1.16786,13.19631 -1.63814,17.29507 1.06938,-0.24105 1.9242,-0.45653 2.58537,-0.66301 3.84615,-1.20118 7.34353,-3.14744 10.53734,-6.25337 2.8045,-2.78042 5.03888,-6.1227 6.73912,-10.234 1.61306,-3.94 2.4148,-7.69547 2.2934,-11.06806 -0.11075,-3.07649 -0.93824,-5.35151 -2.54248,-6.68383 -0.83565,-0.70092 -1.91678,-1.07946 -3.24424,-1.11982 -0.16184,-0.0109 -0.32732,-0.0155 -0.4961,-0.014 z m -3.44216,8.19382 c 0.39215,0.007 0.72859,0.0875 1.00924,0.24184 0.72382,0.36852 1.10976,1.02403 1.16582,1.94717 0.0561,0.92373 -0.0441,2.24117 -0.28732,3.90984 -0.24267,1.6648 -0.80195,3.77241 -1.64228,6.20996 -1.49485,4.36122 -3.19545,7.18256 -5.1847,8.90075 0.25192,-3.07286 0.68679,-6.96135 1.41852,-11.94501 0.43613,-2.93055 0.86057,-5.91483 1.23558,-8.73383 0.45881,-0.18593 0.88225,-0.32304 1.26918,-0.41135 0.37259,-0.085 0.71095,-0.12459 1.01596,-0.11937 z" /><path
             style="font-weight:bold;font-size:53.5879px;line-height:1.3;font-family:Bangers;-inkscape-font-specification:'Bangers Bold';fill:#9d0009;fill-opacity:1;stroke-width:5.69633;paint-order:stroke markers fill"
             d="m -367.10711,331.47302 c -2.59884,1.58419 -7.92215,4.7949 -7.92215,4.7949 -0.15762,5.21784 -0.37969,12.5271 -0.55205,19.88091 -0.071,3.22077 -0.28779,5.97033 -0.73382,8.67255 0.0603,-0.0536 1.20431,-0.78774 3.38733,-2.08519 2.15334,-1.27981 3.72969,-2.12366 4.59052,-2.53126 0.0437,-1.47368 0.11832,-4.00523 0.241,-8.25822 0.12269,-4.25299 0.31213,-10.23397 0.98917,-20.47369 z"
             id="path5573" /><path
             style="font-weight:bold;font-size:53.5879px;line-height:1.3;font-family:Bangers;-inkscape-font-specification:'Bangers Bold';fill:#9d0009;fill-opacity:1;stroke-width:5.69633;paint-order:stroke markers fill"
             d="m -343.31828,319.2578 c -2.04302,1.14284 -6.13117,3.4105 -6.13117,3.4105 2.38276,-22.32664 -3.09056,28.94826 -0.70781,6.62163 -0.15317,1.64684 -0.27705,2.9412 -0.38208,3.95101 -0.10803,0.97944 -0.19664,1.9275 -0.26495,2.84684 -0.0721,0.89269 -0.13036,1.71893 -0.17637,2.48388 -0.0461,0.7672 -0.0872,1.41808 -0.12654,1.97631 -0.53896,-0.97986 -1.09833,-2.17678 -1.66113,-3.6192 -0.28482,-0.73783 -0.587,-1.50922 -0.90986,-2.3277 -0.28223,-0.80863 -0.67054,-1.9314 -1.11424,-3.28368 -0.44567,-1.37569 -1.04824,-3.25913 -1.74526,-5.60283 -0.68765,0.36967 -1.49183,0.7907 -2.41223,1.26343 -0.92435,0.44048 -1.84611,0.91413 -2.76502,1.4212 -0.92233,0.47449 -1.91338,0.98007 -2.9723,1.51566 0.0478,3.28908 -0.0672,7.95732 -0.20329,13.06265 -0.10588,3.9707 -0.28522,11.68041 -0.62887,16.19668 2.28347,-1.39104 6.75893,-3.99406 6.75893,-3.99406 0.21091,-3.36067 0.32067,-7.33241 0.35583,-9.27244 0.008,-0.75097 0.0303,-1.46291 0.0662,-2.13317 0.031,-0.69273 0.0512,-1.29415 0.059,-1.79303 0.6055,1.33517 1.06426,2.402 1.39628,3.31056 0.27201,0.63312 0.6648,1.57567 1.17236,2.77536 0.47293,1.03265 1.34656,3.15808 2.18111,5.44781 0.39356,-0.24927 1.65077,-0.95962 3.6931,-2.05524 2.07471,-1.10769 3.31605,-1.72161 3.66927,-1.84379 -0.003,-2.22782 0.14294,-5.64334 0.53673,-10.27038 0.42803,-5.02932 1.07469,-10.78283 2.31232,-20.08801 0,0 -2e-5,10e-6 -2e-5,10e-6 z"
             id="path5575" /><path
             style="font-weight:bold;font-size:53.5879px;line-height:1.3;font-family:Bangers;-inkscape-font-specification:'Bangers Bold';fill:#9d0009;fill-opacity:1;stroke-width:5.69633;paint-order:stroke markers fill"
             d="m -268.04495,291.74894 c -2.3457,0.7869 -7.02399,2.4061 -7.02399,2.4061 -0.75415,2.90473 -1.4905,5.63203 -1.99439,7.4741 -0.4933,1.90029 -0.92314,3.51431 -1.25447,4.72215 -0.33462,1.19522 -0.64956,2.37878 -0.94324,3.55357 -0.29136,1.14019 -0.5573,2.21497 -0.80044,3.23277 -0.24263,1.01609 -0.45768,1.90453 -0.64505,2.66336 -0.28659,-1.5439 -0.53797,-3.33204 -0.75452,-5.3811 -0.10704,-1.04117 -0.22982,-2.11761 -0.36809,-3.22724 -0.0997,-1.08879 -0.24026,-2.57676 -0.40861,-4.29382 -0.16337,-1.72348 -0.40578,-4.10017 -0.7102,-6.81023 -0.77385,0.27907 -1.66483,0.59154 -2.68888,0.94668 -1.0194,0.3177 -2.03779,0.67692 -3.05438,1.07607 -1.01208,0.36186 -2.10094,0.75127 -3.24944,1.16473 -0.54513,3.76061 -1.51314,8.71021 -2.91781,15.44933 -0.22962,1.10162 -4.19921,19.97095 -4.89851,23.21382 2.39013,-0.95108 7.36844,-2.97305 7.36844,-2.97305 1.07859,-5.02163 2.49204,-11.68801 2.98489,-14.08336 0.21635,-1.078 0.4323,-2.07827 0.6469,-2.99875 0.21645,-0.9555 0.39373,-1.76859 0.53114,-2.44262 0.24454,1.98736 0.40278,3.68897 0.47384,5.1038 0.0904,1.01817 0.20753,2.52524 0.35988,4.55286 0.18308,1.93359 0.38359,5.21384 0.58663,9.52549 0.47166,-0.24096 1.90859,-0.84672 4.31971,-1.81484 2.45793,-0.97884 3.9145,-1.50724 4.33209,-1.57512 0.63553,-3.7317 1.72605,-8.83593 3.38603,-15.32354 2.22469,-8.69464 3.37504,-12.22717 6.7224,-24.16116 0,0 7e-5,0 7e-5,0 z"
             id="path5577" /><path
             style="font-weight:bold;font-size:53.5879px;line-height:1.3;font-family:Bangers;-inkscape-font-specification:'Bangers Bold';fill:#9d0009;fill-opacity:1;stroke-width:5.69633;paint-order:stroke markers fill"
             d="m -247.28073,286.78679 c -6.11894,1.35376 -18.35502,4.65002 -18.35502,4.65002 -1.79037,7.03088 -4.5359,17.1696 -6.5958,25.47168 -2.0624,8.31213 -3.5136,14.77947 -3.5136,14.77947 5.81295,-1.72358 17.93733,-5.22524 17.93733,-5.22524 0.32684,-2.1604 0.99256,-6.50064 0.99256,-6.50064 -2.77224,0.83867 -8.25488,2.51783 -8.25488,2.51783 0.87101,-3.48529 2.69097,-10.50262 2.69097,-10.50262 0.56585,-0.11307 2.53046,-0.50342 3.0963,-0.61649 0.92447,-0.18391 1.81275,-0.34058 2.6639,-0.4711 0.85692,-0.16722 1.48545,-0.29637 1.89941,-0.39373 0.28052,-1.07862 0.52347,-2.11466 0.72761,-3.10904 -0.13155,0.55671 0.87724,-3.7195 0.74569,-3.16279 -0.42388,0.0995 -1.30109,0.26376 -2.69029,0.51721 -1.37356,0.25063 -3.09709,0.60038 -5.13294,1.05753 0.97766,-3.42121 2.95515,-10.36941 2.95515,-10.36941 1.29565,-0.20895 3.86976,-0.63306 3.86976,-0.63306 1.9522,-0.30563 3.4829,-0.57958 4.62393,-0.84847 0.17122,-0.60558 0.38757,-1.30657 0.65068,-2.11133 0.269,-0.79031 0.7851,-2.42133 0.7851,-2.42133 0.26365,-0.8482 0.56544,-1.72332 0.90416,-2.62849 0,0 -2e-5,0 -2e-5,0 z"
             id="path5579" /><path
             id="path5581"
             style="font-weight:bold;font-size:53.5879px;line-height:1.3;font-family:Bangers;-inkscape-font-specification:'Bangers Bold';fill:#9d0009;fill-opacity:1;stroke-width:6.00789;paint-order:stroke markers fill"
             d="m -192.11888,281.5649 c -2.96145,0.44188 -7.17007,0.62873 -13.76905,0.94452 -0.51288,1.76937 -1.11506,3.6578 -1.83184,5.7337 -0.6781,2.03718 -1.41027,4.117 -2.20572,6.31143 -0.74898,2.13743 -1.54306,4.34878 -2.3469,6.58448 -0.68795,1.88688 -1.9782,5.39534 -3.14536,8.66432 -1.25683,3.62957 -2.74866,8.05222 -4.49812,13.63552 1.32073,-0.27621 2.5988,-0.52652 3.83537,-0.75104 1.23685,-0.26404 2.47109,-0.52559 3.70401,-0.78429 0.36805,-0.0758 2.95336,-0.6034 3.3214,-0.67911 0.78029,-2.90859 2.35562,-8.54387 2.35562,-8.54387 1.7776,-0.0916 5.2448,-0.28886 5.2448,-0.28886 -0.23032,2.82136 -0.4756,6.07068 -0.69818,9.79906 1.01907,-0.23536 2.13191,-0.49475 3.34267,-0.77884 1.25006,-0.28688 2.43402,-0.54687 3.5514,-0.78048 1.15814,-0.23668 2.32702,-0.49065 3.50453,-0.76086 -0.69721,-9.01888 -0.73272,-16.17018 -0.60443,-25.77495 0.0385,-4.01014 0.16724,-9.31337 0.2398,-12.53073 z m -7.22489,6.96708 c -0.13124,1.63003 -0.42621,4.74775 -0.42621,4.74775 -0.35744,3.19948 -0.72261,6.71787 -1.01158,10.44928 -0.0734,0.66959 -0.14562,1.27091 -0.21747,1.8035 -0.0344,0.49598 -0.0501,0.85227 -0.0479,1.06498 -1.38026,0.14163 -4.23378,0.41587 -4.23378,0.41587 0.87035,-3.15133 2.18873,-7.75389 3.25491,-11.56224 1.06225,-3.79433 1.86127,-6.90061 1.86127,-6.90061 0.27473,-0.006 0.54813,-0.0128 0.82082,-0.0186 z" /><path
             style="font-weight:bold;font-size:53.5879px;line-height:1.3;font-family:Bangers;-inkscape-font-specification:'Bangers Bold';fill:#9d0009;fill-opacity:1;stroke-width:5.69633;paint-order:stroke markers fill"
             d="m -229.65972,284.72119 c -0.74923,-0.10058 -1.66173,-0.11336 -2.73841,-0.0335 -1.43633,0.10646 -3.24082,0.62766 -5.42873,1.58148 -2.14681,0.91248 -4.18283,2.11619 -6.10197,3.59099 -1.87767,1.43291 -3.50505,3.08514 -4.87302,4.93223 -1.33101,1.84266 -2.09769,3.76744 -2.29812,5.76274 -0.20066,1.99764 0.65683,3.74551 2.57467,5.27998 0.78298,0.68365 1.64601,1.32447 2.58981,1.92445 0.98448,0.5589 1.87872,1.13488 2.68083,1.7246 0.83974,0.58534 1.52862,1.22874 2.06691,1.9274 0.53843,0.69885 0.77112,1.52526 0.69743,2.47928 -0.0709,0.91796 -0.60116,1.7608 -1.59362,2.53286 -0.43681,0.34257 -0.92456,0.61854 -1.46314,0.82784 -0.50095,0.20494 -1.1274,0.35171 -1.87981,0.44192 -0.75306,0.0903 -1.84692,-0.21694 -3.27679,-0.90971 -1.43148,-0.65539 -2.36261,-1.45448 -2.79969,-2.40667 -1.63213,2.92508 -4.8356,8.76323 -4.8356,8.76323 2.46784,3.02075 5.36884,4.39185 8.68711,4.01625 4.50277,-0.50967 8.31747,-2.22304 11.44898,-5.16556 3.28492,-3.06562 5.01794,-6.63273 5.30708,-10.70084 0.24002,-3.37698 -0.43333,-5.96651 -2.04755,-7.81926 -0.71107,-0.75664 -1.48886,-1.36401 -2.3353,-1.82003 -0.84634,-0.45595 -1.63776,-0.89686 -2.37365,-1.32363 -0.69863,-0.4306 -1.28046,-0.90726 -1.74607,-1.4313 -0.46197,-0.56019 -0.64451,-1.31 -0.54845,-2.25356 0.0997,-0.97902 0.71617,-1.94563 1.84559,-2.88621 0.48451,-0.40825 0.96126,-0.74279 1.43008,-1.00304 0.46887,-0.26027 0.9261,-0.40934 1.37247,-0.44827 0.48356,-0.0421 0.90433,0.1754 1.26334,0.65056 0.3624,0.43868 0.50443,1.05723 0.42623,1.85255 -0.0782,0.7955 -0.24587,1.56076 -0.50326,2.29739 2.84191,-1.00067 8.434,-2.89437 8.434,-2.89437 0.12752,-0.61167 0.24971,-1.17216 0.36693,-1.67856 0.15436,-0.50857 0.25408,-1.03362 0.30076,-1.57563 0.19259,-2.23609 -0.37562,-3.94325 -1.69706,-5.0601 -0.61274,-0.48734 -1.36422,-0.8388 -2.25637,-1.04668 -0.21391,-0.0525 -0.44575,-0.0954 -0.6956,-0.12884 0,0 -1e-5,6e-5 -1e-5,6e-5 z"
             id="path5583" /><path
             style="font-weight:bold;font-size:53.5879px;line-height:1.3;font-family:Bangers;-inkscape-font-specification:'Bangers Bold';fill:#9d0009;fill-opacity:1;stroke-width:5.82733;paint-order:stroke markers fill"
             d="m -211.60408,283.11476 c -2.81304,0.46538 -8.68297,1.52232 -8.68297,1.52232 -1.35738,5.70582 -3.85726,13.96176 -7.03999,25.75869 -1.3611,5.06384 -2.80523,10.18205 -4.20128,14.70583 0.0806,-0.0465 1.49219,-0.38133 4.24454,-0.98901 2.74886,-0.60696 4.69243,-0.95445 5.80465,-1.05401 0.53412,-2.74754 1.57525,-7.68045 3.2391,-14.30688 1.66838,-6.64448 4.13361,-14.66124 6.63595,-25.63694 z"
             id="path5585" /></g></g><g
         id="g4097"
         transform="matrix(0.98241297,0,-0.01106121,0.98592596,-0.0265018,4.0477844)"><g
           id="g2615"
           style="fill:#ffffff;fill-opacity:1;stroke:none;stroke-width:1.05041;stroke-dasharray:none;stroke-opacity:1"
           transform="matrix(0.96732596,0,0,0.96732596,-10.222279,11.679837)"><path
             id="path2581"
             style="font-weight:bold;font-size:56.1075px;line-height:1.3;font-family:Bangers;-inkscape-font-specification:'Bangers Bold';fill:#ffffff;fill-opacity:1;stroke:none;stroke-width:1.05041;stroke-dasharray:none;stroke-opacity:1;paint-order:stroke markers fill"
             d="m -337.57255,296.60732 c -0.12798,-9e-5 -0.25856,0.003 -0.39171,0.0104 -0.51928,0.007 -1.12161,0.11437 -1.80971,0.32039 -0.68852,0.20583 -1.45864,0.51022 -2.31613,0.91002 -1.77241,0.82638 -4.14706,2.4321 -7.48276,4.77646 0.0441,3.81404 -0.0116,7.7439 -0.15244,11.47164 -0.14105,3.72775 -0.34678,6.71129 -0.7922,13.73353 2.66967,-1.66496 7.88065,-4.89789 7.88065,-4.89789 -0.086,-3.57051 -0.0859,-5.59998 0.0594,-7.33134 0.17622,-0.0666 0.50332,-0.20877 0.50332,-0.20877 1.49043,-0.62009 2.87605,-1.4456 4.146,-2.46754 1.26516,-1.03925 2.33146,-2.16784 3.18843,-3.39411 0.85411,-1.24725 1.47578,-2.54247 1.86242,-3.92121 0.38228,-1.40043 0.44403,-2.76166 0.17937,-4.09381 -0.4152,-2.08978 -1.25916,-3.62365 -2.56212,-4.37286 -0.64774,-0.35379 -1.41673,-0.53421 -2.31252,-0.53485 z m -3.76257,6.53242 c 0.31539,-0.01 0.63054,0.0481 0.94775,0.17157 0.61903,0.21849 1.01959,0.77847 1.20716,1.63763 0.33491,1.53394 0.11679,3.01536 -0.65008,4.51134 -0.69609,1.35111 -1.5785,2.31475 -2.62982,2.93575 0.061,-2.2701 0.1229,-5.07512 0.20825,-9.03511 0.11616,-0.0527 0.23249,-0.0958 0.34882,-0.12971 0.18941,-0.0552 0.3787,-0.0855 0.56792,-0.0915 z" /><path
             id="path2573"
             style="font-weight:bold;font-size:56.1075px;line-height:1.3;font-family:Bangers;-inkscape-font-specification:'Bangers Bold';fill:#ffffff;fill-opacity:1;stroke:none;stroke-width:1.05041;stroke-dasharray:none;stroke-opacity:1;paint-order:stroke markers fill"
             d="m -280.52229,266.94608 c -0.078,-5.5e-4 -0.15699,4.9e-4 -0.23668,0.003 -0.62271,-0.006 -1.29558,0.086 -2.01848,0.27854 -0.72287,0.19199 -1.49522,0.48507 -2.31717,0.87902 -1.61226,0.7727 -3.11683,1.64163 -4.51394,2.59726 -1.39975,0.92458 -2.77918,1.86607 -4.13876,2.82205 -0.13335,2.90436 -0.46933,7.30805 -0.96066,12.47675 -0.48689,5.12182 -1.10979,10.43888 -1.75132,16.68012 1.06625,-0.32683 1.92494,-0.61515 2.58641,-0.87746 3.84614,-1.5252 7.38825,-3.79676 10.54561,-6.98511 2.77789,-2.85607 4.95897,-6.11296 6.53396,-10.06347 1.49645,-3.79316 2.14592,-7.39254 1.90066,-10.62364 -0.22327,-2.94152 -1.11933,-5.09091 -2.70991,-6.28333 -0.77779,-0.5891 -1.75052,-0.89496 -2.91972,-0.90331 z m -3.68505,8.0667 c 0.32763,-8.6e-4 0.61424,0.0578 0.85938,0.17518 0.71042,0.31219 1.10209,0.92306 1.17771,1.80971 0.0756,0.88643 0.007,2.16475 -0.20001,3.7791 -0.20701,1.61312 -0.72123,3.657 -1.526,6.02237 -1.42232,4.2048 -3.13058,7.00879 -5.10202,8.79998 0.23928,-2.95952 0.68074,-6.52965 1.36994,-11.40395 0.41231,-2.87569 0.77811,-5.73018 1.09348,-8.51939 0.44071,-0.21022 0.84765,-0.37 1.2206,-0.48007 0.41037,-0.1211 0.77928,-0.18192 1.1069,-0.18293 z" /><path
             style="font-weight:bold;font-size:56.1075px;line-height:1.3;font-family:Bangers;-inkscape-font-specification:'Bangers Bold';fill:#ffffff;fill-opacity:1;stroke:none;stroke-width:1.05041;stroke-dasharray:none;stroke-opacity:1;paint-order:stroke markers fill"
             d="m -316.56115,284.46909 c -2.64336,1.71638 -6.06207,3.92361 -9.31688,5.97733 -3.10181,1.95718 -5.57907,3.46532 -5.57907,3.46532 -0.29329,7.45684 -0.0654,1.66194 -0.35884,9.11877 -0.11864,3.03733 -0.21128,5.49975 -0.2924,7.81602 -0.0802,2.28589 -0.13932,4.17128 -0.18863,5.81649 -0.0476,1.58589 -0.0791,2.7093 -0.0791,2.7093 4.81205,-2.94027 14.34849,-8.60221 14.34849,-8.60221 -0.0996,-1.17107 -0.31637,-3.38333 -0.31637,-3.38333 -2.1616,1.27878 -6.4895,3.8056 -6.4895,3.8056 0.0359,-0.72561 0.13635,-2.83222 0.17221,-3.55783 0.0584,-1.19896 0.10847,-2.21264 0.10847,-2.21264 0.92467,-0.47559 1.77153,-0.91601 2.51556,-1.30649 0.74875,-0.39294 1.4684,-0.76251 2.16141,-1.10858 0.68716,-0.36446 1.19757,-0.64142 1.52358,-0.8262 0.0292,-0.6393 0.0333,-1.26039 0.0124,-1.86212 0.005,-0.63734 0.01,-1.30406 0.013,-2.00227 -0.32579,0.19325 -1.05932,0.59933 -2.17417,1.20008 -1.15394,0.62181 -2.47182,1.34752 -4.16252,2.27968 0.0772,-1.12877 0.18426,-2.79577 0.28524,-4.41083 0.0981,-1.56889 0.18069,-2.93348 0.18069,-2.93348 1.06782,-0.56454 3.18289,-1.72015 3.18289,-1.72015 1.59602,-0.86707 2.85898,-1.60147 3.76783,-2.18577 0.0306,-0.48095 0.0828,-1.05316 0.15691,-1.72409 -0.005,0.0439 0.22924,-2.0925 0.22439,-2.0486 0.0716,-0.72343 0.1733,-1.49167 0.30465,-2.30405 0,0 -1.4e-4,5e-5 -1.4e-4,5e-5 z"
             id="path2577" /><path
             style="font-weight:bold;font-size:56.1075px;line-height:1.3;font-family:Bangers;-inkscape-font-specification:'Bangers Bold';fill:#ffffff;fill-opacity:1;stroke:none;stroke-width:1.05041;stroke-dasharray:none;stroke-opacity:1;paint-order:stroke markers fill"
             d="m -295.34218,272.26339 c -1.93704,1.26397 -5.81784,3.81406 -5.81784,3.81406 -0.26238,2.67236 -0.47954,4.78344 -0.65786,6.43742 -0.14969,1.6018 -0.2785,2.87419 -0.38776,3.85226 -0.1129,0.95407 -0.20854,1.87441 -0.28704,2.76132 -0.0821,0.86251 -0.15231,1.6561 -0.21082,2.38856 -0.0585,0.73163 -0.11214,1.35752 -0.16218,1.88658 -0.49472,-0.88378 -1.00156,-1.97133 -1.51314,-3.30479 -0.25777,-0.67972 -0.53518,-1.39763 -0.83043,-2.15445 -0.26096,-0.76267 -0.60932,-1.79004 -1.0235,-3.06161 -0.43183,-1.34372 -0.95521,-2.98024 -1.63616,-5.19399 -0.64769,0.42184 -1.40629,0.90588 -2.27094,1.44951 -0.86908,0.51395 -1.73356,1.05886 -2.59407,1.63358 -0.86093,0.54268 -1.79233,1.1254 -2.77606,1.73644 0.0335,3.09804 -0.11365,7.47767 -0.38212,12.23699 -0.34256,6.07232 -0.56242,8.08066 -1.06984,15.27409 2.14304,-1.40052 6.42144,-4.1373 6.42144,-4.1373 0.2906,-4.16749 0.46402,-6.34398 0.59963,-8.88186 0.033,-0.69726 0.076,-1.36244 0.12956,-1.9891 0.0501,-0.64844 0.0859,-1.21165 0.10689,-1.68004 0.53202,1.20275 0.93271,2.16601 1.21725,2.98689 0.23705,0.5701 0.57799,1.41717 1.02378,2.50887 0.41261,0.9252 1.18794,2.87962 1.97722,5.17261 0.38214,-0.27278 1.61174,-1.06202 3.61914,-2.29118 2.04286,-1.24559 3.27494,-1.9469 3.62442,-2.09455 0.006,-2.3128 0.21187,-5.28944 0.67519,-9.81406 0.42148,-4.11591 1.23803,-11.16602 2.22519,-19.53623 0,0 8e-5,-2e-5 8e-5,-2e-5 z"
             id="path2575" /><path
             id="path2567"
             style="font-weight:bold;font-size:56.1075px;line-height:1.3;font-family:Bangers;-inkscape-font-specification:'Bangers Bold';fill:#ffffff;fill-opacity:1;stroke:none;stroke-width:1.05041;stroke-dasharray:none;stroke-opacity:1;paint-order:stroke markers fill"
             d="m -239.86582,252.25551 c -0.0849,4.4e-4 -0.17059,0.003 -0.25708,0.005 -0.69181,0.0245 -1.43283,0.13498 -2.22278,0.33234 -1.54961,0.38716 -3.00082,0.89384 -4.35316,1.51313 -1.35453,0.58901 -2.69184,1.20493 -4.013,1.84693 -0.21018,2.79996 -0.66489,7.11312 -1.34891,12.73498 -0.67854,5.57673 -1.58151,12.2122 -2.5038,19.41893 1.06363,-0.0911 1.92077,-0.19354 2.58444,-0.32109 3.87697,-0.74507 7.42648,-2.474 10.65932,-5.51441 2.83085,-2.72312 5.04489,-6.09219 6.66147,-10.22092 1.53247,-3.95751 2.20453,-7.68801 2.0043,-11.08403 -0.18214,-3.08942 -1.02676,-5.4185 -2.53409,-6.94202 -0.78638,-0.8011 -1.78847,-1.33198 -3.00475,-1.5835 -0.51965,-0.12645 -1.07723,-0.18882 -1.67196,-0.18571 z m -2.54387,7.27336 c 0.65761,0.002 1.1902,0.16169 1.59767,0.47603 0.67571,0.49195 1.04088,1.21613 1.09527,2.16264 0.0544,0.94678 -0.0384,2.28027 -0.27663,3.9837 -0.23795,1.70142 -0.7872,3.84081 -1.63972,6.35991 -1.52146,4.52227 -3.27562,7.4721 -5.29299,9.11346 0.35155,-3.54938 0.93061,-7.82357 1.75357,-13.08248 0.49042,-3.09686 0.92238,-6.04117 1.29173,-8.80751 0.42751,-0.1089 0.82115,-0.17376 1.18128,-0.19647 0.099,-0.006 0.19587,-0.009 0.28982,-0.009 z" /><path
             style="font-weight:bold;font-size:56.1075px;line-height:1.3;font-family:Bangers;-inkscape-font-specification:'Bangers Bold';fill:#ffffff;fill-opacity:1;stroke:none;stroke-width:1.05041;stroke-dasharray:none;stroke-opacity:1;paint-order:stroke markers fill"
             d="m -253.48081,255.85662 c -2.42563,0.91896 -7.28886,2.8832 -7.28886,2.8832 -0.57825,5.39909 -1.09402,9.72284 -1.54321,13.04262 -0.16901,1.29318 -0.33673,2.54742 -0.50342,3.76737 -0.138,1.18057 -0.29091,2.31678 -0.459,3.41021 -0.1392,1.05522 -0.26157,1.87941 -0.36888,2.48665 8.8e-4,-0.01 -0.23503,1.7085 -0.23365,1.69848 -0.0772,0.5608 -0.21658,1.12155 -0.41794,1.68192 -0.17044,0.55143 -0.42304,1.05553 -0.7582,1.51512 -0.30424,0.45066 -0.68681,0.73929 -1.14833,0.87252 -0.43052,0.1243 -0.79725,0.10323 -1.09899,-0.0627 -0.27369,-0.19995 -0.43619,-0.54679 -0.48588,-1.04698 -0.0498,-0.50154 0.0703,-1.68233 0.37201,-3.62955 0.0937,-0.60475 0.31721,-2.09632 0.64052,-4.3042 0.13886,-1.0647 0.30306,-2.25397 0.49385,-3.5837 0.18728,-1.30585 0.45063,-3.15576 0.77375,-5.46772 -1.14296,8.17924 1.35455,-10.00071 1.3575,-9.73871 -0.96713,0.45443 -1.90273,0.90556 -2.80568,1.35061 -0.87385,0.4018 -1.77724,0.83731 -2.71028,1.30813 -0.75866,0.38555 -1.6183,0.82489 -2.37696,1.21044 -0.094,0.65624 -0.35085,2.79941 -0.80263,6.55851 -0.0407,0.34937 -0.60318,5.22503 -0.64381,5.5744 -0.22827,1.98485 -0.43639,3.90354 -0.62131,5.73468 -0.15693,1.7977 -0.29672,3.46572 -0.4192,5.03076 -0.12472,1.53623 -0.19763,2.56549 -0.22708,3.13631 8.6e-4,0.55987 0.007,0.88518 0.0182,0.97755 0.004,0.0269 0.0299,0.25196 0.033,0.27883 0.1619,1.36748 0.96691,2.23587 2.40633,2.67769 1.26991,0.34731 2.73149,0.30957 4.37972,-0.12392 2.69024,-0.7075 5.00049,-1.87346 6.9392,-3.63079 1.01018,-0.93998 1.8674,-2.03413 2.57354,-3.30191 0.73713,-1.2752 1.26437,-2.84362 1.58609,-4.7418 0.31023,-1.86967 0.80576,-5.24558 1.47016,-10.12247 0.26085,-1.89801 0.53718,-4.1828 0.82794,-6.8646 0.32011,-2.72154 0.61499,-5.17034 0.87688,-7.27283 8.8e-4,-0.012 0.16304,-1.29211 0.16455,-1.3041 z"
             id="path2569"
             sodipodi:nodetypes="cccccccccscsscccccccccccccccscccccccc" /><path
             style="font-weight:bold;font-size:56.1075px;line-height:1.3;font-family:Bangers;-inkscape-font-specification:'Bangers Bold';fill:#ffffff;fill-opacity:1;stroke:none;stroke-width:1.05041;stroke-dasharray:none;stroke-opacity:1;paint-order:stroke markers fill"
             d="m -211.05179,246.45507 c -2.32108,0.45308 -6.99449,1.39258 -6.99449,1.39258 -0.49301,5.01743 -0.99129,9.42447 -1.41058,12.72179 -0.16094,1.31279 -0.32293,2.60994 -0.48496,3.88719 -0.13394,1.24219 -0.28314,2.45302 -0.44977,3.63066 -0.1378,1.14272 -0.26005,2.04601 -0.36729,2.71262 -7.1e-4,0.005 -0.23382,1.88608 -0.23453,1.8918 -0.0777,0.62925 -0.21757,1.24931 -0.41958,1.85942 -0.17122,0.60654 -0.42453,1.14369 -0.76074,1.61209 -0.3054,0.46488 -0.68859,0.722 -1.15049,0.77555 -0.4309,0.0499 -0.79708,-0.0592 -1.09744,-0.32705 -0.27202,-0.30176 -0.43109,-0.75313 -0.47692,-1.35651 -0.0459,-0.60347 0.0829,-1.97392 0.39523,-4.14189 0.10207,-0.70852 0.3226,-2.2925 0.65628,-4.69211 0.14145,-1.14221 0.3071,-2.39746 0.49749,-3.77367 -0.0806,0.58307 0.84118,-6.11225 0.76051,-5.52918 0.80503,-5.88243 0.47602,-3.46384 1.28105,-9.34626 -0.93254,0.23671 -1.83397,0.47361 -2.70678,0.71037 -0.84391,0.20095 -1.71799,0.42658 -2.62109,0.67833 -0.88098,0.24873 -1.63211,0.46178 -2.30338,0.6496 -0.088,0.58222 -0.35324,2.66317 -0.81488,6.32456 -0.20444,1.67414 -0.43717,3.60291 -0.6808,5.64738 -0.24599,2.06417 -0.47545,4.11521 -0.68505,6.13821 -0.18139,1.99105 -0.34651,3.89062 -0.49521,5.71388 -0.15034,1.78759 -0.24231,3.01901 -0.28185,3.70107 -0.009,0.67929 -0.008,1.07754 8.8e-4,1.19294 0.0166,0.12487 0.0276,0.34893 0.0276,0.34893 0.13797,1.7121 0.93048,2.98799 2.37445,3.88316 1.27364,0.73728 2.74909,1.03842 4.41201,0.88525 2.71788,-0.25033 5.03638,-1.18631 6.97832,-2.90575 1.01042,-0.92379 1.86272,-2.05828 2.56116,-3.40935 0.72918,-1.35365 1.24367,-3.07247 1.54965,-5.15706 0.29134,-2.03066 0.764,-5.75953 1.35809,-10.69187 0.23347,-1.91928 0.47725,-4.21522 0.72007,-6.82411 0.26767,-2.61206 0.51907,-5.01608 0.7292,-6.96938 -8.8e-4,0.009 0.13453,-1.24265 0.1335,-1.23319 z"
             id="path2565" /><path
             style="font-weight:bold;font-size:56.1075px;line-height:1.3;font-family:Bangers;-inkscape-font-specification:'Bangers Bold';fill:#ffffff;fill-opacity:1;stroke:none;stroke-width:1.05041;stroke-dasharray:none;stroke-opacity:1;paint-order:stroke markers fill"
             d="m -186.2321,241.9173 c -2.66361,0.82783 -5.68586,1.56299 -9.16253,2.24911 -0.62217,1.15131 -1.83954,3.47733 -3.47947,6.59391 -0.83433,1.6028 -1.65611,3.13913 -2.44801,4.58355 -0.0841,0.035 -0.27385,0.0769 -0.27385,0.0769 0.22144,-1.78593 0.40211,-3.22362 0.53349,-4.23515 0.16229,-1.05969 0.27274,-1.8918 0.33334,-2.4971 0.0893,-0.64026 0.16636,-1.21573 0.23112,-1.72654 0.0643,-0.51034 0.11748,-0.94182 0.15948,-1.29197 0.0422,-0.35071 0.0749,-0.58968 0.098,-0.71822 -0.93934,0.10569 -1.83655,0.17558 -2.68898,0.20997 -0.8525,0.0344 -1.73561,0.0888 -2.64784,0.16397 -0.88333,0.0406 -1.69264,0.0584 -2.42597,0.0533 -0.30108,8.5254 -1.82706,19.09663 -4.38583,35.9392 2.57617,-0.57532 7.71133,-1.77213 7.71133,-1.77213 0.21023,-1.69703 0.41907,-3.29298 0.62003,-4.76056 0.19965,-1.50445 0.38767,-2.98909 0.56386,-4.45495 0.20646,-1.46544 0.39664,-2.71118 0.56534,-3.71958 0.28586,-0.35561 0.83502,-1.0953 0.83502,-1.0953 0.85434,4.73724 1.71355,9.14793 2.60809,13.33421 1.80927,-0.21035 3.53405,-0.38752 5.16004,-0.53143 1.65805,-0.14674 3.24432,-0.26273 4.75033,-0.34721 0.58539,1.5413 -4.13967,-10.89191 -3.55427,-9.35063 -1.14651,-3.03965 -2.13805,-6.14537 -2.98854,-9.34425 1.79874,-3.47794 5.19718,-9.05874 9.88617,-17.35918 0,0 -3e-4,-2e-5 -3e-4,-2e-5 z"
             id="path1508" /></g><g
           id="g2317"
           style="fill:#ffffff;stroke:none;stroke-width:1.19332;stroke-dasharray:none;stroke-opacity:1"
           transform="matrix(0.85147592,0,0,0.85147592,-29.690562,46.828679)"><path
             id="path1493"
             style="font-weight:bold;font-size:53.5879px;line-height:1.3;font-family:Bangers;-inkscape-font-specification:'Bangers Bold';fill:#ffffff;stroke:none;stroke-width:1.19332;stroke-dasharray:none;stroke-opacity:1;paint-order:stroke markers fill"
             d="m -301.40499,301.61198 c -0.29348,-0.003 -0.5992,0.0165 -0.91725,0.0584 -0.56925,0.0751 -1.17678,0.22257 -1.82211,0.44184 -3.59537,1.22183 -6.9806,4.10537 -10.13892,8.42377 -2.90707,4.01122 -5.14962,8.40968 -6.72,12.962 -1.56937,4.5494 -2.18335,8.22095 -1.98231,11.25978 0.18455,2.78972 1.01532,4.65147 2.43964,5.73298 1.29424,0.98275 2.99492,1.2606 5.11029,0.7984 2.51881,-0.55035 5.14728,-2.03701 7.94163,-4.68912 1.35318,-1.28957 2.65784,-2.81422 3.92483,-4.60178 1.29899,-1.79463 2.46162,-3.79653 3.48867,-6.01411 1.02633,-2.21593 1.86811,-4.62193 2.51613,-7.21093 0.68302,-2.60187 1.07464,-4.95089 1.1498,-7.02127 0.13824,-3.80802 -0.28734,-6.55775 -1.3224,-8.15868 -0.85703,-1.2964 -2.0832,-1.96519 -3.668,-1.98127 z m -4.10259,12.02975 c 1.17878,-0.0301 1.74173,1.13416 1.70636,3.43597 -0.0215,1.40018 -0.26351,3.01285 -0.71159,4.81883 -0.41414,1.76338 -1.01615,3.46088 -1.79885,5.08651 -0.783,1.62623 -1.74603,3.05739 -2.88923,4.30671 -1.11152,1.21134 -2.39049,1.98598 -3.84835,2.37143 -0.41184,0.10887 -0.77891,0.10634 -1.10174,-0.007 -1.093,-0.27598 -1.66567,-0.96473 -1.70739,-2.10065 -0.0626,-1.70572 0.224,-3.66252 0.88677,-5.91747 0.8472,-2.76751 1.92217,-5.16874 3.21376,-7.12411 1.6254,-2.4509 3.48803,-4.06638 5.56813,-4.74235 0.15319,-0.0498 0.29958,-0.0856 0.43822,-0.10645 0.0841,-0.0126 0.16533,-0.0197 0.24391,-0.0217 z" /><path
             id="path1495"
             style="font-weight:bold;font-size:53.5879px;line-height:1.3;font-family:Bangers;-inkscape-font-specification:'Bangers Bold';fill:#ffffff;stroke:none;stroke-width:1.19332;stroke-dasharray:none;stroke-opacity:1;paint-order:stroke markers fill"
             d="m -328.50556,313.85025 c -0.50634,0.005 -1.04406,0.0653 -1.61282,0.18242 -0.75845,0.15654 -1.57059,0.41213 -2.43706,0.76895 -1.69948,0.69993 -3.28646,1.49707 -4.76043,2.38486 -1.47544,0.85469 -2.92806,1.72078 -4.35788,2.59571 -0.18605,3.08115 -0.57926,7.43461 -1.06608,12.80904 -0.301,3.32309 -1.16786,13.19631 -1.63814,17.29507 1.06938,-0.24105 1.9242,-0.45653 2.58537,-0.66301 3.84615,-1.20118 7.34353,-3.14744 10.53734,-6.25337 2.8045,-2.78042 5.03888,-6.1227 6.73912,-10.234 1.61306,-3.94 2.4148,-7.69547 2.2934,-11.06806 -0.11075,-3.07649 -0.93824,-5.35151 -2.54248,-6.68383 -0.83565,-0.70092 -1.91678,-1.07946 -3.24424,-1.11982 -0.16184,-0.0109 -0.32732,-0.0155 -0.4961,-0.014 z m -3.44216,8.19382 c 0.39215,0.007 0.72859,0.0875 1.00924,0.24184 0.72382,0.36852 1.10976,1.02403 1.16582,1.94717 0.0561,0.92373 -0.0441,2.24117 -0.28732,3.90984 -0.24267,1.6648 -0.80195,3.77241 -1.64228,6.20996 -1.49485,4.36122 -3.19545,7.18256 -5.1847,8.90075 0.25192,-3.07286 0.68679,-6.96135 1.41852,-11.94501 0.43613,-2.93055 0.86057,-5.91483 1.23558,-8.73383 0.45881,-0.18593 0.88225,-0.32304 1.26918,-0.41135 0.37259,-0.085 0.71095,-0.12459 1.01596,-0.11937 z" /><path
             style="font-weight:bold;font-size:53.5879px;line-height:1.3;font-family:Bangers;-inkscape-font-specification:'Bangers Bold';fill:#ffffff;stroke:none;stroke-width:1.19332;stroke-dasharray:none;stroke-opacity:1;paint-order:stroke markers fill"
             d="m -367.10711,331.47302 c -2.59884,1.58419 -7.92215,4.7949 -7.92215,4.7949 -0.15762,5.21784 -0.37969,12.5271 -0.55205,19.88091 -0.071,3.22077 -0.28779,5.97033 -0.73382,8.67255 0.0603,-0.0536 1.20431,-0.78774 3.38733,-2.08519 2.15334,-1.27981 3.72969,-2.12366 4.59052,-2.53126 0.0437,-1.47368 0.11832,-4.00523 0.241,-8.25822 0.12269,-4.25299 0.31213,-10.23397 0.98917,-20.47369 z"
             id="path1501" /><path
             style="font-weight:bold;font-size:53.5879px;line-height:1.3;font-family:Bangers;-inkscape-font-specification:'Bangers Bold';fill:#ffffff;stroke:none;stroke-width:1.19332;stroke-dasharray:none;stroke-opacity:1;paint-order:stroke markers fill"
             d="m -343.31828,319.2578 c -2.04302,1.14284 -6.13117,3.4105 -6.13117,3.4105 -0.004,-0.33225 -3.09056,28.94826 -0.70781,6.62163 -0.15317,1.64684 -0.27705,2.9412 -0.38208,3.95101 -0.10803,0.97944 -0.19664,1.9275 -0.26495,2.84684 -0.0721,0.89269 -0.13036,1.71893 -0.17637,2.48388 -0.0461,0.7672 -0.0872,1.41808 -0.12654,1.97631 -0.53896,-0.97986 -1.09833,-2.17678 -1.66113,-3.6192 -0.28482,-0.73783 -0.587,-1.50922 -0.90986,-2.3277 -0.28223,-0.80863 -0.67054,-1.9314 -1.11424,-3.28368 -0.44567,-1.37569 -1.04824,-3.25913 -1.74526,-5.60283 -0.68765,0.36967 -1.49183,0.7907 -2.41223,1.26343 -0.92435,0.44048 -1.84611,0.91413 -2.76502,1.4212 -0.92233,0.47449 -1.91338,0.98007 -2.9723,1.51566 0.0478,3.28908 -0.0672,7.95732 -0.20329,13.06265 -0.10588,3.9707 -0.28522,11.68041 -0.62887,16.19668 2.28347,-1.39104 6.75893,-3.99406 6.75893,-3.99406 0.21091,-3.36067 0.32067,-7.33241 0.35583,-9.27244 0.008,-0.75097 0.0303,-1.46291 0.0662,-2.13317 0.031,-0.69273 0.0512,-1.29415 0.059,-1.79303 0.6055,1.33517 1.06426,2.402 1.39628,3.31056 0.27201,0.63312 0.6648,1.57567 1.17236,2.77536 0.47293,1.03265 1.34656,3.15808 2.18111,5.44781 0.39356,-0.24927 1.65077,-0.95962 3.6931,-2.05524 2.07471,-1.10769 3.31605,-1.72161 3.66927,-1.84379 -0.003,-2.22782 0.14294,-5.64334 0.53673,-10.27038 0.42803,-5.02932 1.07469,-10.78283 2.31232,-20.08801 l -2e-5,10e-6 z"
             id="path1497"
             sodipodi:nodetypes="sccccsccccccccsccccccccccsscs" /><path
             style="font-weight:bold;font-size:53.5879px;line-height:1.3;font-family:Bangers;-inkscape-font-specification:'Bangers Bold';fill:#ffffff;stroke:none;stroke-width:1.19332;stroke-dasharray:none;stroke-opacity:1;paint-order:stroke markers fill"
             d="m -268.04495,291.74894 c -2.3457,0.7869 -7.02399,2.4061 -7.02399,2.4061 -0.75415,2.90473 -1.4905,5.63203 -1.99439,7.4741 -0.4933,1.90029 -0.92314,3.51431 -1.25447,4.72215 -0.33462,1.19522 -0.64956,2.37878 -0.94324,3.55357 -0.29136,1.14019 -0.5573,2.21497 -0.80044,3.23277 -0.24263,1.01609 -0.45768,1.90453 -0.64505,2.66336 -0.28659,-1.5439 -0.53797,-3.33204 -0.75452,-5.3811 -0.10704,-1.04117 -0.22982,-2.11761 -0.36809,-3.22724 -0.0997,-1.08879 -0.24026,-2.57676 -0.40861,-4.29382 -0.16337,-1.72348 -0.40578,-4.10017 -0.7102,-6.81023 -0.77385,0.27907 -1.66483,0.59154 -2.68888,0.94668 -1.0194,0.3177 -2.03779,0.67692 -3.05438,1.07607 -1.01208,0.36186 -2.10094,0.75127 -3.24944,1.16473 -0.54513,3.76061 -1.51314,8.71021 -2.91781,15.44933 -0.22962,1.10162 -4.19921,19.97095 -4.89851,23.21382 2.39013,-0.95108 7.36844,-2.97305 7.36844,-2.97305 1.07859,-5.02163 2.49204,-11.68801 2.98489,-14.08336 0.21635,-1.078 0.4323,-2.07827 0.6469,-2.99875 0.21645,-0.9555 0.39373,-1.76859 0.53114,-2.44262 0.24454,1.98736 0.40278,3.68897 0.47384,5.1038 0.0904,1.01817 0.20753,2.52524 0.35988,4.55286 0.18308,1.93359 0.38359,5.21384 0.58663,9.52549 0.47166,-0.24096 1.90859,-0.84672 4.31971,-1.81484 2.45793,-0.97884 3.9145,-1.50724 4.33209,-1.57512 0.63553,-3.7317 1.72605,-8.83593 3.38603,-15.32354 2.22469,-8.69464 3.37504,-12.22717 6.7224,-24.16116 0,0 7e-5,0 7e-5,0 z"
             id="path1491" /><path
             style="font-weight:bold;font-size:53.5879px;line-height:1.3;font-family:Bangers;-inkscape-font-specification:'Bangers Bold';fill:#ffffff;stroke:none;stroke-width:1.19332;stroke-dasharray:none;stroke-opacity:1;paint-order:stroke markers fill"
             d="m -247.28073,286.78679 c -6.11894,1.35376 -18.35502,4.65002 -18.35502,4.65002 -1.79037,7.03088 -4.5359,17.1696 -6.5958,25.47168 -2.0624,8.31213 -3.5136,14.77947 -3.5136,14.77947 5.81295,-1.72358 17.93733,-5.22524 17.93733,-5.22524 0.32684,-2.1604 0.99256,-6.50064 0.99256,-6.50064 -2.77224,0.83867 -8.25488,2.51783 -8.25488,2.51783 0.87101,-3.48529 2.69097,-10.50262 2.69097,-10.50262 0.56585,-0.11307 2.53046,-0.50342 3.0963,-0.61649 0.92447,-0.18391 1.81275,-0.34058 2.6639,-0.4711 0.85692,-0.16722 1.48545,-0.29637 1.89941,-0.39373 0.28052,-1.07862 0.52347,-2.11466 0.72761,-3.10904 -0.13155,0.55671 0.87724,-3.7195 0.74569,-3.16279 -0.42388,0.0995 -1.30109,0.26376 -2.69029,0.51721 -1.37356,0.25063 -3.09709,0.60038 -5.13294,1.05753 0.97766,-3.42121 2.95515,-10.36941 2.95515,-10.36941 1.29565,-0.20895 3.86976,-0.63306 3.86976,-0.63306 1.9522,-0.30563 3.4829,-0.57958 4.62393,-0.84847 0.17122,-0.60558 0.38757,-1.30657 0.65068,-2.11133 0.269,-0.79031 0.7851,-2.42133 0.7851,-2.42133 0.26365,-0.8482 0.56544,-1.72332 0.90416,-2.62849 0,0 -2e-5,0 -2e-5,0 z"
             id="path1489" /><path
             id="path1438"
             style="font-weight:bold;font-size:53.5879px;line-height:1.3;font-family:Bangers;-inkscape-font-specification:'Bangers Bold';fill:#ffffff;stroke:none;stroke-width:1.19332;stroke-dasharray:none;stroke-opacity:1;paint-order:stroke markers fill"
             d="m -192.11888,281.5649 c -2.96145,0.44188 -7.17007,0.62873 -13.76905,0.94452 -0.51288,1.76937 -1.11506,3.6578 -1.83184,5.7337 -0.6781,2.03718 -1.41027,4.117 -2.20572,6.31143 -0.74898,2.13743 -1.54306,4.34878 -2.3469,6.58448 -0.68795,1.88688 -1.9782,5.39534 -3.14536,8.66432 -1.25683,3.62957 -2.74866,8.05222 -4.49812,13.63552 1.32073,-0.27621 2.5988,-0.52652 3.83537,-0.75104 1.23685,-0.26404 2.47109,-0.52559 3.70401,-0.78429 0.36805,-0.0758 2.95336,-0.6034 3.3214,-0.67911 0.78029,-2.90859 2.35562,-8.54387 2.35562,-8.54387 1.7776,-0.0916 5.2448,-0.28886 5.2448,-0.28886 -0.23032,2.82136 -0.4756,6.07068 -0.69818,9.79906 1.01907,-0.23536 2.13191,-0.49475 3.34267,-0.77884 1.25006,-0.28688 2.43402,-0.54687 3.5514,-0.78048 1.15814,-0.23668 2.32702,-0.49065 3.50453,-0.76086 -0.69721,-9.01888 -0.73272,-16.17018 -0.60443,-25.77495 0.0385,-4.01014 0.16724,-9.31337 0.2398,-12.53073 z m -7.22489,6.96708 c -0.13124,1.63003 -0.42621,4.74775 -0.42621,4.74775 -0.35744,3.19948 -0.72261,6.71787 -1.01158,10.44928 -0.0734,0.66959 -0.14562,1.27091 -0.21747,1.8035 -0.0344,0.49598 -0.0501,0.85227 -0.0479,1.06498 -1.38026,0.14163 -4.23378,0.41587 -4.23378,0.41587 0.87035,-3.15133 2.18873,-7.75389 3.25491,-11.56224 1.06225,-3.79433 1.86127,-6.90061 1.86127,-6.90061 0.27473,-0.006 0.54813,-0.0128 0.82082,-0.0186 z" /><path
             style="font-weight:bold;font-size:53.5879px;line-height:1.3;font-family:Bangers;-inkscape-font-specification:'Bangers Bold';fill:#ffffff;stroke:none;stroke-width:1.19332;stroke-dasharray:none;stroke-opacity:1;paint-order:stroke markers fill"
             d="m -229.65972,284.72119 c -0.74923,-0.10058 -1.66173,-0.11336 -2.73841,-0.0335 -1.43633,0.10646 -3.24082,0.62766 -5.42873,1.58148 -2.14681,0.91248 -4.18283,2.11619 -6.10197,3.59099 -1.87767,1.43291 -3.50505,3.08514 -4.87302,4.93223 -1.33101,1.84266 -2.09769,3.76744 -2.29812,5.76274 -0.20066,1.99764 0.65683,3.74551 2.57467,5.27998 0.78298,0.68365 1.64601,1.32447 2.58981,1.92445 0.98448,0.5589 1.87872,1.13488 2.68083,1.7246 0.83974,0.58534 1.52862,1.22874 2.06691,1.9274 0.53843,0.69885 0.77112,1.52526 0.69743,2.47928 -0.0709,0.91796 -0.60116,1.7608 -1.59362,2.53286 -0.43681,0.34257 -0.92456,0.61854 -1.46314,0.82784 -0.50095,0.20494 -1.1274,0.35171 -1.87981,0.44192 -0.75306,0.0903 -1.84692,-0.21694 -3.27679,-0.90971 -1.43148,-0.65539 -2.36261,-1.45448 -2.79969,-2.40667 -1.63213,2.92508 -4.8356,8.76323 -4.8356,8.76323 2.46784,3.02075 5.36884,4.39185 8.68711,4.01625 4.50277,-0.50967 8.31747,-2.22304 11.44898,-5.16556 3.28492,-3.06562 5.01794,-6.63273 5.30708,-10.70084 0.24002,-3.37698 -0.43333,-5.96651 -2.04755,-7.81926 -0.71107,-0.75664 -1.48886,-1.36401 -2.3353,-1.82003 -0.84634,-0.45595 -1.63776,-0.89686 -2.37365,-1.32363 -0.69863,-0.4306 -1.28046,-0.90726 -1.74607,-1.4313 -0.46197,-0.56019 -0.64451,-1.31 -0.54845,-2.25356 0.0997,-0.97902 0.71617,-1.94563 1.84559,-2.88621 0.48451,-0.40825 0.96126,-0.74279 1.43008,-1.00304 0.46887,-0.26027 0.9261,-0.40934 1.37247,-0.44827 0.48356,-0.0421 0.90433,0.1754 1.26334,0.65056 0.3624,0.43868 0.50443,1.05723 0.42623,1.85255 -0.0782,0.7955 -0.24587,1.56076 -0.50326,2.29739 2.84191,-1.00067 8.434,-2.89437 8.434,-2.89437 0.12752,-0.61167 0.24971,-1.17216 0.36693,-1.67856 0.15436,-0.50857 0.25408,-1.03362 0.30076,-1.57563 0.19259,-2.23609 -0.37562,-3.94325 -1.69706,-5.0601 -0.61274,-0.48734 -1.36422,-0.8388 -2.25637,-1.04668 -0.21391,-0.0525 -0.44575,-0.0954 -0.6956,-0.12884 0,0 -1e-5,6e-5 -1e-5,6e-5 z"
             id="path1485" /><path
             style="font-weight:bold;font-size:53.5879px;line-height:1.3;font-family:Bangers;-inkscape-font-specification:'Bangers Bold';fill:#ffffff;stroke:none;stroke-width:1.19332;stroke-dasharray:none;stroke-opacity:1;paint-order:stroke markers fill"
             d="m -211.60408,283.11476 c -2.81304,0.46538 -8.68297,1.52232 -8.68297,1.52232 -1.35738,5.70582 -3.85726,13.96176 -7.03999,25.75869 -1.3611,5.06384 -2.80523,10.18205 -4.20128,14.70583 0.0806,-0.0465 1.49219,-0.38133 4.24454,-0.98901 2.74886,-0.60696 4.69243,-0.95445 5.80465,-1.05401 0.53412,-2.74754 1.57525,-7.68045 3.2391,-14.30688 1.66838,-6.64448 4.13361,-14.66124 6.63595,-25.63694 z"
             id="path1483" /></g></g></g><g
       aria-label="mENUA?"
       transform="matrix(1,-0.08064517,0,1,-28.944915,-15.101695)"
       id="text7990"
       style="font-weight:bold;font-size:35.3531px;line-height:1.3;font-family:Bangers;-inkscape-font-specification:'Bangers Bold';fill:#483c3c;stroke-width:1.25267;paint-order:stroke markers fill;stop-color:#000000"><path
         d="m 90.145481,218.45625 q 3.970318,-10.66807 5.247725,-13.36099 1.76075,-0.20714 2.865535,-0.37977 1.139309,-0.17262 1.933369,-0.27619 0.79407,-0.1381 1.72623,-0.31072 -1.6917,10.01211 -2.831011,25.23742 l -6.179887,1.10478 q 0,-1.24288 0.31072,-4.00484 l 0.483343,-4.14295 q 0.345245,-3.14173 0.655966,-4.86795 H 94.04675 q -0.483343,1.48455 -1.104784,3.14173 -0.586917,1.62265 -1.208358,3.31435 -0.621441,1.6917 -1.242882,3.34888 -0.586917,1.62265 -1.035736,3.10721 -1.242882,0.0345 -2.105995,0.10357 l -2.071471,0.10357 1.139309,-13.11931 h -0.517867 q -0.06905,0.44882 -0.37977,1.5536 -0.276196,1.07026 -0.655966,2.48577 -0.345245,1.38098 -0.794063,2.90006 -0.414295,1.48455 -0.794064,2.76196 -0.621441,2.20957 -0.897638,3.07268 l -5.834642,0.37977 q 5.627495,-16.98606 7.629917,-24.85765 1.967897,0 3.694123,-0.20715 1.726225,-0.20714 3.728647,-0.37977 -0.103573,0.75954 -0.241672,1.72623 -0.103573,0.96668 -0.276196,2.03694 -0.138098,1.07026 -0.31072,2.20957 -0.172623,1.10479 -0.448819,2.90006 -0.241671,1.76075 -0.655966,4.41914 z"
         id="path19273" /><path
         d="m 99.777819,230.85055 4.626281,-25.13385 11.18595,-0.96668 q -0.24168,0.79406 -0.4143,1.5536 -0.17262,0.72502 -0.34524,1.45003 -0.17263,0.72502 -0.2762,1.27741 -1.03574,0.10357 -2.83101,0.10357 h -2.38219 l -1.24288,6.35251 q 1.89884,-0.10357 3.17625,-0.1381 1.27741,-0.0345 1.65718,-0.0691 -0.1381,1.00122 -0.2762,1.9679 -0.10357,0.93216 -0.27619,1.93337 -0.37977,0.0345 -1.17384,0.0691 -0.79406,0 -1.65717,0.0345 -0.86312,0.0345 -1.93338,0.0691 l -1.20835,6.52513 5.14415,-0.82859 -0.34525,4.03937 z"
         id="path19275" /><path
         d="m 126.56884,228.88265 q -0.41429,0 -2.86553,0.58692 -2.41672,0.58692 -2.90006,0.75954 -0.37977,-4.62629 -0.65597,-6.73228 -0.24167,-2.14052 -0.37977,-3.21078 -0.1381,-1.48456 -0.48334,-3.59055 -0.10357,0.65597 -0.2762,1.58813 -0.17262,0.89763 -0.34524,1.96789 -0.55239,3.31436 -1.72623,9.52877 l -5.17867,1.20836 q 3.83222,-19.09206 4.55723,-25.78981 1.10479,-0.069 2.07147,-0.1381 0.96669,-0.10357 1.93337,-0.1381 0.96669,-0.0691 1.69171,-0.1381 0.44881,2.72744 0.72501,4.52271 0.2762,1.76075 0.44882,2.90006 0.20715,1.13931 0.37977,2.20957 0.34524,2.106 0.72501,3.72865 0.1381,-0.72502 0.31072,-1.6917 0.17263,-0.96669 0.37977,-2.03695 0.20715,-1.10478 0.44882,-2.20957 0.24167,-1.13931 0.58692,-2.90006 0.37977,-1.79527 0.93216,-4.48818 l 4.31556,-0.51787 q -3.79769,17.22773 -4.69533,24.58145 z"
         id="path19277" /><path
         d="m 132.26538,205.68218 q 0.75954,-0.069 1.76075,-0.17262 1.03574,-0.10358 2.00242,-0.17262 1.00122,-0.10358 2.07148,-0.20715 -0.89764,4.24651 -1.41551,6.73228 -0.51787,2.48576 -0.82859,3.97032 -0.31072,1.48455 -0.55239,2.72743 -0.55239,2.62387 -0.72501,3.41793 -0.51787,2.38219 -0.51787,3.07268 0,0.69049 0.27619,1.07026 0.31072,0.34525 0.79407,0.34525 0.51786,0 0.89763,-0.48335 0.4143,-0.48334 0.65597,-1.13931 0.2762,-0.65596 0.41429,-1.34645 0.1381,-0.69049 0.2762,-1.38098 0.17262,-0.72502 0.41429,-1.9679 0.2762,-1.27741 0.51787,-2.62386 0.2762,-1.38098 0.55239,-2.79649 0.72502,-3.62507 1.69171,-9.18352 l 5.35129,-0.34524 -0.17262,0.89763 q -0.41429,2.17505 -0.93216,5.04058 -0.48334,2.83101 -0.89764,4.90248 -1.07026,5.38583 -1.58812,7.66445 -0.51787,2.24409 -1.45003,3.65959 -0.89764,1.41551 -2.106,2.34767 -2.31314,1.72623 -5.3513,1.72623 -1.86432,0 -3.21078,-1.03574 -1.51908,-1.24288 -1.51908,-3.27983 0,-0.1381 0,-0.27619 0,-0.1381 0.0691,-0.93217 0.10358,-0.79406 0.4143,-2.83101 0.31072,-2.07147 0.65596,-4.28104 0.37977,-2.24409 0.79407,-4.48818 0.41429,-2.24409 0.75954,-4.07389 0.75953,-3.9358 0.89763,-4.55724 z"
         id="path19279" /><path
         d="m 149.11335,224.77424 -1.41551,5.0751 q -0.79406,0.10357 -1.86432,0.24167 -1.03574,0.1381 -2.07147,0.2762 -1.03574,0.10357 -2.14052,0.24167 1.4155,-4.69534 2.38219,-7.94064 1.00121,-3.2453 1.62265,-5.31677 0.62144,-2.106 1.20836,-4.14295 0.62144,-2.07147 1.17383,-3.97031 0.58692,-1.93338 1.03574,-3.52151 6.38703,-0.44881 9.73591,-1.10478 -0.31072,3.41793 -0.51787,8.07874 -0.44882,9.28709 -0.75954,17.12415 -1.03573,0.17263 -2.03694,0.31072 -0.96669,0.1381 -2.03695,0.31073 -1.03574,0.17262 -1.89885,0.31072 0.37977,-3.31436 0.65597,-5.97274 z m 0.82858,-3.5215 2.55482,-0.17263 q 0,-0.20714 0.0345,-0.69049 0.0691,-0.51787 0.1381,-1.17383 0.2762,-3.69412 0.58692,-6.87038 l 0.24167,-3.07268 -0.55239,0.0345 z"
         id="path19281" /><path
         d="m 166.3756,222.0468 -4.14294,0.41429 q 0,-4.62628 3.62507,-8.07873 0.96669,-0.89764 1.76075,-1.62265 0.82859,-0.72502 1.34646,-1.31194 0.55239,-0.58691 0.55239,-0.96668 0,-0.37977 -0.31072,-0.75954 -0.2762,-0.37977 -0.93216,-0.37977 -1.03574,0 -3.45245,1.76075 -1.07026,0.79406 -2.14052,1.76075 l -1.86433,-4.35009 q 1.79528,-1.62265 4.03937,-2.55481 2.27862,-0.96669 4.59176,-0.96669 3.86675,0 5.14415,2.45124 0.44882,0.86311 0.44882,2.34767 0,1.48455 -0.55239,2.69291 -0.55239,1.20836 -1.4155,2.14052 -0.82859,0.93216 -1.86433,1.72622 -1.03573,0.75954 -1.96789,1.55361 -2.31315,1.96789 -2.86554,4.14294 z m 0.37977,8.28588 q -0.62144,0.58692 -1.5536,0.93216 -0.93216,0.37977 -2.2441,0.37977 -1.2774,0 -1.96789,-0.86311 -0.65597,-0.89764 -0.65597,-1.8298 0,-0.93216 0.24167,-1.62265 0.2762,-0.69049 0.79407,-1.27741 1.10478,-1.24288 2.9691,-1.24288 1.89885,0 2.79649,0.86311 0.93216,0.82859 0.93216,1.76075 0,0.89764 -0.34524,1.62265 -0.31072,0.69049 -0.96669,1.27741 z"
         id="path19283" /></g></g></svg>
