<?xml version="1.0" encoding="UTF-8" standalone="no"?>
<!-- Created with Inkscape (http://www.inkscape.org/) -->

<svg
   width="408.95709mm"
   height="83.868126mm"
   viewBox="0 0 408.95709 83.868126"
   version="1.1"
   id="svg5"
   inkscape:version="1.2.2 (b0a84865, 2022-12-01)"
   sodipodi:docname="datastory-logo.svg"
   xml:space="preserve"
   xmlns:inkscape="http://www.inkscape.org/namespaces/inkscape"
   xmlns:sodipodi="http://sodipodi.sourceforge.net/DTD/sodipodi-0.dtd"
   xmlns="http://www.w3.org/2000/svg"
   xmlns:svg="http://www.w3.org/2000/svg"><sodipodi:namedview
     id="namedview7"
     pagecolor="#8e8e8e"
     bordercolor="#666666"
     borderopacity="1.0"
     inkscape:pageshadow="2"
     inkscape:pageopacity="0"
     inkscape:pagecheckerboard="0"
     inkscape:document-units="mm"
     showgrid="false"
     fit-margin-top="0"
     fit-margin-left="0"
     fit-margin-right="0"
     fit-margin-bottom="0"
     inkscape:zoom="0.32026164"
     inkscape:cx="682.25467"
     inkscape:cy="235.74475"
     inkscape:window-width="1433"
     inkscape:window-height="770"
     inkscape:window-x="0"
     inkscape:window-y="25"
     inkscape:window-maximized="0"
     inkscape:current-layer="g2793"
     inkscape:showpageshadow="2"
     inkscape:deskcolor="#d1d1d1" /><defs
     id="defs2"><clipPath
       clipPathUnits="userSpaceOnUse"
       id="clipPath525"><path
         d="m 102.87,345.808 h 5.94 v -5.94 h -5.94 z"
         id="path523" /></clipPath><clipPath
       clipPathUnits="userSpaceOnUse"
       id="clipPath541"><path
         d="m 114.371,345.808 h 5.941 v -5.94 h -5.941 z"
         id="path539" /></clipPath><clipPath
       clipPathUnits="userSpaceOnUse"
       id="clipPath581"><path
         d="M 0,500 H 950 V 0 H 0 Z"
         id="path579" /></clipPath><clipPath
       clipPathUnits="userSpaceOnUse"
       id="clipPath609"><path
         d="m 474.219,384.938 h 30.425 v -11.659 h -30.425 z"
         id="path607" /></clipPath><clipPath
       clipPathUnits="userSpaceOnUse"
       id="clipPath649"><path
         d="M 0,500 H 950 V 0 H 0 Z"
         id="path647" /></clipPath><clipPath
       clipPathUnits="userSpaceOnUse"
       id="clipPath665"><path
         d="m 615.308,333.527 c 0,-14.219 9.084,-26.311 21.762,-30.807 v 0 c 0.297,-4.205 3.793,-7.525 8.074,-7.525 v 0 h 5.702 c 4.279,0 7.776,3.32 8.072,7.525 v 0 c 12.679,4.496 21.759,16.588 21.759,30.807 v 0 c 0,18.05 5.283,44.65 -32.683,44.65 v 0 c -18.048,0 -32.686,-26.6 -32.686,-44.65"
         id="path663" /></clipPath><clipPath
       clipPathUnits="userSpaceOnUse"
       id="clipPath691"><path
         d="M 0,500 H 950 V 0 H 0 Z"
         id="path689" /></clipPath><clipPath
       clipPathUnits="userSpaceOnUse"
       id="clipPath735"><path
         d="m 385.522,153.059 h 20.047 v -19.761 h -20.047 z"
         id="path733" /></clipPath><clipPath
       clipPathUnits="userSpaceOnUse"
       id="clipPath775"><path
         d="M 0,500 H 950 V 0 H 0 Z"
         id="path773" /></clipPath><clipPath
       clipPathUnits="userSpaceOnUse"
       id="clipPath783"><path
         d="m 176.482,189.559 h 23.823 v -25.712 h -23.823 z"
         id="path781" /></clipPath><clipPath
       clipPathUnits="userSpaceOnUse"
       id="clipPath799"><path
         d="m 152.657,189.559 h 23.825 v -25.712 h -23.825 z"
         id="path797" /></clipPath><clipPath
       clipPathUnits="userSpaceOnUse"
       id="clipPath827"><path
         d="m 184.995,170.415 h 26.674 v -13.21 h -26.674 z"
         id="path825" /></clipPath><clipPath
       clipPathUnits="userSpaceOnUse"
       id="clipPath541-9"><path
         d="m 114.371,345.808 h 5.941 v -5.94 h -5.941 z"
         id="path539-0" /></clipPath><clipPath
       clipPathUnits="userSpaceOnUse"
       id="clipPath525-5"><path
         d="m 102.87,345.808 h 5.94 v -5.94 h -5.94 z"
         id="path523-2" /></clipPath><clipPath
       clipPathUnits="userSpaceOnUse"
       id="clipPath1779"><path
         d="m 102.87,345.808 h 5.94 v -5.94 h -5.94 z"
         id="path1777" /></clipPath></defs><g
     inkscape:label="Layer 1"
     inkscape:groupmode="layer"
     id="layer1"
     transform="translate(217.49309,-61.752345)" /><g
     id="g521"
     transform="matrix(0.85729175,0,0,-0.8572917,-43.465585,326.71186)" /><g
     id="g537"
     transform="matrix(0.85729175,0,0,-0.8572917,-43.465585,326.71186)" /><g
     id="g2793"><path
       d="m 77.249017,57.332739 c 2.647317,-1.495117 3.617771,-4.789689 2.168091,-7.357277 L 53.039098,3.2684951 C 51.589418,0.70004913 48.267412,-0.16924463 45.620952,1.3250148 L 10.362258,21.237329 41.992036,77.245053 Z"
       style="fill:#faaf41;fill-opacity:1;fill-rule:nonzero;stroke:none;stroke-width:0.857292"
       id="path493"
       clip-path="none" /><path
       d="m 18.940233,16.392431 -8.578061,4.844555 31.629779,56.007724 8.578061,-4.845412 z"
       style="fill:#ff962b;fill-opacity:1;fill-rule:nonzero;stroke:none;stroke-width:0.857292"
       id="path497"
       clip-path="none" /><path
       d="m 68.809237,83.003738 c 2.991091,0.543523 5.843301,-1.369952 6.369678,-4.271027 l 9.574234,-52.780878 c 0.526377,-2.901075 -1.472827,-5.692417 -4.463918,-6.23594 L 40.447454,12.488924 28.96746,75.776769 Z"
       style="fill:#e44554;fill-opacity:1;fill-rule:nonzero;stroke:none;stroke-width:0.857292"
       id="path501"
       clip-path="none" /><path
       d="M 50.140509,14.246715 40.447111,12.48841 28.967117,75.776255 38.661372,77.535417 Z"
       style="fill:#af0a19;fill-opacity:1;fill-rule:nonzero;stroke:none;stroke-width:0.857292"
       id="path505"
       clip-path="none" /><path
       d="m 70.815274,43.218749 c 0,1.660075 -1.346069,3.005375 -3.006144,3.005375 H 34.910858 c -1.660075,0 -3.006144,-1.3453 -3.006144,-3.005375 V 23.84659 c 0,-1.660076 1.346069,-3.006145 3.006144,-3.006145 H 67.80913 c 1.660075,0 3.006144,1.346069 3.006144,3.006145 z"
       style="fill:#ffffff;fill-opacity:1;fill-rule:nonzero;stroke:none;stroke-width:0.769622"
       id="path509"
       clip-path="none" /><path
       d="M 31.900427,34.646657 V 59.460965 L 42.628576,39.522932"
       style="fill:#ffffff;fill-opacity:1;fill-rule:nonzero;stroke:none;stroke-width:0.857292"
       id="path513"
       clip-path="none" /><g
       aria-label="datastory"
       id="text2391"
       style="font-size:68.1109px;line-height:1.3;font-family:Bebas;-inkscape-font-specification:Bebas;letter-spacing:1.3337px;opacity:1;fill:#ffffff;stroke-width:64.0995;paint-order:stroke markers fill"
       transform="translate(0,-2.4784423)"><path
         d="m 117.15257,47.620945 q -1.66286,3.458757 -4.42321,4.955334 -2.7271,1.496578 -6.78449,1.496578 -6.81774,0 -10.043695,-4.589505 -3.192699,-4.589504 -3.192699,-13.901541 0,-18.823618 13.236394,-18.823618 4.09065,0 6.81774,1.496577 2.7271,1.496578 4.38996,4.755791 h 0.0665 l -0.0665,-4.02413 V 4.0539137 h 5.98631 V 45.991339 q 0,5.620479 0.19955,7.416372 h -5.72025 q -0.0998,-0.532116 -0.23281,-2.461038 -0.0998,-1.928922 -0.0998,-3.325728 z M 98.994101,35.382268 q 0,7.549401 1.995439,10.808614 1.99543,3.259213 6.48517,3.259213 5.08836,0 7.38311,-3.525271 2.29475,-3.525271 2.29475,-10.941644 0,-7.150314 -2.29475,-10.476042 -2.29475,-3.325727 -7.3166,-3.325727 -4.52299,0 -6.55168,3.358985 -1.995439,3.325727 -1.995439,10.841872 z"
         style="font-family:'Liberation Sans';-inkscape-font-specification:'Liberation Sans'"
         id="path561" /><path
         d="m 142.8306,54.072857 q -5.42094,0 -8.14804,-2.860126 -2.72709,-2.860126 -2.72709,-7.848717 0,-5.587223 3.6583,-8.580377 3.69156,-2.993155 11.87285,-3.192699 l 8.08151,-0.133029 V 29.49573 q 0,-4.389961 -1.8624,-6.285625 -1.86241,-1.895665 -5.85328,-1.895665 -4.02414,0 -5.85329,1.363548 -1.82915,1.363548 -2.19498,4.356703 l -6.25236,-0.565373 q 1.52983,-9.711125 14.43365,-9.711125 6.78449,0 10.20999,3.126184 3.4255,3.092927 3.4255,8.979464 v 15.497891 q 0,2.660582 0.6984,4.02413 0.6984,1.330291 2.66058,1.330291 0.86469,0 1.96218,-0.232801 v 3.724815 q -2.26149,0.532117 -4.62276,0.532117 -3.32573,0 -4.85556,-1.729379 -1.49658,-1.762635 -1.69612,-5.48745 h -0.19955 q -2.29475,4.123902 -5.35442,5.85328 -3.02641,1.696122 -7.38311,1.696122 z m 1.36354,-4.489733 q 3.29248,0 5.85329,-1.496577 2.56081,-1.496578 4.02413,-4.090645 1.49657,-2.627325 1.49657,-5.387679 v -2.959897 l -6.55168,0.133029 q -4.22367,0.06651 -6.41865,0.864689 -2.16173,0.798175 -3.32573,2.461038 -1.16401,1.662864 -1.16401,4.356704 0,2.92664 1.5631,4.522989 1.59634,1.596349 4.52298,1.596349 z"
         style="font-family:'Liberation Sans';-inkscape-font-specification:'Liberation Sans'"
         id="path563" /><path
         d="m 186.70035,53.141653 q -2.9599,0.798174 -6.05283,0.798174 -7.18357,0 -7.18357,-8.148032 V 21.780042 h -4.15716 v -4.356703 h 4.38996 l 1.76264,-8.0482612 h 3.99087 v 8.0482612 h 6.65146 v 4.356703 h -6.65146 v 22.714719 q 0,2.594068 0.83143,3.6583 0.86469,1.030976 2.9599,1.030976 1.19726,0 3.45876,-0.465602 z"
         style="font-family:'Liberation Sans';-inkscape-font-specification:'Liberation Sans'"
         id="path565" /><path
         d="m 202.30143,54.072857 q -5.42094,0 -8.14804,-2.860126 -2.72709,-2.860126 -2.72709,-7.848717 0,-5.587223 3.6583,-8.580377 3.69155,-2.993155 11.87284,-3.192699 l 8.08152,-0.133029 V 29.49573 q 0,-4.389961 -1.86241,-6.285625 -1.8624,-1.895665 -5.85328,-1.895665 -4.02413,0 -5.85328,1.363548 -1.82915,1.363548 -2.19498,4.356703 l -6.25236,-0.565373 q 1.52983,-9.711125 14.43365,-9.711125 6.78449,0 10.20999,3.126184 3.4255,3.092927 3.4255,8.979464 v 15.497891 q 0,2.660582 0.6984,4.02413 0.6984,1.330291 2.66058,1.330291 0.86469,0 1.96218,-0.232801 v 3.724815 q -2.26149,0.532117 -4.62276,0.532117 -3.32573,0 -4.85556,-1.729379 -1.49658,-1.762635 -1.69612,-5.48745 h -0.19955 q -2.29475,4.123902 -5.35442,5.85328 -3.02641,1.696122 -7.38311,1.696122 z m 1.36354,-4.489733 q 3.29247,0 5.85328,-1.496577 2.56081,-1.496578 4.02413,-4.090645 1.49658,-2.627325 1.49658,-5.387679 v -2.959897 l -6.55168,0.133029 q -4.22368,0.06651 -6.41866,0.864689 -2.16172,0.798175 -3.32572,2.461038 -1.16401,1.662864 -1.16401,4.356704 0,2.92664 1.56309,4.522989 1.59635,1.596349 4.52299,1.596349 z"
         style="font-family:'Liberation Sans';-inkscape-font-specification:'Liberation Sans'"
         id="path567" /><path
         d="m 262.83308,42.898412 q 0,5.221392 -4.29019,8.214547 -4.25693,2.959898 -11.80633,2.959898 -7.41638,0 -11.37399,-2.32801 -3.92436,-2.361266 -5.2214,-7.3166 l 8.21455,-1.23052 q 0.6984,2.560811 2.39453,3.625043 1.72937,1.064233 5.98631,1.064233 3.92435,0 5.72025,-0.997718 1.79589,-0.997718 1.79589,-3.126184 0,-1.729378 -1.46332,-2.727097 -1.43006,-1.030975 -4.88882,-1.729378 -7.91523,-1.563092 -10.67559,-2.893383 -2.76035,-1.363548 -4.22367,-3.492014 -1.43006,-2.161723 -1.43006,-5.287907 0,-5.154877 3.95761,-8.015003 3.99088,-2.893383 11.27422,-2.893383 6.41865,0 10.30976,2.494295 3.92435,2.494296 4.88881,7.216829 l -8.28106,0.86469 q -0.39908,-2.194981 -1.96218,-3.259214 -1.56309,-1.09749 -4.95533,-1.09749 -3.32573,0 -4.98859,0.86469 -1.66287,0.831431 -1.66287,2.826868 0,1.563092 1.26378,2.494296 1.29703,0.897946 4.32345,1.496577 4.22367,0.864689 7.48288,1.795893 3.29247,0.897946 5.25465,2.161723 1.99544,1.263776 3.15944,3.259213 1.19727,1.962179 1.19727,5.055106 z"
         style="font-weight:bold;font-family:'Liberation Sans';-inkscape-font-specification:'Liberation Sans Bold'"
         id="path569" /><path
         d="m 280.92844,54.006342 q -4.12391,0 -6.35214,-2.228237 -2.22824,-2.261495 -2.22824,-6.817742 V 23.742221 h -4.55625 v -6.318882 h 5.02185 l 2.92664,-8.4473485 h 5.85328 v 8.4473485 h 6.81774 v 6.318882 h -6.81774 V 42.43281 q 0,2.627325 0.99772,3.891101 0.99772,1.230519 3.09293,1.230519 1.09749,0 3.12618,-0.465601 v 5.786766 q -3.45876,1.130747 -7.88197,1.130747 z"
         style="font-weight:bold;font-family:'Liberation Sans';-inkscape-font-specification:'Liberation Sans Bold'"
         id="path571" /><path
         d="m 329.91982,35.382268 q 0,8.746663 -4.85556,13.735254 -4.85557,4.955335 -13.43594,4.955335 -8.41409,0 -13.20314,-4.988592 -4.78905,-4.988591 -4.78905,-13.701997 0,-8.680149 4.78905,-13.635484 4.78905,-4.988591 13.40268,-4.988591 8.81318,0 13.43594,4.822305 4.65602,4.789048 4.65602,13.80177 z m -9.77764,0 q 0,-6.418655 -2.09521,-9.312038 -2.09521,-2.893383 -6.08608,-2.893383 -8.51386,0 -8.51386,12.205421 0,6.019566 2.06195,9.179008 2.09521,3.126184 6.01956,3.126184 8.61364,0 8.61364,-12.305192 z"
         style="font-weight:bold;font-family:'Liberation Sans';-inkscape-font-specification:'Liberation Sans Bold'"
         id="path573" /><path
         d="M 338.66989,53.407711 V 25.870687 q 0,-2.959898 -0.0998,-4.922077 -0.0665,-1.995437 -0.16629,-3.525271 h 8.91295 q 0.0998,0.598631 0.26606,3.6583 0.16629,3.026412 0.16629,4.02413 h 0.13303 q 1.36354,-3.791329 2.42778,-5.321164 1.06423,-1.563092 2.52755,-2.294752 1.46332,-0.764917 3.6583,-0.764917 1.79589,0 2.89338,0.498859 v 7.81546 q -2.26149,-0.498859 -3.99087,-0.498859 -3.49201,0 -5.45419,2.826868 -1.92892,2.826869 -1.92892,8.380834 v 17.659613 z"
         style="font-weight:bold;font-family:'Liberation Sans';-inkscape-font-specification:'Liberation Sans Bold'"
         id="path575" /><path
         d="m 371.16565,67.542053 q -3.35899,0 -5.88654,-0.432344 v -6.651455 q 1.76263,0.266058 3.22595,0.266058 1.99544,0 3.29247,-0.631889 1.3303,-0.631888 2.36127,-2.095208 1.06423,-1.46332 2.36127,-4.955334 L 362.28595,17.423339 h 9.87741 l 5.65374,16.861438 q 1.33029,3.625043 3.35899,11.107931 l 0.83143,-3.159442 2.16172,-7.815459 5.32117,-16.994468 h 9.77763 l -14.23411,37.880037 q -2.86013,6.917513 -5.95305,9.578095 -3.05967,2.660582 -7.91523,2.660582 z"
         style="font-weight:bold;font-family:'Liberation Sans';-inkscape-font-specification:'Liberation Sans Bold'"
         id="path577" /></g><g
       aria-label="kohryan.page"
       id="text457"
       style="font-size:21.0655px;line-height:1.3;font-family:'Liberation Sans';-inkscape-font-specification:'Liberation Sans';letter-spacing:0px;opacity:1;fill:#ffffff;stroke-width:19.8248;paint-order:stroke markers fill"
       transform="matrix(1.2347943,0,0,1.2347943,-83.94712,-17.479086)"><path
         d="m 236.05028,75.74765 -4.06564,-5.624488 -2.33827,2.190812 v 3.433676 h -1.43245 V 60.369835 h 1.43245 v 10.406357 l 6.21432,-5.982602 h 1.57991 l -4.48695,4.486952 4.65548,6.467108 z"
         style="font-family:Raleway;-inkscape-font-specification:Raleway"
         id="path580" /><path
         d="m 243.48637,75.958305 q -1.17967,0 -2.19081,-0.442375 -0.99008,-0.463441 -1.72737,-1.242865 -0.71623,-0.800489 -1.11648,-1.811633 -0.40024,-1.032209 -0.40024,-2.169746 0,-1.179668 0.40024,-2.190812 0.40025,-1.03221 1.13754,-1.811633 0.73729,-0.800489 1.72737,-1.242865 1.01115,-0.463441 2.19081,-0.463441 1.17967,0 2.16975,0.463441 0.99008,0.442376 1.72737,1.242865 0.73729,0.779423 1.13754,1.811633 0.40024,1.011144 0.40024,2.190812 0,1.137537 -0.40024,2.169746 -0.40025,1.011144 -1.13754,1.811633 -0.71623,0.779424 -1.72737,1.242865 -0.99008,0.442375 -2.19081,0.442375 z m -3.98138,-5.645554 q 0,1.221799 0.52664,2.232943 0.5477,0.990079 1.45352,1.579913 0.90581,0.568768 2.00122,0.568768 1.0954,0 2.00122,-0.589834 0.90582,-0.589834 1.45352,-1.600978 0.5477,-1.032209 0.5477,-2.232943 0,-1.221799 -0.5477,-2.232943 -0.5477,-1.011144 -1.45352,-1.600978 -0.90582,-0.589834 -2.00122,-0.589834 -1.09541,0 -2.00122,0.6109 -0.88476,0.610899 -1.43246,1.622043 -0.5477,0.990079 -0.5477,2.232943 z"
         style="font-family:Raleway;-inkscape-font-specification:Raleway"
         id="path582" /><path
         d="m 260.57048,75.74765 h -1.43246 v -6.13006 q 0,-1.853764 -0.65303,-2.780646 -0.65303,-0.947948 -1.87483,-0.947948 -0.80049,0 -1.60098,0.42131 -0.77942,0.400245 -1.39032,1.116472 -0.58983,0.695161 -0.84262,1.600978 v 6.719894 h -1.43245 V 60.369835 h 1.43245 v 6.888419 q 0.65303,-1.221799 1.81163,-1.938026 1.17967,-0.737293 2.5068,-0.737293 0.94795,0 1.60098,0.337048 0.67409,0.337048 1.07434,0.990079 0.42131,0.631965 0.6109,1.49565 0.18959,0.84262 0.18959,1.916961 z"
         style="font-family:Raleway;-inkscape-font-specification:Raleway"
         id="path584" /><path
         d="m 269.10196,66.036455 q -1.43245,0.04213 -2.52786,0.800489 -1.07434,0.758358 -1.51671,2.085484 v 6.825222 h -1.43246 V 64.772525 h 1.3482 v 2.633187 q 0.56876,-1.158602 1.49565,-1.874829 0.94794,-0.716227 2.00122,-0.800489 0.21065,-0.02107 0.35811,-0.02107 0.16853,0 0.27385,0.02107 z"
         style="font-family:Raleway;-inkscape-font-specification:Raleway"
         id="path586" /><path
         d="m 271.65089,79.11813 q 0.29492,0.02107 0.56877,0.02107 0.27385,0.02107 0.40024,-0.02107 0.25279,-0.04213 0.48451,-0.294917 0.23172,-0.252786 0.5477,-0.969013 0.31598,-0.716227 0.88475,-2.10655 l -4.78187,-10.975125 h 1.51672 l 4.02351,9.50054 3.70753,-9.50054 h 1.43245 l -5.68768,14.156016 q -0.14746,0.400244 -0.44238,0.737292 -0.29492,0.358114 -0.73729,0.547703 -0.42131,0.210655 -1.05328,0.231721 -0.18959,0.02107 -0.40024,0 -0.18959,0 -0.46344,-0.04213 z"
         style="font-family:Raleway;-inkscape-font-specification:Raleway"
         id="path588" /><path
         d="m 281.25671,72.587825 q 0,-1.032209 0.58984,-1.769502 0.58983,-0.758358 1.62204,-1.158602 1.05327,-0.42131 2.42253,-0.42131 0.80049,0 1.66418,0.126393 0.86368,0.126393 1.53778,0.379179 v -0.926882 q 0,-1.390323 -0.82156,-2.211878 -0.82155,-0.821554 -2.27507,-0.821554 -0.88475,0 -1.74844,0.337048 -0.84262,0.315982 -1.7695,0.947947 l -0.5477,-1.011144 q 1.07434,-0.737292 2.10655,-1.095406 1.03221,-0.379179 2.10655,-0.379179 2.02229,0 3.20195,1.158603 1.17967,1.158602 1.17967,3.201956 v 5.076785 q 0,0.294917 0.12639,0.442376 0.1264,0.126393 0.40025,0.147458 v 1.137537 q -0.23172,0.02107 -0.40025,0.04213 -0.16852,0.02107 -0.25278,0 -0.52664,-0.02107 -0.80049,-0.337048 -0.27385,-0.315982 -0.29492,-0.674096 l -0.0211,-0.800489 q -0.7373,0.947948 -1.91696,1.474585 -1.17967,0.505572 -2.40147,0.505572 -1.05328,0 -1.91696,-0.442375 -0.84262,-0.463441 -1.32713,-1.221799 -0.46344,-0.779424 -0.46344,-1.706306 z m 7.35186,0.84262 q 0.23172,-0.294917 0.35811,-0.568768 0.1264,-0.273852 0.1264,-0.484507 v -1.600978 q -0.71623,-0.273851 -1.49565,-0.42131 -0.75836,-0.147458 -1.53778,-0.147458 -1.53779,0 -2.48573,0.610899 -0.94795,0.6109 -0.94795,1.664175 0,0.610899 0.31598,1.158602 0.31598,0.526638 0.92688,0.884751 0.6109,0.337048 1.43246,0.337048 1.03221,0 1.91696,-0.400244 0.90581,-0.400245 1.39032,-1.03221 z"
         style="font-family:Raleway;-inkscape-font-specification:Raleway"
         id="path590" /><path
         d="m 302.84882,75.74765 h -1.43246 v -6.13006 q 0,-1.938026 -0.56877,-2.822777 -0.56877,-0.905817 -1.79056,-0.905817 -0.84262,0 -1.66418,0.42131 -0.82155,0.400245 -1.45352,1.116472 -0.6109,0.695161 -0.88475,1.600978 v 6.719894 h -1.43245 V 64.772525 h 1.30606 v 2.485729 q 0.44237,-0.800489 1.1586,-1.390323 0.71623,-0.6109 1.62204,-0.947948 0.90582,-0.337048 1.87483,-0.337048 0.90582,0 1.53778,0.337048 0.63197,0.337048 1.01115,0.969013 0.37918,0.6109 0.5477,1.495651 0.16853,0.863685 0.16853,1.938026 z"
         style="font-family:Raleway;-inkscape-font-specification:Raleway"
         id="path592" /><path
         d="m 305.69262,75.74765 v -2.064419 h 1.24287 v 2.064419 z"
         style="font-family:Raleway;-inkscape-font-specification:Raleway"
         id="path594" /><path
         d="m 315.48806,75.958305 q -1.36926,0 -2.46466,-0.716227 -1.07434,-0.716227 -1.70631,-1.769502 v 6.762026 h -1.43245 V 64.772525 h 1.28499 v 2.127615 q 0.65303,-1.032209 1.74844,-1.664174 1.09541,-0.653031 2.33827,-0.653031 1.13754,0 2.08549,0.484507 0.94794,0.463441 1.6431,1.26393 0.69517,0.800489 1.07434,1.832698 0.40025,1.011144 0.40025,2.10655 0,1.537782 -0.63197,2.843843 -0.6109,1.284995 -1.72737,2.064419 -1.11647,0.779423 -2.61212,0.779423 z m -0.40024,-1.26393 q 0.90581,0 1.62204,-0.358113 0.71623,-0.379179 1.2218,-1.011144 0.52664,-0.631965 0.80049,-1.411389 0.27385,-0.800489 0.27385,-1.643109 0,-0.884751 -0.31598,-1.68524 -0.29492,-0.800489 -0.86369,-1.411388 -0.56877,-0.6109 -1.30606,-0.969013 -0.73729,-0.358114 -1.60098,-0.358114 -0.5477,0 -1.13753,0.210655 -0.58984,0.210655 -1.13754,0.6109 -0.52664,0.379179 -0.88475,0.863685 -0.35812,0.484507 -0.44238,1.03221 v 3.37048 q 0.33705,0.779423 0.90582,1.411388 0.56877,0.6109 1.30606,0.990079 0.75836,0.358113 1.55885,0.358113 z"
         style="font-family:Raleway;-inkscape-font-specification:Raleway"
         id="path596" /><path
         d="m 321.99727,72.587825 q 0,-1.032209 0.58983,-1.769502 0.58984,-0.758358 1.62205,-1.158602 1.05327,-0.42131 2.42253,-0.42131 0.80049,0 1.66417,0.126393 0.86369,0.126393 1.53779,0.379179 v -0.926882 q 0,-1.390323 -0.82156,-2.211878 -0.82155,-0.821554 -2.27507,-0.821554 -0.88475,0 -1.74844,0.337048 -0.84262,0.315982 -1.7695,0.947947 l -0.5477,-1.011144 q 1.07434,-0.737292 2.10655,-1.095406 1.03221,-0.379179 2.10655,-0.379179 2.02228,0 3.20195,1.158603 1.17967,1.158602 1.17967,3.201956 v 5.076785 q 0,0.294917 0.12639,0.442376 0.1264,0.126393 0.40025,0.147458 v 1.137537 q -0.23172,0.02107 -0.40025,0.04213 -0.16852,0.02107 -0.25278,0 -0.52664,-0.02107 -0.80049,-0.337048 -0.27385,-0.315982 -0.29492,-0.674096 l -0.0211,-0.800489 q -0.7373,0.947948 -1.91696,1.474585 -1.17967,0.505572 -2.40147,0.505572 -1.05328,0 -1.91696,-0.442375 -0.84262,-0.463441 -1.32713,-1.221799 -0.46344,-0.779424 -0.46344,-1.706306 z m 7.35186,0.84262 q 0.23172,-0.294917 0.35811,-0.568768 0.1264,-0.273852 0.1264,-0.484507 v -1.600978 q -0.71623,-0.273851 -1.49565,-0.42131 -0.75836,-0.147458 -1.53779,-0.147458 -1.53778,0 -2.48572,0.610899 -0.94795,0.6109 -0.94795,1.664175 0,0.610899 0.31598,1.158602 0.31598,0.526638 0.92688,0.884751 0.6109,0.337048 1.43246,0.337048 1.03221,0 1.91696,-0.400244 0.90581,-0.400245 1.39032,-1.03221 z"
         style="font-family:Raleway;-inkscape-font-specification:Raleway"
         id="path598" /><path
         d="m 338.76537,75.895109 q -1.11647,0 -2.06442,-0.463441 -0.94795,-0.463441 -1.64311,-1.242865 -0.67409,-0.800489 -1.05327,-1.811633 -0.37918,-1.011144 -0.37918,-2.085484 0,-1.158603 0.35811,-2.169747 0.37918,-1.032209 1.05328,-1.832698 0.69516,-0.800489 1.62204,-1.242865 0.92688,-0.463441 2.06442,-0.463441 1.41139,0 2.4436,0.716227 1.05327,0.716227 1.7695,1.769502 v -2.296139 h 1.28499 v 11.017256 q 0,1.516716 -0.73729,2.548926 -0.71622,1.053275 -1.95909,1.579912 -1.2218,0.526638 -2.67532,0.526638 -1.87483,0 -3.03343,-0.674096 -1.1586,-0.674096 -1.89589,-1.811633 l 0.88475,-0.695162 q 0.65303,1.03221 1.72737,1.537782 1.0954,0.505572 2.3172,0.505572 1.07434,0 1.95909,-0.400245 0.90582,-0.379179 1.43246,-1.158602 0.5477,-0.779424 0.5477,-1.959092 v -2.169746 q -0.63196,1.032209 -1.72737,1.664174 -1.09541,0.6109 -2.29614,0.6109 z m 0.40024,-1.200734 q 0.65304,0 1.24287,-0.23172 0.6109,-0.231721 1.11647,-0.6109 0.50557,-0.400244 0.84262,-0.884751 0.33705,-0.484506 0.42131,-0.990078 V 68.58538 q -0.31598,-0.800489 -0.90582,-1.411388 -0.58983,-0.631965 -1.34819,-0.969013 -0.73729,-0.358114 -1.53778,-0.358114 -0.92688,0 -1.66417,0.400245 -0.71623,0.379179 -1.2218,1.032209 -0.48451,0.631965 -0.75836,1.432454 -0.27385,0.800489 -0.27385,1.600978 0,0.884751 0.31598,1.68524 0.31598,0.779424 0.86369,1.411389 0.56876,0.610899 1.30606,0.947947 0.75835,0.337048 1.60097,0.337048 z"
         style="font-family:Raleway;-inkscape-font-specification:Raleway"
         id="path600" /><path
         d="m 352.12086,75.958305 q -1.17967,0 -2.19081,-0.442375 -1.01115,-0.463441 -1.74844,-1.242865 -0.73729,-0.800489 -1.1586,-1.832698 -0.40025,-1.03221 -0.40025,-2.211878 0,-1.537781 0.69516,-2.822777 0.71623,-1.284995 1.9591,-2.043353 1.24286,-0.779424 2.82277,-0.779424 1.62205,0 2.82278,0.779424 1.2218,0.779423 1.91696,2.064419 0.69516,1.26393 0.69516,2.780646 0,0.168524 0,0.337048 0,0.147458 -0.0211,0.23172 h -9.39522 q 0.10533,1.179668 0.65303,2.10655 0.56877,0.905817 1.45352,1.45352 0.90582,0.526637 1.9591,0.526637 1.07434,0 2.02228,-0.547703 0.96902,-0.547703 1.3482,-1.432454 l 1.24286,0.337048 q -0.33705,0.779424 -1.03221,1.411389 -0.69516,0.631965 -1.64311,0.990078 -0.92688,0.337048 -2.00122,0.337048 z m -4.04458,-6.214322 h 8.11022 q -0.0843,-1.200734 -0.65303,-2.10655 -0.5477,-0.905817 -1.45352,-1.411389 -0.88475,-0.526637 -1.95909,-0.526637 -1.07434,0 -1.95909,0.526637 -0.88475,0.505572 -1.45352,1.432454 -0.54771,0.905817 -0.63197,2.085485 z"
         style="font-family:Raleway;-inkscape-font-specification:Raleway"
         id="path602" /></g></g></svg>
